{
.appVersion = "983";
DisplayStrings = (
CHO
);
classes = (
{
automatic = 1;

glyphs = (
{
glyphname = A;
layers = (
{
anchors = (
{
name = bottom;
position = "{331, 0}";
},
{
name = ogonek;
position = "{609, 2}";
},
{
name = top;
position = "{331, 700}";
}
);
layerId = "D9DFF065-DDB2-4B0F-A853-E0DAE751FB65";
paths = (
{
closed = 1;
nodes = (
"64 0 LINE",
"336 676 LINE",
"342 676 LINE",
"596 0 LINE",
"619 0 LINE",
"357 700 LINE",
"323 700 LINE",
"41 0 LINE"
);
},
{
closed = 1;
nodes = (
"514 243 LINE",
"508 264 LINE",
"161 264 LINE",
"156 243 LINE"
);
}
);
width = 661;
},
{
anchors = (
{
name = bottom;
position = "{361, 0}";
},
{
name = ogonek;
position = "{641, 5}";
},
{
name = top;
position = "{361, 707}";
}
);
layerId = "EF8420CB-322A-4DAC-B980-DA6E6912705F";
paths = (
{
closed = 1;
nodes = (
"201 0 LINE",
"355 519 LINE",
"363 519 LINE",
"521 0 LINE",
"712 0 LINE",
"472 707 LINE",
"249 707 LINE",
"10 0 LINE"
);
},
{
closed = 1;
nodes = (
"521 144 LINE",
"486 306 LINE",
"234 306 LINE",
"200 144 LINE"
);
}
);
width = 722;
}
);
unicode = 0041;
},
{
glyphname = AE;
layers = (
{
anchors = (
{
name = bottom;
position = "{467, 0}";
},
{
name = top;
position = "{467, 700}";
}
);
components = (
{
name = E;
transform = "{1, 0, 0, 1, 343, 0}";
}
);
layerId = "D9DFF065-DDB2-4B0F-A853-E0DAE751FB65";
paths = (
{
closed = 1;
nodes = (
"66 0 LINE",
"457 669 LINE",
"463 669 LINE",
"463 0 LINE",
"484 0 LINE",
"484 700 LINE",
"451 700 LINE",
"36 0 LINE"
);
},
{
closed = 1;
nodes = (
"476 243 LINE",
"470 264 LINE",
"198 264 LINE",
"198 243 LINE"
);
}
);
width = 949;
},
{
anchors = (
{
name = bottom;
position = "{503, 0}";
},
{
name = top;
position = "{503, 707}";
}
);
components = (
{
name = E;
transform = "{1, 0, 0, 1, 387, 0}";
}
);
layerId = "EF8420CB-322A-4DAC-B980-DA6E6912705F";
paths = (
{
closed = 1;
nodes = (
"193 0 LINE",
"462 539 LINE",
"470 539 LINE",
"470 0 LINE",
"646 0 LINE",
"646 707 LINE",
"378 707 LINE",
"2 0 LINE"
);
},
{
closed = 1;
nodes = (
"527 144 LINE",
"527 306 LINE",
"252 306 LINE",
"252 144 LINE"
);
}
);
width = 1041;
}
);
rightMetricsKey = E;
unicode = 00C6;
},
{
glyphname = B;
layers = (
{
anchors = (
{
name = bottom;
position = "{297, 0}";
},
{
name = top;
position = "{297, 700}";
}
);
layerId = "D9DFF065-DDB2-4B0F-A853-E0DAE751FB65";
paths = (
{
closed = 1;
nodes = (
"349 0 LINE SMOOTH",
"495 0 OFFCURVE",
"592 72 OFFCURVE",
"592 179 CURVE SMOOTH",
"592 274 OFFCURVE",
"514 347 OFFCURVE",
"396 361 CURVE",
"396 363 LINE",
"479 376 OFFCURVE",
"535 440 OFFCURVE",
"535 523 CURVE SMOOTH",
"535 629 OFFCURVE",
"447 700 OFFCURVE",
"314 700 CURVE SMOOTH",
"120 700 LINE",
"120 0 LINE"
);
},
{
closed = 1;
nodes = (
"141 680 LINE",
"327 680 LINE SMOOTH",
"438 680 OFFCURVE",
"512 617 OFFCURVE",
"512 523 CURVE SMOOTH",
"512 431 OFFCURVE",
"438 369 OFFCURVE",
"327 369 CURVE SMOOTH",
"129 369 LINE",
"129 349 LINE",
"326 349 LINE SMOOTH",
"472 349 OFFCURVE",
"570 281 OFFCURVE",
"570 180 CURVE SMOOTH",
"570 84 OFFCURVE",
"486 20 OFFCURVE",
"359 20 CURVE SMOOTH",
"141 20 LINE"
);
}
);
width = 654;
},
{
anchors = (
{
name = bottom;
position = "{320, 0}";
},
{
name = top;
position = "{320, 707}";
}
);
layerId = "EF8420CB-322A-4DAC-B980-DA6E6912705F";
paths = (
{
closed = 1;
nodes = (
"385 0 LINE SMOOTH",
"544 0 OFFCURVE",
"650 79 OFFCURVE",
"650 198 CURVE SMOOTH",
"650 285 OFFCURVE",
"593 353 OFFCURVE",
"507 369 CURVE",
"507 371 LINE",
"566 397 OFFCURVE",
"605 459 OFFCURVE",
"605 526 CURVE SMOOTH",
"605 635 OFFCURVE",
"504 707 OFFCURVE",
"352 707 CURVE SMOOTH",
"89 707 LINE",
"89 0 LINE"
);
},
{
closed = 1;
nodes = (
"265 545 LINE",
"347 545 LINE SMOOTH",
"394 545 OFFCURVE",
"426 524 OFFCURVE",
"426 492 CURVE SMOOTH",
"426 461 OFFCURVE",
"394 440 OFFCURVE",
"347 440 CURVE SMOOTH",
"252 440 LINE",
"252 278 LINE",
"388 278 LINE SMOOTH",
"437 278 OFFCURVE",
"470 255 OFFCURVE",
"470 220 CURVE SMOOTH",
"470 186 OFFCURVE",
"438 162 OFFCURVE",
"389 162 CURVE SMOOTH",
"265 162 LINE"
);
}
);
width = 685;
}
);
unicode = 0042;
},
{
glyphname = C;
layers = (
{
anchors = (
{
name = bottom;
position = "{406, 0}";
},
{
name = top;
position = "{360, 700}";
}
);
layerId = "D9DFF065-DDB2-4B0F-A853-E0DAE751FB65";
paths = (
{
closed = 1;
nodes = (
"575 47 LINE",
"518 21 OFFCURVE",
"458 9 OFFCURVE",
"403 9 CURVE SMOOTH",
"223 9 OFFCURVE",
"99 145 OFFCURVE",
"99 348 CURVE SMOOTH",
"99 554 OFFCURVE",
"223 691 OFFCURVE",
"412 691 CURVE SMOOTH",
"472 691 OFFCURVE",
"527 677 OFFCURVE",
"575 659 CURVE",
"581 678 LINE",
"532 696 OFFCURVE",
"468 712 OFFCURVE",
"403 712 CURVE SMOOTH",
"209 712 OFFCURVE",
"77 566 OFFCURVE",
"77 348 CURVE SMOOTH",
"77 132 OFFCURVE",
"209 -12 OFFCURVE",
"398 -12 CURVE SMOOTH",
"448 -12 OFFCURVE",
"514 -2 OFFCURVE",
"581 28 CURVE"
);
}
);
width = 628;
},
{
anchors = (
{
name = bottom;
position = "{398, 0}";
},
{
name = top;
position = "{384, 707}";
}
);
layerId = "EF8420CB-322A-4DAC-B980-DA6E6912705F";
paths = (
{
closed = 1;
nodes = (
"563 190 LINE",
"519 169 OFFCURVE",
"464 154 OFFCURVE",
"410 154 CURVE SMOOTH",
"284 154 OFFCURVE",
"223 235 OFFCURVE",
"223 353 CURVE SMOOTH",
"223 473 OFFCURVE",
"286 553 OFFCURVE",
"415 553 CURVE SMOOTH",
"466 553 OFFCURVE",
"519 540 OFFCURVE",
"563 520 CURVE",
"600 674 LINE",
"542 701 OFFCURVE",
"470 719 OFFCURVE",
"395 719 CURVE SMOOTH",
"184 719 OFFCURVE",
"43 572 OFFCURVE",
"43 352 CURVE SMOOTH",
"43 134 OFFCURVE",
"182 -12 OFFCURVE",
"395 -12 CURVE SMOOTH",
"472 -12 OFFCURVE",
"541 7 OFFCURVE",
"600 36 CURVE"
);
}
);
width = 638;
}
);
unicode = 0043;
},
{
glyphname = D;
layers = (
{
anchors = (
{
name = bottom;
position = "{365, 0}";
},
{
name = center;
position = "{153, 350}";
},
{
name = top;
position = "{345, 700}";
}
);
layerId = "D9DFF065-DDB2-4B0F-A853-E0DAE751FB65";
paths = (
{
closed = 1;
nodes = (
"367 0 LINE SMOOTH",
"535 0 OFFCURVE",
"647 142 OFFCURVE",
"647 354 CURVE SMOOTH",
"647 562 OFFCURVE",
"535 700 OFFCURVE",
"367 700 CURVE SMOOTH",
"120 700 LINE",
"120 0 LINE"
);
},
{
closed = 1;
nodes = (
"141 680 LINE",
"361 680 LINE SMOOTH",
"519 680 OFFCURVE",
"625 550 OFFCURVE",
"625 354 CURVE SMOOTH",
"625 154 OFFCURVE",
"519 20 OFFCURVE",
"361 20 CURVE SMOOTH",
"141 20 LINE"
);
}
);
width = 725;
},
{
anchors = (
{
name = bottom;
position = "{358, 0}";
},
{
name = center;
position = "{205, 354}";
},
{
name = top;
position = "{358, 707}";
}
);
layerId = "EF8420CB-322A-4DAC-B980-DA6E6912705F";
paths = (
{
closed = 1;
nodes = (
"356 0 LINE SMOOTH",
"548 0 OFFCURVE",
"676 144 OFFCURVE",
"676 359 CURVE SMOOTH",
"676 568 OFFCURVE",
"548 707 OFFCURVE",
"356 707 CURVE SMOOTH",
"89 707 LINE",
"89 0 LINE"
);
},
{
closed = 1;
nodes = (
"265 541 LINE",
"350 541 LINE SMOOTH",
"437 541 OFFCURVE",
"496 468 OFFCURVE",
"496 358 CURVE SMOOTH",
"496 243 OFFCURVE",
"437 166 OFFCURVE",
"350 166 CURVE SMOOTH",
"265 166 LINE"
);
}
);
width = 718;
}
);
unicode = 0044;
},
{
glyphname = E;
layers = (
{
anchors = (
{
name = bottom;
position = "{329, 0}";
},
{
name = ogonek;
position = "{545, 2}";
},
{
name = top;
position = "{329, 700}";
},
{
name = topleft;
position = "{19, 700}";
}
);
layerId = "D9DFF065-DDB2-4B0F-A853-E0DAE751FB65";
paths = (
{
closed = 1;
nodes = (
"555 0 LINE",
"555 20 LINE",
"141 20 LINE",
"141 680 LINE",
"555 680 LINE",
"555 700 LINE",
"120 700 LINE",
"120 0 LINE"
);
},
{
closed = 1;
nodes = (
"528 354 LINE",
"528 374 LINE",
"136 374 LINE",
"136 354 LINE"
);
}
);
width = 606;
},
{
anchors = (
{
name = bottom;
position = "{327, 0}";
},
{
name = ogonek;
position = "{543, 5}";
},
{
name = top;
position = "{327, 707}";
},
{
name = topleft;
position = "{30, 707}";
}
);
layerId = "EF8420CB-322A-4DAC-B980-DA6E6912705F";
paths = (
{
closed = 1;
nodes = (
"585 0 LINE",
"585 162 LINE",
"265 162 LINE",
"265 545 LINE",
"585 545 LINE",
"585 707 LINE",
"89 707 LINE",
"89 0 LINE"
);
},
{
closed = 1;
nodes = (
"558 277 LINE",
"558 439 LINE",
"249 439 LINE",
"249 277 LINE"
);
}
);
width = 654;
}
);
unicode = 0045;
},
{
glyphname = F;
layers = (
{
anchors = (
{
name = bottom;
position = "{317, 0}";
},
{
name = top;
position = "{317, 700}";
}
);
layerId = "D9DFF065-DDB2-4B0F-A853-E0DAE751FB65";
paths = (
{
closed = 1;
nodes = (
"141 0 LINE",
"141 680 LINE",
"525 680 LINE",
"525 700 LINE",
"120 700 LINE",
"120 0 LINE"
);
},
{
closed = 1;
nodes = (
"499 334 LINE",
"499 354 LINE",
"136 354 LINE",
"136 334 LINE"
);
}
);
width = 567;
},
{
anchors = (
{
name = bottom;
position = "{284, 0}";
},
{
name = top;
position = "{284, 707}";
}
);
layerId = "EF8420CB-322A-4DAC-B980-DA6E6912705F";
paths = (
{
closed = 1;
nodes = (
"265 0 LINE",
"265 545 LINE",
"564 545 LINE",
"564 707 LINE",
"89 707 LINE",
"89 0 LINE"
);
},
{
closed = 1;
nodes = (
"547 253 LINE",
"547 415 LINE",
"175 415 LINE",
"175 253 LINE"
);
}
);
width = 610;
}
);
unicode = 0046;
},
{
glyphname = G;
layers = (
{
anchors = (
{
name = bottom;
position = "{357, 0}";
},
{
name = top;
position = "{377, 700}";
}
);
layerId = "D9DFF065-DDB2-4B0F-A853-E0DAE751FB65";
paths = (
{
closed = 1;
nodes = (
"478 -12 OFFCURVE",
"564 17 OFFCURVE",
"620 66 CURVE",
"620 343 LINE",
"337 343 LINE",
"337 323 LINE",
"599 323 LINE",
"599 77 LINE",
"549 34 OFFCURVE",
"469 9 OFFCURVE",
"393 9 CURVE SMOOTH",
"217 9 OFFCURVE",
"99 145 OFFCURVE",
"99 350 CURVE SMOOTH",
"99 555 OFFCURVE",
"219 691 OFFCURVE",
"411 691 CURVE SMOOTH",
"481 691 OFFCURVE",
"545 673 OFFCURVE",
"602 644 CURVE",
"608 663 LINE",
"546 694 OFFCURVE",
"479 712 OFFCURVE",
"408 712 CURVE SMOOTH",
"206 712 OFFCURVE",
"77 567 OFFCURVE",
"77 350 CURVE SMOOTH",
"77 133 OFFCURVE",
"203 -12 OFFCURVE",
"393 -12 CURVE SMOOTH"
);
}
);
width = 704;
},
{
anchors = (
{
name = bottom;
position = "{390, 0}";
},
{
name = top;
position = "{380, 707}";
}
);
layerId = "EF8420CB-322A-4DAC-B980-DA6E6912705F";
paths = (
{
closed = 1;
nodes = (
"484 -12 OFFCURVE",
"580 20 OFFCURVE",
"652 68 CURVE",
"652 428 LINE",
"346 428 LINE",
"346 266 LINE",
"496 266 LINE",
"496 182 LINE",
"470 165 OFFCURVE",
"438 154 OFFCURVE",
"397 154 CURVE SMOOTH",
"289 154 OFFCURVE",
"224 232 OFFCURVE",
"224 353 CURVE SMOOTH",
"224 471 OFFCURVE",
"284 553 OFFCURVE",
"421 553 CURVE SMOOTH",
"475 553 OFFCURVE",
"531 540 OFFCURVE",
"583 520 CURVE",
"620 674 LINE",
"555 701 OFFCURVE",
"475 719 OFFCURVE",
"395 719 CURVE SMOOTH",
"166 719 OFFCURVE",
"44 570 OFFCURVE",
"44 350 CURVE SMOOTH",
"44 131 OFFCURVE",
"181 -12 OFFCURVE",
"387 -12 CURVE SMOOTH"
);
}
);
width = 718;
}
);
unicode = 0047;
},
{
glyphname = H;
layers = (
{
anchors = (
{
name = bottom;
position = "{395, 0}";
},
{
name = center;
position = "{395, 574}";
},
{
name = top;
position = "{395, 707}";
},
{
name = topleft;
position = "{36, 707}";
}
);
layerId = "EF8420CB-322A-4DAC-B980-DA6E6912705F";
paths = (
{
closed = 1;
nodes = (
"514 0 LINE",
"690 0 LINE",
"690 707 LINE",
"514 707 LINE"
);
},
{
closed = 1;
nodes = (
"265 707 LINE",
"89 707 LINE",
"89 0 LINE",
"265 0 LINE"
);
},
{
closed = 1;
nodes = (
"530 444 LINE",
"249 444 LINE",
"249 282 LINE",
"530 282 LINE"
);
}
);
width = 779;
},
{
anchors = (
{
name = bottom;
position = "{376, 0}";
},
{
name = center;
position = "{376, 550}";
},
{
name = top;
position = "{376, 700}";
},
{
name = topleft;
position = "{13, 700}";
}
);
layerId = "D9DFF065-DDB2-4B0F-A853-E0DAE751FB65";
paths = (
{
closed = 1;
nodes = (
"610 0 LINE",
"631 0 LINE",
"631 700 LINE",
"610 700 LINE"
);
},
{
closed = 1;
nodes = (
"141 700 LINE",
"120 700 LINE",
"120 0 LINE",
"141 0 LINE"
);
},
{
closed = 1;
nodes = (
"615 381 LINE",
"136 381 LINE",
"136 361 LINE",
"615 361 LINE"
);
}
);
width = 751;
}
);
unicode = 0048;
},
{
glyphname = I;
layers = (
{
anchors = (
{
name = bottom;
position = "{130, 0}";
},
{
name = ogonek;
position = "{131, 2}";
},
{
name = top;
position = "{130, 700}";
},
{
name = topleft;
position = "{19, 700}";
}
);
layerId = "D9DFF065-DDB2-4B0F-A853-E0DAE751FB65";
paths = (
{
closed = 1;
nodes = (
"141 0 LINE",
"141 700 LINE",
"120 700 LINE",
"120 0 LINE"
);
}
);
width = 261;
},
{
anchors = (
{
name = bottom;
position = "{177, 0}";
},
{
name = ogonek;
position = "{223, 5}";
},
{
name = top;
position = "{177, 707}";
},
{
name = topleft;
position = "{33, 707}";
}
);
layerId = "EF8420CB-322A-4DAC-B980-DA6E6912705F";
paths = (
{
closed = 1;
nodes = (
"265 0 LINE",
"265 707 LINE",
"89 707 LINE",
"89 0 LINE"
);
}
);
width = 354;
}
);
unicode = 0049;
},
{
glyphname = J;
layers = (
{
anchors = (
{
name = bottom;
position = "{323, 0}";
},
{
name = top;
position = "{353, 700}";
}
);
layerId = "D9DFF065-DDB2-4B0F-A853-E0DAE751FB65";
paths = (
{
closed = 1;
nodes = (
"294 -12 OFFCURVE",
"362 59 OFFCURVE",
"362 166 CURVE SMOOTH",
"362 700 LINE",
"341 700 LINE",
"341 162 LINE SMOOTH",
"341 70 OFFCURVE",
"281 9 OFFCURVE",
"181 9 CURVE SMOOTH",
"133 9 OFFCURVE",
"83 23 OFFCURVE",
"42 41 CURVE",
"36 23 LINE",
"79 2 OFFCURVE",
"131 -12 OFFCURVE",
"181 -12 CURVE SMOOTH"
);
}
);
width = 476;
},
{
anchors = (
{
name = bottom;
position = "{255, 0}";
},
{
name = top;
position = "{325, 707}";
}
);
layerId = "EF8420CB-322A-4DAC-B980-DA6E6912705F";
paths = (
{
closed = 1;
nodes = (
"328 -12 OFFCURVE",
"421 80 OFFCURVE",
"421 219 CURVE SMOOTH",
"421 707 LINE",
"245 707 LINE",
"245 239 LINE SMOOTH",
"245 188 OFFCURVE",
"211 154 OFFCURVE",
"159 154 CURVE SMOOTH",
"131 154 OFFCURVE",
"83 164 OFFCURVE",
"44 179 CURVE",
"17 26 LINE",
"67 3 OFFCURVE",
"132 -12 OFFCURVE",
"188 -12 CURVE SMOOTH"
);
}
);
width = 498;
}
);
unicode = 004A;
},
{
glyphname = K;
layers = (
{
anchors = (
{
name = bottom;
position = "{288, 0}";
},
{
name = top;
position = "{288, 700}";
}
);
layerId = "D9DFF065-DDB2-4B0F-A853-E0DAE751FB65";
paths = (
{
closed = 1;
nodes = (
"141 0 LINE",
"141 700 LINE",
"120 700 LINE",
"120 0 LINE"
);
},
{
closed = 1;
nodes = (
"255 351 LINE",
"570 0 LINE",
"598 0 LINE",
"269 366 LINE"
);
},
{
closed = 1;
nodes = (
"141 214 LINE",
"561 700 LINE",
"533 700 LINE",
"141 243 LINE"
);
}
);
width = 633;
},
{
anchors = (
{
name = bottom;
position = "{364, 0}";
},
{
name = top;
position = "{364, 707}";
}
);
layerId = "EF8420CB-322A-4DAC-B980-DA6E6912705F";
paths = (
{
closed = 1;
nodes = (
"265 0 LINE",
"265 707 LINE",
"89 707 LINE",
"89 0 LINE"
);
},
{
closed = 1;
nodes = (
"333 286 LINE",
"512 0 LINE",
"722 0 LINE",
"444 420 LINE"
);
},
{
closed = 1;
nodes = (
"265 179 LINE",
"708 707 LINE",
"503 707 LINE",
"265 415 LINE"
);
}
);
width = 728;
}
);
unicode = 004B;
},
{
glyphname = L;
layers = (
{
anchors = (
{
name = bottom;
position = "{338, 0}";
},
{
name = center;
position = "{171, 366}";
},
{
name = top;
position = "{128, 700}";
},
{
name = topright;
position = "{249, 472}";
}
);
layerId = "D9DFF065-DDB2-4B0F-A853-E0DAE751FB65";
paths = (
{
closed = 1;
nodes = (
"141 0 LINE",
"141 700 LINE",
"120 700 LINE",
"120 0 LINE"
);
},
{
closed = 1;
nodes = (
"552 0 LINE",
"552 20 LINE",
"120 20 LINE",
"120 0 LINE"
);
}
);
width = 586;
},
{
anchors = (
{
name = bottom;
position = "{307, 0}";
},
{
name = center;
position = "{183, 404}";
},
{
name = top;
position = "{182, 707}";
},
{
name = topright;
position = "{406, 497}";
}
);
layerId = "EF8420CB-322A-4DAC-B980-DA6E6912705F";
paths = (
{
closed = 1;
nodes = (
"265 0 LINE",
"265 707 LINE",
"89 707 LINE",
"89 0 LINE"
);
},
{
closed = 1;
nodes = (
"561 0 LINE",
"561 162 LINE",
"89 162 LINE",
"89 0 LINE"
);
}
);
width = 580;
}
);
unicode = 004C;
},
{
glyphname = M;
layers = (
{
anchors = (
{
name = bottom;
position = "{438, 0}";
},
{
name = top;
position = "{438, 700}";
}
);
layerId = "D9DFF065-DDB2-4B0F-A853-E0DAE751FB65";
paths = (
{
closed = 1;
nodes = (
"141 0 LINE",
"141 679 LINE",
"146 679 LINE",
"427 189 LINE",
"448 189 LINE",
"730 679 LINE",
"735 679 LINE",
"735 0 LINE",
"756 0 LINE",
"756 700 LINE",
"718 700 LINE",
"441 215 LINE",
"433 215 LINE",
"157 700 LINE",
"120 700 LINE",
"120 0 LINE"
);
}
);
width = 876;
},
{
anchors = (
{
name = bottom;
position = "{447, 0}";
},
{
name = top;
position = "{447, 707}";
}
);
layerId = "EF8420CB-322A-4DAC-B980-DA6E6912705F";
paths = (
{
closed = 1;
nodes = (
"265 0 LINE",
"265 382 LINE",
"273 382 LINE",
"421 126 LINE",
"473 126 LINE",
"621 382 LINE",
"629 382 LINE",
"629 0 LINE",
"805 0 LINE",
"805 707 LINE",
"624 707 LINE",
"451 390 LINE",
"443 390 LINE",
"270 707 LINE",
"89 707 LINE",
"89 0 LINE"
);
}
);
width = 894;
}
);
unicode = 004D;
},
{
glyphname = N;
layers = (
{
anchors = (
{
name = bottom;
position = "{383, 0}";
},
{
name = hook;
position = "{632, 0}";
},
{
name = top;
position = "{383, 700}";
}
);
layerId = "D9DFF065-DDB2-4B0F-A853-E0DAE751FB65";
paths = (
{
closed = 1;
nodes = (
"141 0 LINE",
"141 670 LINE",
"145 670 LINE",
"619 0 LINE",
"646 0 LINE",
"646 700 LINE",
"625 700 LINE",
"625 30 LINE",
"621 30 LINE",
"149 700 LINE",
"120 700 LINE",
"120 0 LINE"
);
}
);
width = 766;
},
{
anchors = (
{
name = bottom;
position = "{402, 0}";
},
{
name = hook;
position = "{626, 0}";
},
{
name = top;
position = "{402, 707}";
}
);
layerId = "EF8420CB-322A-4DAC-B980-DA6E6912705F";
paths = (
{
closed = 1;
nodes = (
"265 0 LINE",
"265 402 LINE",
"273 402 LINE",
"524 0 LINE",
"715 0 LINE",
"715 707 LINE",
"539 707 LINE",
"539 295 LINE",
"531 295 LINE",
"280 707 LINE",
"89 707 LINE",
"89 0 LINE"
);
}
);
width = 804;
}
);
unicode = 004E;
},
{
glyphname = O;
layers = (
{
anchors = (
{
name = Qtail;
position = "{561, 132}";
},
{
name = bottom;
position = "{382, 0}";
},
{
name = center;
position = "{382, 354}";
},
{
name = ogonek;
position = "{430, 10}";
},
{
name = top;
position = "{382, 707}";
},
{
name = topleft;
position = "{14, 707}";
},
{
name = topright;
position = "{675, 707}";
}
);
layerId = "EF8420CB-322A-4DAC-B980-DA6E6912705F";
paths = (
{
closed = 1;
nodes = (
"585 -12 OFFCURVE",
"720 134 OFFCURVE",
"720 353 CURVE SMOOTH",
"720 573 OFFCURVE",
"585 719 OFFCURVE",
"382 719 CURVE SMOOTH",
"179 719 OFFCURVE",
"44 573 OFFCURVE",
"44 353 CURVE SMOOTH",
"44 134 OFFCURVE",
"179 -12 OFFCURVE",
"382 -12 CURVE SMOOTH"
);
},
{
closed = 1;
nodes = (
"287 154 OFFCURVE",
"224 234 OFFCURVE",
"224 353 CURVE SMOOTH",
"224 473 OFFCURVE",
"287 553 OFFCURVE",
"382 553 CURVE SMOOTH",
"477 553 OFFCURVE",
"540 473 OFFCURVE",
"540 353 CURVE SMOOTH",
"540 234 OFFCURVE",
"477 154 OFFCURVE",
"382 154 CURVE SMOOTH"
);
}
);
width = 763;
},
{
anchors = (
{
name = Qtail;
position = "{558, 57}";
},
{
name = bottom;
position = "{385, 0}";
},
{
name = center;
position = "{385, 350}";
},
{
name = ogonek;
position = "{460, 10}";
},
{
name = top;
position = "{385, 700}";
},
{
name = topleft;
position = "{-20, 700}";
},
{
name = topright;
position = "{549, 700}";
}
);
layerId = "D9DFF065-DDB2-4B0F-A853-E0DAE751FB65";
paths = (
{
closed = 1;
nodes = (
"569 -12 OFFCURVE",
"691 132 OFFCURVE",
"691 349 CURVE SMOOTH",
"691 567 OFFCURVE",
"569 712 OFFCURVE",
"385 712 CURVE SMOOTH",
"201 712 OFFCURVE",
"78 567 OFFCURVE",
"78 349 CURVE SMOOTH",
"78 132 OFFCURVE",
"201 -12 OFFCURVE",
"385 -12 CURVE SMOOTH"
);
},
{
closed = 1;
nodes = (
"214 9 OFFCURVE",
"100 145 OFFCURVE",
"100 349 CURVE SMOOTH",
"100 554 OFFCURVE",
"214 691 OFFCURVE",
"385 691 CURVE SMOOTH",
"555 691 OFFCURVE",
"669 554 OFFCURVE",
"669 349 CURVE SMOOTH",
"669 145 OFFCURVE",
"555 9 OFFCURVE",
"385 9 CURVE SMOOTH"
);
}
);
width = 769;
}
);
unicode = 004F;
},
{
glyphname = P;
layers = (
{
anchors = (
{
name = bottom;
position = "{329, 0}";
},
{
name = top;
position = "{329, 700}";
}
);
layerId = "D9DFF065-DDB2-4B0F-A853-E0DAE751FB65";
paths = (
{
closed = 1;
nodes = (
"141 0 LINE",
"141 680 LINE",
"359 680 LINE SMOOTH",
"481 680 OFFCURVE",
"563 602 OFFCURVE",
"563 488 CURVE SMOOTH",
"563 374 OFFCURVE",
"481 301 OFFCURVE",
"359 301 CURVE SMOOTH",
"132 301 LINE",
"132 281 LINE",
"365 281 LINE SMOOTH",
"497 281 OFFCURVE",
"585 362 OFFCURVE",
"585 488 CURVE SMOOTH",
"585 614 OFFCURVE",
"497 700 OFFCURVE",
"365 700 CURVE SMOOTH",
"120 700 LINE",
"120 0 LINE"
);
}
);
width = 645;
},
{
anchors = (
{
name = bottom;
position = "{335, 0}";
},
{
name = top;
position = "{335, 707}";
}
);
layerId = "EF8420CB-322A-4DAC-B980-DA6E6912705F";
paths = (
{
closed = 1;
nodes = (
"265 0 LINE",
"265 547 LINE",
"383 547 LINE SMOOTH",
"442 547 OFFCURVE",
"482 509 OFFCURVE",
"482 453 CURVE SMOOTH",
"482 396 OFFCURVE",
"442 358 OFFCURVE",
"383 358 CURVE SMOOTH",
"171 358 LINE",
"171 198 LINE",
"389 198 LINE SMOOTH",
"542 198 OFFCURVE",
"644 300 OFFCURVE",
"644 453 CURVE SMOOTH",
"644 605 OFFCURVE",
"542 707 OFFCURVE",
"389 707 CURVE SMOOTH",
"89 707 LINE",
"89 0 LINE"
);
}
);
width = 675;
}
);
unicode = 0050;
},
{
glyphname = Thorn;
layers = (
{
layerId = "D9DFF065-DDB2-4B0F-A853-E0DAE751FB65";
paths = (
{
closed = 1;
nodes = (
"133 540 LINE",
"374 540 LINE SMOOTH",
"499 540 OFFCURVE",
"583 462 OFFCURVE",
"583 344 CURVE SMOOTH",
"583 234 OFFCURVE",
"499 161 OFFCURVE",
"374 161 CURVE SMOOTH",
"132 161 LINE",
"132 141 LINE",
"380 141 LINE SMOOTH",
"515 141 OFFCURVE",
"605 222 OFFCURVE",
"605 344 CURVE SMOOTH",
"605 474 OFFCURVE",
"515 560 OFFCURVE",
"380 560 CURVE SMOOTH",
"133 560 LINE"
);
},
{
closed = 1;
nodes = (
"141 700 LINE",
"120 700 LINE",
"120 0 LINE",
"141 0 LINE"
);
}
);
width = 665;
},
{
layerId = "EF8420CB-322A-4DAC-B980-DA6E6912705F";
paths = (
{
closed = 1;
nodes = (
"175 454 LINE",
"385 454 LINE SMOOTH",
"450 454 OFFCURVE",
"489 419 OFFCURVE",
"489 360 CURVE SMOOTH",
"489 300 OFFCURVE",
"450 265 OFFCURVE",
"385 265 CURVE SMOOTH",
"168 265 LINE",
"168 105 LINE",
"391 105 LINE SMOOTH",
"547 105 OFFCURVE",
"651 207 OFFCURVE",
"651 360 CURVE SMOOTH",
"651 512 OFFCURVE",
"547 614 OFFCURVE",
"391 614 CURVE SMOOTH",
"175 614 LINE"
);
},
{
closed = 1;
nodes = (
"265 707 LINE",
"89 707 LINE",
"89 0 LINE",
"265 0 LINE"
);
}
);
width = 682;
}
);
leftMetricsKey = P;
rightMetricsKey = P;
unicode = 00DE;
},
{
glyphname = R;
layers = (
{
anchors = (
{
name = bottom;
position = "{314, 0}";
},
{
name = top;
position = "{314, 700}";
}
);
layerId = "D9DFF065-DDB2-4B0F-A853-E0DAE751FB65";
paths = (
{
closed = 1;
nodes = (
"577 0 LINE",
"601 0 LINE",
"395 326 LINE",
"371 326 LINE"
);
},
{
closed = 1;
nodes = (
"141 0 LINE",
"141 680 LINE",
"369 680 LINE SMOOTH",
"485 680 OFFCURVE",
"563 610 OFFCURVE",
"563 508 CURVE SMOOTH",
"563 406 OFFCURVE",
"485 341 OFFCURVE",
"369 341 CURVE SMOOTH",
"132 341 LINE",
"132 321 LINE",
"375 321 LINE SMOOTH",
"501 321 OFFCURVE",
"585 394 OFFCURVE",
"585 508 CURVE SMOOTH",
"585 622 OFFCURVE",
"501 700 OFFCURVE",
"375 700 CURVE SMOOTH",
"120 700 LINE",
"120 0 LINE"
);
}
);
width = 661;
},
{
anchors = (
{
name = bottom;
position = "{352, 0}";
},
{
name = top;
position = "{352, 707}";
}
);
layerId = "EF8420CB-322A-4DAC-B980-DA6E6912705F";
paths = (
{
closed = 1;
nodes = (
"490 0 LINE",
"680 0 LINE",
"512 281 LINE",
"331 281 LINE"
);
},
{
closed = 1;
nodes = (
"265 0 LINE",
"265 547 LINE",
"383 547 LINE SMOOTH",
"442 547 OFFCURVE",
"482 515 OFFCURVE",
"482 468 CURVE SMOOTH",
"482 420 OFFCURVE",
"442 388 OFFCURVE",
"383 388 CURVE SMOOTH",
"171 388 LINE",
"171 228 LINE",
"389 228 LINE SMOOTH",
"542 228 OFFCURVE",
"644 324 OFFCURVE",
"644 468 CURVE SMOOTH",
"644 611 OFFCURVE",
"542 707 OFFCURVE",
"389 707 CURVE SMOOTH",
"89 707 LINE",
"89 0 LINE"
);
}
);
width = 702;
}
);
unicode = 0052;
},
{
glyphname = S;
layers = (
{
anchors = (
{
name = bottom;
position = "{295, 0}";
},
{
name = top;
position = "{307, 700}";
}
);
layerId = "D9DFF065-DDB2-4B0F-A853-E0DAE751FB65";
paths = (
{
closed = 1;
nodes = (
"443 -12 OFFCURVE",
"546 63 OFFCURVE",
"546 179 CURVE SMOOTH",
"546 420 OFFCURVE",
"85 317 OFFCURVE",
"85 531 CURVE SMOOTH",
"85 629 OFFCURVE",
"182 690 OFFCURVE",
"312 690 CURVE SMOOTH",
"374 690 OFFCURVE",
"444 676 OFFCURVE",
"502 653 CURVE",
"508 672 LINE",
"444 697 OFFCURVE",
"374 711 OFFCURVE",
"311 711 CURVE SMOOTH",
"166 711 OFFCURVE",
"63 638 OFFCURVE",
"63 529 CURVE SMOOTH",
"63 298 OFFCURVE",
"524 396 OFFCURVE",
"524 176 CURVE SMOOTH",
"524 76 OFFCURVE",
"430 9 OFFCURVE",
"285 9 CURVE SMOOTH",
"216 9 OFFCURVE",
"138 24 OFFCURVE",
"75 57 CURVE",
"69 38 LINE",
"138 3 OFFCURVE",
"213 -12 OFFCURVE",
"284 -12 CURVE SMOOTH"
);
}
);
width = 606;
},
{
anchors = (
{
name = bottom;
position = "{326, 0}";
},
{
name = top;
position = "{306, 707}";
}
);
layerId = "EF8420CB-322A-4DAC-B980-DA6E6912705F";
paths = (
{
closed = 1;
nodes = (
"485 -12 OFFCURVE",
"611 53 OFFCURVE",
"611 215 CURVE SMOOTH",
"611 498 OFFCURVE",
"225 403 OFFCURVE",
"225 502 CURVE SMOOTH",
"225 535 OFFCURVE",
"268 553 OFFCURVE",
"344 553 CURVE SMOOTH",
"414 553 OFFCURVE",
"478 538 OFFCURVE",
"526 522 CURVE",
"563 676 LINE",
"498 702 OFFCURVE",
"424 719 OFFCURVE",
"343 719 CURVE SMOOTH",
"166 719 OFFCURVE",
"45 640 OFFCURVE",
"45 488 CURVE SMOOTH",
"45 217 OFFCURVE",
"431 322 OFFCURVE",
"431 212 CURVE SMOOTH",
"431 174 OFFCURVE",
"384 154 OFFCURVE",
"302 154 CURVE SMOOTH",
"230 154 OFFCURVE",
"160 169 OFFCURVE",
"96 195 CURVE",
"59 41 LINE",
"127 12 OFFCURVE",
"217 -12 OFFCURVE",
"317 -12 CURVE SMOOTH"
);
}
);
width = 647;
}
);
unicode = 0053;
},
{
glyphname = Germandbls;
layers = (
{
anchors = (
{
name = bottom;
position = "{323, 0}";
},
{
name = top;
position = "{323, 700}";
}
);
layerId = "D9DFF065-DDB2-4B0F-A853-E0DAE751FB65";
paths = (
{
closed = 1;
nodes = (
"518 -12 OFFCURVE",
"595 70 OFFCURVE",
"595 176 CURVE SMOOTH",
"595 282 OFFCURVE",
"517 354 OFFCURVE",
"409 382 CURVE",
"553 608 LINE",
"533 670 OFFCURVE",
"448 712 OFFCURVE",
"347 712 CURVE SMOOTH",
"203 712 OFFCURVE",
"110 627 OFFCURVE",
"110 500 CURVE SMOOTH",
"110 0 LINE",
"131 0 LINE",
"131 499 LINE SMOOTH",
"131 614 OFFCURVE",
"214 691 OFFCURVE",
"347 691 CURVE SMOOTH",
"432 691 OFFCURVE",
"510 659 OFFCURVE",
"530 608 CURVE",
"389 385 LINE",
"389 365 LINE",
"519 334 OFFCURVE",
"573 265 OFFCURVE",
"573 178 CURVE SMOOTH",
"573 81 OFFCURVE",
"505 9 OFFCURVE",
"405 9 CURVE SMOOTH",
"366 9 OFFCURVE",
"318 20 OFFCURVE",
"283 36 CURVE",
"280 14 LINE",
"315 -2 OFFCURVE",
"363 -12 OFFCURVE",
"403 -12 CURVE SMOOTH"
);
}
);
width = 659;
},
{
anchors = (
{
name = bottom;
position = "{341, 0}";
},
{
name = top;
position = "{341, 707}";
}
);
layerId = "EF8420CB-322A-4DAC-B980-DA6E6912705F";
paths = (
{
closed = 1;
nodes = (
"579 -12 OFFCURVE",
"660 80 OFFCURVE",
"660 198 CURVE SMOOTH",
"660 293 OFFCURVE",
"608 366 OFFCURVE",
"536 404 CURVE",
"617 548 LINE",
"578 657 OFFCURVE",
"468 719 OFFCURVE",
"347 719 CURVE SMOOTH",
"185 719 OFFCURVE",
"76 607 OFFCURVE",
"76 485 CURVE SMOOTH",
"76 0 LINE",
"252 0 LINE",
"252 484 LINE SMOOTH",
"252 527 OFFCURVE",
"286 553 OFFCURVE",
"340 553 CURVE SMOOTH",
"382 553 OFFCURVE",
"411 537 OFFCURVE",
"423 509 CURVE",
"355 380 LINE",
"355 307 LINE",
"434 291 OFFCURVE",
"480 248 OFFCURVE",
"480 205 CURVE SMOOTH",
"480 174 OFFCURVE",
"456 154 OFFCURVE",
"415 154 CURVE SMOOTH",
"391 154 OFFCURVE",
"368 160 OFFCURVE",
"340 172 CURVE",
"313 11 LINE",
"343 -3 OFFCURVE",
"398 -12 OFFCURVE",
"441 -12 CURVE SMOOTH"
);
}
);
width = 695;
}
);
unicode = 1E9E;
},
{
glyphname = Schwa;
layers = (
{
layerId = "D9DFF065-DDB2-4B0F-A853-E0DAE751FB65";
paths = (
{
closed = 1;
nodes = (
"550 -18 OFFCURVE",
"677 128 OFFCURVE",
"677 344 CURVE SMOOTH",
"677 565 OFFCURVE",
"545 712 OFFCURVE",
"349 712 CURVE SMOOTH",
"262 712 OFFCURVE",
"160 683 OFFCURVE",
"92 636 CURVE",
"101 618 LINE",
"163 662 OFFCURVE",
"260 691 OFFCURVE",
"345 691 CURVE SMOOTH",
"532 691 OFFCURVE",
"655 550 OFFCURVE",
"655 344 CURVE SMOOTH",
"655 141 OFFCURVE",
"536 3 OFFCURVE",
"363 3 CURVE SMOOTH",
"197 3 OFFCURVE",
"89 131 OFFCURVE",
"89 318 CURVE",
"672 318 LINE",
"672 338 LINE",
"67 338 LINE",
"67 318 LINE",
"67 117 OFFCURVE",
"185 -18 OFFCURVE",
"364 -18 CURVE SMOOTH"
);
}
);
width = 754;
},
{
layerId = "EF8420CB-322A-4DAC-B980-DA6E6912705F";
paths = (
{
closed = 1;
nodes = (
"558 -17 OFFCURVE",
"694 128 OFFCURVE",
"694 340 CURVE SMOOTH",
"694 570 OFFCURVE",
"535 721 OFFCURVE",
"311 721 CURVE SMOOTH",
"226 721 OFFCURVE",
"141 699 OFFCURVE",
"73 668 CURVE",
"107 518 LINE",
"157 540 OFFCURVE",
"224 555 OFFCURVE",
"290 555 CURVE SMOOTH",
"430 555 OFFCURVE",
"485 486 OFFCURVE",
"485 346 CURVE SMOOTH",
"485 210 OFFCURVE",
"433 149 OFFCURVE",
"355 149 CURVE SMOOTH",
"300 149 OFFCURVE",
"258 180 OFFCURVE",
"258 260 CURVE",
"505 260 LINE",
"505 415 LINE",
"58 415 LINE",
"58 271 LINE",
"58 92 OFFCURVE",
"177 -17 OFFCURVE",
"354 -17 CURVE SMOOTH"
);
}
);
width = 736;
}
);
unicode = 018F;
},
{
glyphname = T;
layers = (
{
anchors = (
{
name = bottom;
position = "{306, 0}";
},
{
name = center;
position = "{304, 350}";
},
{
name = top;
position = "{304, 700}";
}
);
layerId = "D9DFF065-DDB2-4B0F-A853-E0DAE751FB65";
paths = (
{
closed = 1;
nodes = (
"315 0 LINE",
"315 700 LINE",
"294 700 LINE",
"294 0 LINE"
);
},
{
closed = 1;
nodes = (
"574 700 LINE",
"34 700 LINE",
"34 680 LINE",
"574 680 LINE"
);
}
);
width = 608;
},
{
anchors = (
{
name = bottom;
position = "{304, 0}";
},
{
name = center;
position = "{310, 354}";
},
{
name = top;
position = "{310, 707}";
}
);
layerId = "EF8420CB-322A-4DAC-B980-DA6E6912705F";
paths = (
{
closed = 1;
nodes = (
"398 0 LINE",
"398 707 LINE",
"222 707 LINE",
"222 0 LINE"
);
},
{
closed = 1;
nodes = (
"601 707 LINE",
"19 707 LINE",
"19 545 LINE",
"601 545 LINE"
);
}
);
width = 620;
}
);
unicode = 0054;
},
{
glyphname = U;
layers = (
{
anchors = (
{
name = bottom;
position = "{377, 0}";
},
{
name = ogonek;
position = "{474, 8}";
},
{
name = top;
position = "{377, 700}";
},
{
name = topright;
position = "{707, 700}";
}
);
layerId = "D9DFF065-DDB2-4B0F-A853-E0DAE751FB65";
paths = (
{
closed = 1;
nodes = (
"539 -12 OFFCURVE",
"647 95 OFFCURVE",
"647 255 CURVE SMOOTH",
"647 700 LINE",
"626 700 LINE",
"626 255 LINE SMOOTH",
"626 107 OFFCURVE",
"526 9 OFFCURVE",
"376 9 CURVE SMOOTH",
"227 9 OFFCURVE",
"127 107 OFFCURVE",
"127 255 CURVE SMOOTH",
"127 700 LINE",
"106 700 LINE",
"106 255 LINE SMOOTH",
"106 95 OFFCURVE",
"214 -12 OFFCURVE",
"376 -12 CURVE SMOOTH"
);
}
);
width = 753;
},
{
anchors = (
{
name = bottom;
position = "{365, 0}";
},
{
name = ogonek;
position = "{438, 11}";
},
{
name = top;
position = "{365, 707}";
},
{
name = topright;
position = "{729, 707}";
}
);
layerId = "EF8420CB-322A-4DAC-B980-DA6E6912705F";
paths = (
{
closed = 1;
nodes = (
"539 -12 OFFCURVE",
"655 95 OFFCURVE",
"655 255 CURVE SMOOTH",
"655 707 LINE",
"479 707 LINE",
"479 255 LINE SMOOTH",
"479 194 OFFCURVE",
"433 154 OFFCURVE",
"364 154 CURVE SMOOTH",
"296 154 OFFCURVE",
"250 194 OFFCURVE",
"250 255 CURVE SMOOTH",
"250 707 LINE",
"74 707 LINE",
"74 255 LINE SMOOTH",
"74 95 OFFCURVE",
"190 -12 OFFCURVE",
"364 -12 CURVE SMOOTH"
);
}
);
width = 729;
}
);
unicode = 0055;
},
{
glyphname = V;
layers = (
{
anchors = (
{
name = bottom;
position = "{335, 0}";
},
{
name = top;
position = "{335, 700}";
}
);
layerId = "D9DFF065-DDB2-4B0F-A853-E0DAE751FB65";
paths = (
{
closed = 1;
nodes = (
"340 0 LINE",
"628 700 LINE",
"607 700 LINE",
"339 48 LINE",
"332 48 LINE",
"62 700 LINE",
"41 700 LINE",
"331 0 LINE"
);
}
);
width = 669;
},
{
anchors = (
{
name = bottom;
position = "{346, 0}";
},
{
name = top;
position = "{346, 707}";
}
);
layerId = "EF8420CB-322A-4DAC-B980-DA6E6912705F";
paths = (
{
closed = 1;
nodes = (
"457 0 LINE",
"679 707 LINE",
"488 707 LINE",
"350 168 LINE",
"343 168 LINE",
"203 707 LINE",
"12 707 LINE",
"234 0 LINE"
);
}
);
width = 691;
}
);
unicode = 0056;
},
{
glyphname = W;
layers = (
{
anchors = (
{
name = bottom;
position = "{496, 0}";
},
{
name = top;
position = "{496, 700}";
}
);
layerId = "D9DFF065-DDB2-4B0F-A853-E0DAE751FB65";
paths = (
{
closed = 1;
nodes = (
"271 0 LINE",
"283 0 LINE",
"497 675 LINE",
"499 675 LINE",
"708 0 LINE",
"721 0 LINE",
"946 700 LINE",
"923 700 LINE",
"718 50 LINE",
"712 50 LINE",
"513 700 LINE",
"484 700 LINE",
"278 50 LINE",
"273 50 LINE",
"68 700 LINE",
"45 700 LINE"
);
}
);
width = 991;
},
{
anchors = (
{
name = bottom;
position = "{522, 0}";
},
{
name = top;
position = "{522, 707}";
}
);
layerId = "EF8420CB-322A-4DAC-B980-DA6E6912705F";
paths = (
{
closed = 1;
nodes = (
"211 0 LINE",
"419 0 LINE",
"522 479 LINE",
"525 479 LINE",
"624 0 LINE",
"832 0 LINE",
"1028 707 LINE",
"844 707 LINE",
"737 181 LINE",
"730 181 LINE",
"631 707 LINE",
"412 707 LINE",
"315 181 LINE",
"307 181 LINE",
"199 707 LINE",
"15 707 LINE"
);
}
);
width = 1043;
}
);
unicode = 0057;
},
{
glyphname = X;
layers = (
{
anchors = (
{
name = bottom;
position = "{295, 0}";
},
{
name = top;
position = "{295, 700}";
}
);
layerId = "D9DFF065-DDB2-4B0F-A853-E0DAE751FB65";
paths = (
{
closed = 1;
nodes = (
"545 0 LINE",
"310 362 LINE",
"301 368 LINE",
"67 700 LINE",
"43 700 LINE",
"289 352 LINE",
"299 345 LINE",
"521 0 LINE"
);
},
{
closed = 1;
nodes = (
"68 0 LINE",
"546 700 LINE",
"522 700 LINE",
"44 0 LINE"
);
}
);
width = 590;
},
{
anchors = (
{
name = bottom;
position = "{355, 0}";
},
{
name = top;
position = "{355, 707}";
}
);
layerId = "EF8420CB-322A-4DAC-B980-DA6E6912705F";
paths = (
{
closed = 1;
nodes = (
"687 0 LINE",
"452 381 LINE",
"360 477 LINE",
"209 707 LINE",
"9 707 LINE",
"264 325 LINE",
"353 231 LINE",
"487 0 LINE"
);
},
{
closed = 1;
nodes = (
"214 0 LINE",
"692 707 LINE",
"492 707 LINE",
"14 0 LINE"
);
}
);
width = 702;
}
);
unicode = 0058;
},
{
glyphname = Y;
layers = (
{
anchors = (
{
name = bottom;
position = "{293, 0}";
},
{
name = top;
position = "{293, 700}";
},
{
name = topleft;
position = "{11, 700}";
}
);
layerId = "D9DFF065-DDB2-4B0F-A853-E0DAE751FB65";
paths = (
{
closed = 1;
nodes = (
"298 343 LINE",
"551 700 LINE",
"527 700 LINE",
"296 371 LINE",
"291 371 LINE",
"58 700 LINE",
"34 700 LINE",
"289 343 LINE"
);
},
{
closed = 1;
nodes = (
"282 0 LINE",
"303 0 LINE",
"303 360 LINE",
"282 360 LINE"
);
}
);
width = 585;
},
{
anchors = (
{
name = bottom;
position = "{340, 0}";
},
{
name = top;
position = "{340, 707}";
},
{
name = topleft;
position = "{18, 707}";
}
);
layerId = "EF8420CB-322A-4DAC-B980-DA6E6912705F";
paths = (
{
closed = 1;
nodes = (
"421 270 LINE",
"678 707 LINE",
"487 707 LINE",
"344 448 LINE",
"337 448 LINE",
"192 707 LINE",
"1 707 LINE",
"258 270 LINE"
);
},
{
closed = 1;
nodes = (
"252 0 LINE",
"428 0 LINE",
"428 340 LINE",
"252 340 LINE"
);
}
);
width = 679;
}
);
unicode = 0059;
},
{
glyphname = Z;
layers = (
{
anchors = (
{
name = bottom;
position = "{289, 0}";
},
{
name = top;
position = "{289, 700}";
}
);
layerId = "D9DFF065-DDB2-4B0F-A853-E0DAE751FB65";
paths = (
{
closed = 1;
nodes = (
"532 0 LINE",
"532 20 LINE",
"74 20 LINE",
"74 23 LINE",
"529 683 LINE",
"529 700 LINE",
"58 700 LINE",
"58 680 LINE",
"498 680 LINE",
"498 677 LINE",
"44 16 LINE",
"44 0 LINE"
);
}
);
width = 577;
},
{
anchors = (
{
name = bottom;
position = "{318, 0}";
},
{
name = top;
position = "{318, 707}";
}
);
layerId = "EF8420CB-322A-4DAC-B980-DA6E6912705F";
paths = (
{
closed = 1;
nodes = (
"598 0 LINE",
"598 156 LINE",
"259 156 LINE",
"259 162 LINE",
"595 584 LINE",
"595 707 LINE",
"54 707 LINE",
"54 551 LINE",
"375 551 LINE",
"375 545 LINE",
"40 133 LINE",
"40 0 LINE"
);
}
);
width = 641;
}
);
unicode = 005A;
},
{
glyphname = a;
layers = (
{
anchors = (
{
name = bottom;
position = "{296, 0}";
},
{
name = ogonek;
position = "{481, 6}";
},
{
name = top;
position = "{295, 497}";
}
);
layerId = "EF8420CB-322A-4DAC-B980-DA6E6912705F";
paths = (
{
closed = 1;
nodes = (
"522 0 LINE",
"522 292 LINE SMOOTH",
"522 421 OFFCURVE",
"443 507 OFFCURVE",
"281 507 CURVE SMOOTH",
"207 507 OFFCURVE",
"133 489 OFFCURVE",
"67 461 CURVE",
"94 331 LINE",
"143 350 OFFCURVE",
"211 366 OFFCURVE",
"262 366 CURVE SMOOTH",
"322 366 OFFCURVE",
"348 344 OFFCURVE",
"348 292 CURVE SMOOTH",
"348 121 LINE",
"376 0 LINE"
);
},
{
closed = 1;
nodes = (
"275 -12 OFFCURVE",
"336 15 OFFCURVE",
"370 55 CURVE",
"370 173 LINE",
"340 142 OFFCURVE",
"302 116 OFFCURVE",
"262 116 CURVE SMOOTH",
"235 116 OFFCURVE",
"207 128 OFFCURVE",
"207 150 CURVE SMOOTH",
"207 184 OFFCURVE",
"271 198 OFFCURVE",
"369 198 CURVE",
"369 311 LINE",
"162 311 OFFCURVE",
"31 260 OFFCURVE",
"31 135 CURVE SMOOTH",
"31 38 OFFCURVE",
"110 -12 OFFCURVE",
"205 -12 CURVE SMOOTH"
);
}
);
width = 580;
},
{
anchors = (
{
name = bottom;
position = "{263, 0}";
},
{
name = ogonek;
position = "{424, 2}";
},
{
name = top;
position = "{253, 472}";
}
);
layerId = "D9DFF065-DDB2-4B0F-A853-E0DAE751FB65";
paths = (
{
closed = 1;
nodes = (
"434 0 LINE",
"434 304 LINE SMOOTH",
"434 417 OFFCURVE",
"369 484 OFFCURVE",
"259 484 CURVE SMOOTH",
"199 484 OFFCURVE",
"139 464 OFFCURVE",
"79 433 CURVE",
"85 416 LINE",
"145 445 OFFCURVE",
"202 464 OFFCURVE",
"258 464 CURVE SMOOTH",
"356 464 OFFCURVE",
"414 405 OFFCURVE",
"414 304 CURVE SMOOTH",
"414 67 LINE",
"418 0 LINE"
);
},
{
closed = 1;
nodes = (
"272 -12 OFFCURVE",
"362 17 OFFCURVE",
"422 61 CURVE",
"422 77 LINE",
"358 36 OFFCURVE",
"269 8 OFFCURVE",
"203 8 CURVE SMOOTH",
"120 8 OFFCURVE",
"68 52 OFFCURVE",
"68 113 CURVE SMOOTH",
"68 210 OFFCURVE",
"199 265 OFFCURVE",
"422 265 CURVE",
"422 284 LINE",
"186 284 OFFCURVE",
"47 222 OFFCURVE",
"47 112 CURVE SMOOTH",
"47 40 OFFCURVE",
"107 -12 OFFCURVE",
"201 -12 CURVE SMOOTH"
);
}
);
width = 522;
}
);
unicode = 0061;
},
{
glyphname = c;
layers = (
{
anchors = (
{
name = bottom;
position = "{260, 0}";
},
{
name = top;
position = "{269, 472}";
}
);
layerId = "D9DFF065-DDB2-4B0F-A853-E0DAE751FB65";
paths = (
{
closed = 1;
nodes = (
"335 -12 OFFCURVE",
"394 6 OFFCURVE",
"428 34 CURVE",
"422 51 LINE",
"387 26 OFFCURVE",
"342 8 OFFCURVE",
"287 8 CURVE SMOOTH",
"162 8 OFFCURVE",
"84 99 OFFCURVE",
"84 236 CURVE SMOOTH",
"84 373 OFFCURVE",
"162 464 OFFCURVE",
"287 464 CURVE SMOOTH",
"334 464 OFFCURVE",
"377 451 OFFCURVE",
"415 432 CURVE",
"421 449 LINE",
"385 470 OFFCURVE",
"328 484 OFFCURVE",
"280 484 CURVE SMOOTH",
"150 484 OFFCURVE",
"63 385 OFFCURVE",
"63 236 CURVE SMOOTH",
"63 87 OFFCURVE",
"150 -12 OFFCURVE",
"280 -12 CURVE SMOOTH"
);
}
);
width = 461;
},
{
anchors = (
{
name = bottom;
position = "{288, 0}";
},
{
name = top;
position = "{267, 497}";
}
);
layerId = "EF8420CB-322A-4DAC-B980-DA6E6912705F";
paths = (
{
closed = 1;
nodes = (
"329 -12 OFFCURVE",
"372 -9 OFFCURVE",
"435 7 CURVE",
"408 145 LINE",
"375 134 OFFCURVE",
"343 132 OFFCURVE",
"325 132 CURVE SMOOTH",
"235 132 OFFCURVE",
"197 180 OFFCURVE",
"197 248 CURVE SMOOTH",
"197 319 OFFCURVE",
"239 365 OFFCURVE",
"315 365 CURVE SMOOTH",
"347 365 OFFCURVE",
"383 357 OFFCURVE",
"408 346 CURVE",
"435 484 LINE",
"381 503 OFFCURVE",
"333 509 OFFCURVE",
"295 509 CURVE SMOOTH",
"138 509 OFFCURVE",
"33 405 OFFCURVE",
"33 248 CURVE SMOOTH",
"33 92 OFFCURVE",
"137 -12 OFFCURVE",
"301 -12 CURVE SMOOTH"
);
}
);
width = 468;
}
);
unicode = 0063;
},
{
glyphname = eth;
layers = (
{
anchors = (
{
name = _center;
position = "{268, 618}";
}
);
layerId = "D9DFF065-DDB2-4B0F-A853-E0DAE751FB65";
paths = (
{
closed = 1;
nodes = (
"395 425 OFFCURVE",
"474 343 OFFCURVE",
"474 219 CURVE SMOOTH",
"474 95 OFFCURVE",
"394 11 OFFCURVE",
"275 11 CURVE SMOOTH",
"157 11 OFFCURVE",
"78 93 OFFCURVE",
"78 217 CURVE SMOOTH",
"78 342 OFFCURVE",
"157 425 OFFCURVE",
"276 425 CURVE SMOOTH"
);
},
{
closed = 1;
nodes = (
"324 623 OFFCURVE",
"443 482 OFFCURVE",
"464 344 CURVE",
"459 344 LINE",
"427 405 OFFCURVE",
"353 445 OFFCURVE",
"270 445 CURVE SMOOTH",
"143 445 OFFCURVE",
"57 352 OFFCURVE",
"57 217 CURVE SMOOTH",
"57 80 OFFCURVE",
"146 -9 OFFCURVE",
"278 -9 CURVE SMOOTH",
"417 -9 OFFCURVE",
"495 87 OFFCURVE",
"495 243 CURVE SMOOTH",
"495 442 OFFCURVE",
"365 629 OFFCURVE",
"171 717 CURVE",
"165 700 LINE"
);
},
{
closed = 1;
nodes = (
"196 550 LINE",
"407 719 LINE",
"396 732 LINE",
"185 562 LINE"
);
}
);
width = 565;
},
{
anchors = (
{
name = _center;
position = "{271, 603}";
}
);
layerId = "EF8420CB-322A-4DAC-B980-DA6E6912705F";
paths = (
{
closed = 1;
nodes = (
"297 311 OFFCURVE",
"322 273 OFFCURVE",
"322 216 CURVE SMOOTH",
"322 167 OFFCURVE",
"297 135 OFFCURVE",
"260 135 CURVE SMOOTH",
"225 135 OFFCURVE",
"202 167 OFFCURVE",
"202 216 CURVE SMOOTH",
"202 273 OFFCURVE",
"225 311 OFFCURVE",
"260 311 CURVE SMOOTH"
);
},
{
closed = 1;
nodes = (
"261 547 OFFCURVE",
"314 505 OFFCURVE",
"338 436 CURVE",
"333 436 LINE",
"319 447 OFFCURVE",
"290 455 OFFCURVE",
"260 455 CURVE SMOOTH",
"121 455 OFFCURVE",
"28 359 OFFCURVE",
"28 216 CURVE SMOOTH",
"28 81 OFFCURVE",
"121 -9 OFFCURVE",
"260 -9 CURVE SMOOTH",
"402 -9 OFFCURVE",
"496 81 OFFCURVE",
"496 216 CURVE SMOOTH",
"496 520 OFFCURVE",
"414 643 OFFCURVE",
"140 754 CURVE",
"111 619 LINE"
);
},
{
closed = 1;
nodes = (
"181 466 LINE",
"442 660 LINE",
"374 749 LINE",
"113 554 LINE"
);
}
);
width = 544;
}
);
unicode = 00F0;
},
{
glyphname = e;
layers = (
{
anchors = (
{
name = bottom;
position = "{278, 0}";
},
{
name = ogonek;
position = "{437, 17}";
},
{
name = top;
position = "{278, 497}";
}
);
layerId = "EF8420CB-322A-4DAC-B980-DA6E6912705F";
paths = (
{
closed = 1;
nodes = (
"379 -12 OFFCURVE",
"451 -3 OFFCURVE",
"500 17 CURVE",
"473 147 LINE",
"424 131 OFFCURVE",
"350 128 OFFCURVE",
"330 128 CURVE SMOOTH",
"244 128 OFFCURVE",
"207 178 OFFCURVE",
"207 256 CURVE SMOOTH",
"207 319 OFFCURVE",
"231 364 OFFCURVE",
"283 364 CURVE SMOOTH",
"311 364 OFFCURVE",
"345 350 OFFCURVE",
"345 306 CURVE",
"183 306 LINE",
"183 198 LINE",
"511 198 LINE",
"511 296 LINE",
"511 423 OFFCURVE",
"420 504 OFFCURVE",
"285 504 CURVE SMOOTH",
"134 504 OFFCURVE",
"33 403 OFFCURVE",
"33 249 CURVE SMOOTH",
"33 93 OFFCURVE",
"137 -12 OFFCURVE",
"325 -12 CURVE SMOOTH"
);
}
);
width = 559;
},
{
anchors = (
{
name = bottom;
position = "{268, 0}";
},
{
name = ogonek;
position = "{434, 28}";
},
{
name = top;
position = "{269, 472}";
}
);
layerId = "D9DFF065-DDB2-4B0F-A853-E0DAE751FB65";
paths = (
{
closed = 1;
nodes = (
"349 -12 OFFCURVE",
"419 7 OFFCURVE",
"465 39 CURVE",
"459 56 LINE",
"417 27 OFFCURVE",
"351 8 OFFCURVE",
"293 8 CURVE SMOOTH",
"165 8 OFFCURVE",
"83 100 OFFCURVE",
"83 238 CURVE SMOOTH",
"83 374 OFFCURVE",
"163 464 OFFCURVE",
"279 464 CURVE SMOOTH",
"389 464 OFFCURVE",
"461 382 OFFCURVE",
"461 259 CURVE",
"72 259 LINE",
"72 240 LINE",
"482 240 LINE",
"482 259 LINE",
"482 395 OFFCURVE",
"401 484 OFFCURVE",
"279 484 CURVE SMOOTH",
"150 484 OFFCURVE",
"62 385 OFFCURVE",
"62 238 CURVE SMOOTH",
"62 88 OFFCURVE",
"153 -12 OFFCURVE",
"290 -12 CURVE SMOOTH"
);
}
);
width = 538;
}
);
unicode = 0065;
},
{
glyphname = f;
layers = (
{
anchors = (
{
name = bottom;
position = "{115, 0}";
},
{
name = top;
position = "{196, 718}";
}
);
layerId = "D9DFF065-DDB2-4B0F-A853-E0DAE751FB65";
paths = (
{
closed = 1;
nodes = (
"125 0 LINE",
"125 612 LINE SMOOTH",
"125 674 OFFCURVE",
"159 710 OFFCURVE",
"214 710 CURVE SMOOTH",
"236 710 OFFCURVE",
"259 704 OFFCURVE",
"279 695 CURVE",
"285 712 LINE",
"263 723 OFFCURVE",
"239 730 OFFCURVE",
"213 730 CURVE SMOOTH",
"147 730 OFFCURVE",
"105 686 OFFCURVE",
"105 612 CURVE SMOOTH",
"105 0 LINE"
);
},
{
closed = 1;
nodes = (
"276 453 LINE",
"276 472 LINE",
"25 472 LINE",
"25 453 LINE"
);
}
);
width = 290;
},
{
anchors = (
{
name = bottom;
position = "{181, 0}";
},
{
name = top;
position = "{262, 719}";
}
);
layerId = "EF8420CB-322A-4DAC-B980-DA6E6912705F";
paths = (
{
closed = 1;
nodes = (
"265 0 LINE",
"265 518 LINE SMOOTH",
"265 564 OFFCURVE",
"294 594 OFFCURVE",
"337 594 CURVE SMOOTH",
"353 594 OFFCURVE",
"375 590 OFFCURVE",
"392 585 CURVE",
"419 717 LINE",
"385 731 OFFCURVE",
"339 740 OFFCURVE",
"297 740 CURVE SMOOTH",
"168 740 OFFCURVE",
"92 655 OFFCURVE",
"92 528 CURVE SMOOTH",
"92 0 LINE"
);
},
{
closed = 1;
nodes = (
"401 357 LINE",
"401 497 LINE",
"29 497 LINE",
"29 357 LINE"
);
}
);
width = 410;
}
);
unicode = 0066;
},
{
glyphname = h;
layers = (
{
anchors = (
{
name = bottom;
position = "{289, 0}";
},
{
name = center;
position = "{185, 606}";
},
{
name = top;
position = "{158, 718}";
}
);
components = (
{
name = _n;
transform = "{1, 0, 0, 1, 22, 0}";
}
);
layerId = "EF8420CB-322A-4DAC-B980-DA6E6912705F";
paths = (
{
closed = 1;
nodes = (
"245 0 LINE",
"245 728 LINE",
"71 728 LINE",
"71 0 LINE"
);
}
);
width = 630;
},
{
anchors = (
{
name = bottom;
position = "{268, 0}";
},
{
name = center;
position = "{158, 588}";
},
{
name = top;
position = "{106, 718}";
}
);
components = (
{
name = _n;
transform = "{1, 0, 0, 1, -6, 0}";
}
);
layerId = "D9DFF065-DDB2-4B0F-A853-E0DAE751FB65";
paths = (
{
closed = 1;
nodes = (
"116 0 LINE",
"116 718 LINE",
"96 718 LINE",
"96 0 LINE"
);
}
);
width = 562;
}
);
unicode = 0068;
},
{
glyphname = idotless;
layers = (
{
anchors = (
{
name = bottom;
position = "{158, 0}";
},
{
name = ogonek;
position = "{202, 5}";
},
{
name = top;
position = "{158, 497}";
}
);
layerId = "EF8420CB-322A-4DAC-B980-DA6E6912705F";
paths = (
{
closed = 1;
nodes = (
"244 0 LINE",
"244 497 LINE",
"71 497 LINE",
"71 0 LINE"
);
}
);
width = 315;
},
{
anchors = (
{
name = bottom;
position = "{106, 0}";
},
{
name = ogonek;
position = "{106, 2}";
},
{
name = top;
position = "{106, 472}";
}
);
layerId = "D9DFF065-DDB2-4B0F-A853-E0DAE751FB65";
paths = (
{
closed = 1;
nodes = (
"116 0 LINE",
"116 472 LINE",
"96 472 LINE",
"96 0 LINE"
);
}
);
width = 212;
}
);
unicode = 0131;
},
{
glyphname = jdotless;
layers = (
{
anchors = (
{
name = bottom;
position = "{107, -218}";
},
{
name = top;
position = "{107, 472}";
}
);
layerId = "D9DFF065-DDB2-4B0F-A853-E0DAE751FB65";
paths = (
{
closed = 1;
nodes = (
"92 -230 OFFCURVE",
"117 -202 OFFCURVE",
"117 -160 CURVE SMOOTH",
"117 472 LINE",
"97 472 LINE",
"97 -160 LINE SMOOTH",
"97 -190 OFFCURVE",
"80 -210 OFFCURVE",
"52 -210 CURVE SMOOTH",
"38 -210 OFFCURVE",
"22 -205 OFFCURVE",
"10 -197 CURVE",
"4 -214 LINE",
"17 -224 OFFCURVE",
"36 -230 OFFCURVE",
"54 -230 CURVE SMOOTH"
);
}
);
width = 213;
},
{
anchors = (
{
name = bottom;
position = "{158, 0}";
},
{
name = top;
position = "{158, 497}";
}
);
layerId = "EF8420CB-322A-4DAC-B980-DA6E6912705F";
paths = (
{
closed = 1;
nodes = (
"185 -230 OFFCURVE",
"244 -170 OFFCURVE",
"244 -80 CURVE SMOOTH",
"244 497 LINE",
"71 497 LINE",
"71 -30 LINE SMOOTH",
"71 -68 OFFCURVE",
"56 -81 OFFCURVE",
"39 -81 CURVE SMOOTH",
"32 -81 OFFCURVE",
"20 -79 OFFCURVE",
"13 -75 CURVE",
"-13 -209 LINE",
"19 -224 OFFCURVE",
"68 -230 OFFCURVE",
"96 -230 CURVE SMOOTH"
);
}
);
width = 315;
}
);
unicode = 0237;
},
{
glyphname = k;
layers = (
{
anchors = (
{
name = bottom;
position = "{203, 0}";
},
{
name = top;
position = "{106, 718}";
}
);
components = (
{
name = _k;
transform = "{1, 0, 0, 1, -47, 0}";
}
);
layerId = "D9DFF065-DDB2-4B0F-A853-E0DAE751FB65";
paths = (
{
closed = 1;
nodes = (
"116 0 LINE",
"116 718 LINE",
"96 718 LINE",
"96 0 LINE"
);
}
);
width = 479;
},
{
anchors = (
{
name = bottom;
position = "{305, 0}";
},
{
name = top;
position = "{157, 728}";
}
);
components = (
{
name = _k;
transform = "{1, 0, 0, 1, 81, 0}";
}
);
layerId = "EF8420CB-322A-4DAC-B980-DA6E6912705F";
paths = (
{
closed = 1;
nodes = (
"244 0 LINE",
"244 728 LINE",
"71 728 LINE",
"71 0 LINE"
);
}
);
width = 607;
}
);
unicode = 006B;
},
{
glyphname = kgreenlandic;
layers = (
{
anchors = (
{
name = bottom;
position = "{300, 0}";
},
{
name = top;
position = "{300, 472}";
}
);
components = (
{
name = _k;
transform = "{1, 0, 0, 1, -47, 0}";
}
);
layerId = "D9DFF065-DDB2-4B0F-A853-E0DAE751FB65";
paths = (
{
closed = 1;
nodes = (
"116 0 LINE",
"116 472 LINE",
"96 472 LINE",
"96 0 LINE"
);
}
);
width = 470;
},
{
anchors = (
{
name = bottom;
position = "{310, 0}";
},
{
name = top;
position = "{310, 497}";
}
);
components = (
{
name = _k;
transform = "{1, 0, 0, 1, 82, 0}";
}
);
layerId = "EF8420CB-322A-4DAC-B980-DA6E6912705F";
paths = (
{
closed = 1;
nodes = (
"245 0 LINE",
"245 497 LINE",
"71 497 LINE",
"71 0 LINE"
);
}
);
width = 607;
}
);
unicode = 0138;
},
{
glyphname = l;
layers = (
{
anchors = (
{
name = bottom;
position = "{147, 0}";
},
{
name = center;
position = "{126, 380}";
},
{
name = top;
position = "{106, 718}";
},
{
name = topright;
position = "{208, 472}";
}
);
layerId = "D9DFF065-DDB2-4B0F-A853-E0DAE751FB65";
paths = (
{
closed = 1;
nodes = (
"181 -12 OFFCURVE",
"198 -8 OFFCURVE",
"212 -2 CURVE",
"206 15 LINE",
"195 11 OFFCURVE",
"180 8 OFFCURVE",
"168 8 CURVE SMOOTH",
"136 8 OFFCURVE",
"115 28 OFFCURVE",
"115 57 CURVE SMOOTH",
"115 718 LINE",
"95 718 LINE",
"95 57 LINE SMOOTH",
"95 16 OFFCURVE",
"125 -12 OFFCURVE",
"166 -12 CURVE SMOOTH"
);
}
);
width = 223;
},
{
anchors = (
{
name = bottom;
position = "{194, 0}";
},
{
name = center;
position = "{162, 399}";
},
{
name = top;
position = "{162, 718}";
},
{
name = topright;
position = "{336, 497}";
}
);
layerId = "EF8420CB-322A-4DAC-B980-DA6E6912705F";
paths = (
{
closed = 1;
nodes = (
"252 -12 OFFCURVE",
"293 -4 OFFCURVE",
"321 12 CURVE",
"295 138 LINE",
"289 134 OFFCURVE",
"281 132 OFFCURVE",
"274 132 CURVE SMOOTH",
"252 132 OFFCURVE",
"238 143 OFFCURVE",
"238 174 CURVE SMOOTH",
"238 728 LINE",
"64 728 LINE",
"64 149 LINE SMOOTH",
"64 52 OFFCURVE",
"128 -12 OFFCURVE",
"219 -12 CURVE SMOOTH"
);
}
);
width = 332;
}
);
unicode = 006C;
},
{
glyphname = m;
layers = (
{
anchors = (
{
name = bottom;
position = "{444, 0}";
},
{
name = top;
position = "{444, 472}";
}
);
components = (
{
name = _n;
transform = "{1, 0, 0, 1, -15, 0}";
},
{
name = _n;
transform = "{1, 0, 0, 1, 332, 0}";
}
);
layerId = "D9DFF065-DDB2-4B0F-A853-E0DAE751FB65";
paths = (
{
closed = 1;
nodes = (
"116 0 LINE",
"116 398 LINE",
"112 472 LINE",
"96 472 LINE",
"96 0 LINE"
);
}
);
width = 900;
},
{
anchors = (
{
name = bottom;
position = "{433, 0}";
},
{
name = top;
position = "{433, 497}";
}
);
components = (
{
name = _n;
transform = "{1, 0, 0, 1, -2, 0}";
},
{
name = _n;
transform = "{1, 0, 0, 1, 295, 0}";
}
);
layerId = "EF8420CB-322A-4DAC-B980-DA6E6912705F";
paths = (
{
closed = 1;
nodes = (
"244 0 LINE",
"244 386 LINE",
"216 497 LINE",
"71 497 LINE",
"71 0 LINE"
);
}
);
width = 901;
}
);
unicode = 006D;
},
{
glyphname = o;
layers = (
{
anchors = (
{
name = bottom;
position = "{289, 0}";
},
{
name = center;
position = "{289, 249}";
},
{
name = ogonek;
position = "{360, 10}";
},
{
name = top;
position = "{289, 497}";
},
{
name = topright;
position = "{463, 497}";
}
);
layerId = "EF8420CB-322A-4DAC-B980-DA6E6912705F";
paths = (
{
closed = 1;
nodes = (
"443 -12 OFFCURVE",
"545 92 OFFCURVE",
"545 249 CURVE SMOOTH",
"545 405 OFFCURVE",
"443 509 OFFCURVE",
"289 509 CURVE SMOOTH",
"136 509 OFFCURVE",
"34 405 OFFCURVE",
"34 249 CURVE SMOOTH",
"34 92 OFFCURVE",
"136 -12 OFFCURVE",
"289 -12 CURVE SMOOTH"
);
},
{
closed = 1;
nodes = (
"240 132 OFFCURVE",
"208 179 OFFCURVE",
"208 249 CURVE SMOOTH",
"208 319 OFFCURVE",
"240 365 OFFCURVE",
"289 365 CURVE SMOOTH",
"338 365 OFFCURVE",
"371 319 OFFCURVE",
"371 249 CURVE SMOOTH",
"371 179 OFFCURVE",
"338 132 OFFCURVE",
"289 132 CURVE SMOOTH"
);
}
);
width = 579;
},
{
anchors = (
{
name = bottom;
position = "{275, 0}";
},
{
name = center;
position = "{275, 236}";
},
{
name = ogonek;
position = "{345, 10}";
},
{
name = top;
position = "{275, 472}";
},
{
name = topright;
position = "{431, 472}";
}
);
layerId = "D9DFF065-DDB2-4B0F-A853-E0DAE751FB65";
paths = (
{
closed = 1;
nodes = (
"419 -12 OFFCURVE",
"508 87 OFFCURVE",
"508 236 CURVE SMOOTH",
"508 385 OFFCURVE",
"419 484 OFFCURVE",
"285 484 CURVE SMOOTH",
"152 484 OFFCURVE",
"63 385 OFFCURVE",
"63 236 CURVE SMOOTH",
"63 87 OFFCURVE",
"152 -12 OFFCURVE",
"285 -12 CURVE SMOOTH"
);
},
{
closed = 1;
nodes = (
"164 8 OFFCURVE",
"84 99 OFFCURVE",
"84 236 CURVE SMOOTH",
"84 373 OFFCURVE",
"164 464 OFFCURVE",
"285 464 CURVE SMOOTH",
"406 464 OFFCURVE",
"487 373 OFFCURVE",
"487 236 CURVE SMOOTH",
"487 99 OFFCURVE",
"406 8 OFFCURVE",
"285 8 CURVE SMOOTH"
);
}
);
width = 571;
}
);
unicode = 006F;
},
{
glyphname = p;
layers = (
{
anchors = (
{
name = bottom;
position = "{106, -218}";
},
{
name = top;
position = "{235, 472}";
}
);
components = (
{
name = _stem.p;
},
{
name = _d;
transform = "{-1, 0, 0, 1, 543, 0}";
}
);
layerId = "D9DFF065-DDB2-4B0F-A853-E0DAE751FB65";
width = 567;
},
{
anchors = (
{
name = bottom;
position = "{157, -217}";
},
{
name = top;
position = "{302, 497}";
}
);
components = (
{
name = _stem.p;
transform = "{1, 0, 0, 1, 10, 0}";
},
{
name = _d;
transform = "{-1, 0, 0, 1, 622, 0}";
}
);
layerId = "EF8420CB-322A-4DAC-B980-DA6E6912705F";
width = 622;
},
{
anchors = (
{
name = bottom;
position = "{125, -218}";
},
{
name = top;
position = "{285, 482}";
}
);
associatedMasterId = "D9DFF065-DDB2-4B0F-A853-E0DAE751FB65";
components = (
{
name = _stem.p;
}
);
layerId = "AC944F47-DF6C-46B7-8615-4E28CEF2DB47";
name = "Jun 21 17, 22:21";
paths = (
{
closed = 1;
nodes = (
"431 -12 OFFCURVE",
"516 90 OFFCURVE",
"516 244 CURVE SMOOTH",
"516 394 OFFCURVE",
"433 494 OFFCURVE",
"309 494 CURVE SMOOTH",
"262 494 OFFCURVE",
"204 473 OFFCURVE",
"153 437 CURVE",
"161 381 LINE",
"207 409 OFFCURVE",
"250 424 OFFCURVE",
"295 424 CURVE SMOOTH",
"380 424 OFFCURVE",
"430 357 OFFCURVE",
"430 244 CURVE SMOOTH",
"430 125 OFFCURVE",
"379 54 OFFCURVE",
"292 54 CURVE SMOOTH",
"244 54 OFFCURVE",
"199 68 OFFCURVE",
"161 96 CURVE",
"154 40 LINE",
"198 7 OFFCURVE",
"253 -12 OFFCURVE",
"303 -12 CURVE SMOOTH"
);
}
);
width = 570;
}
);
unicode = 0070;
},
{
glyphname = thorn;
layers = (
{
anchors = (
{
name = bottom;
position = "{106, -218}";
},
{
name = top;
position = "{106, 718}";
}
);
components = (
{
name = _stem.p;
},
{
name = _d;
transform = "{-1, 0, 0, 1, 535, 0}";
}
);
layerId = "D9DFF065-DDB2-4B0F-A853-E0DAE751FB65";
paths = (
{
closed = 1;
nodes = (
"96 391 LINE",
"116 391 LINE",
"116 718 LINE",
"96 718 LINE"
);
}
);
width = 559;
},
{
anchors = (
{
name = bottom;
position = "{157, -217}";
},
{
name = top;
position = "{153, 728}";
}
);
components = (
{
name = _stem.p;
transform = "{1, 0, 0, 1, 10, 0}";
},
{
name = _d;
transform = "{-1, 0, 0, 1, 620, 0}";
}
);
layerId = "EF8420CB-322A-4DAC-B980-DA6E6912705F";
paths = (
{
closed = 1;
nodes = (
"71 379 LINE",
"244 379 LINE",
"244 728 LINE",
"71 728 LINE"
);
}
);
width = 620;
}
);
leftMetricsKey = p;
rightMetricsKey = p;
unicode = 00FE;
},
{
glyphname = r;
layers = (
{
anchors = (
{
name = bottom;
position = "{107, 0}";
},
{
name = top;
position = "{194, 472}";
}
);
layerId = "D9DFF065-DDB2-4B0F-A853-E0DAE751FB65";
paths = (
{
closed = 1;
nodes = (
"116 0 LINE",
"116 378 LINE",
"112 472 LINE",
"96 472 LINE",
"96 0 LINE"
);
},
{
closed = 1;
nodes = (
"146 423 OFFCURVE",
"208 466 OFFCURVE",
"274 466 CURVE SMOOTH",
"294 466 OFFCURVE",
"306 462 OFFCURVE",
"314 457 CURVE",
"320 474 LINE",
"310 480 OFFCURVE",
"295 484 OFFCURVE",
"274 484 CURVE SMOOTH",
"211 484 OFFCURVE",
"146 448 OFFCURVE",
"108 376 CURVE",
"108 351 LINE"
);
}
);
width = 333;
},
{
anchors = (
{
name = bottom;
position = "{158, 0}";
},
{
name = top;
position = "{226, 497}";
}
);
layerId = "EF8420CB-322A-4DAC-B980-DA6E6912705F";
paths = (
{
closed = 1;
nodes = (
"244 0 LINE",
"244 356 LINE",
"216 497 LINE",
"71 497 LINE",
"71 0 LINE"
);
},
{
closed = 1;
nodes = (
"239 315 OFFCURVE",
"294 357 OFFCURVE",
"348 357 CURVE SMOOTH",
"366 357 OFFCURVE",
"383 352 OFFCURVE",
"396 344 CURVE",
"423 493 LINE",
"408 503 OFFCURVE",
"385 509 OFFCURVE",
"361 509 CURVE SMOOTH",
"297 509 OFFCURVE",
"240 464 OFFCURVE",
"213 396 CURVE",
"213 253 LINE"
);
}
);
width = 426;
}
);
unicode = 0072;
},
{
glyphname = s;
layers = (
{
anchors = (
{
name = bottom;
position = "{263, 0}";
},
{
name = top;
position = "{254, 497}";
}
);
layerId = "EF8420CB-322A-4DAC-B980-DA6E6912705F";
paths = (
{
closed = 1;
nodes = (
"391 -12 OFFCURVE",
"478 55 OFFCURVE",
"478 165 CURVE SMOOTH",
"478 354 OFFCURVE",
"220 294 OFFCURVE",
"220 347 CURVE SMOOTH",
"220 367 OFFCURVE",
"258 368 OFFCURVE",
"275 368 CURVE SMOOTH",
"331 368 OFFCURVE",
"382 357 OFFCURVE",
"422 343 CURVE",
"449 473 LINE",
"399 493 OFFCURVE",
"336 509 OFFCURVE",
"271 509 CURVE SMOOTH",
"135 509 OFFCURVE",
"45 440 OFFCURVE",
"45 335 CURVE SMOOTH",
"45 158 OFFCURVE",
"303 204 OFFCURVE",
"303 150 CURVE SMOOTH",
"303 138 OFFCURVE",
"291 125 OFFCURVE",
"222 125 CURVE SMOOTH",
"172 125 OFFCURVE",
"120 132 OFFCURVE",
"70 147 CURVE",
"43 17 LINE",
"117 -4 OFFCURVE",
"187 -12 OFFCURVE",
"240 -12 CURVE SMOOTH"
);
}
);
width = 513;
},
{
anchors = (
{
name = bottom;
position = "{232, 0}";
},
{
name = top;
position = "{232, 472}";
}
);
layerId = "D9DFF065-DDB2-4B0F-A853-E0DAE751FB65";
paths = (
{
closed = 1;
nodes = (
"344 -12 OFFCURVE",
"417 39 OFFCURVE",
"417 117 CURVE SMOOTH",
"417 285 OFFCURVE",
"77 230 OFFCURVE",
"77 363 CURVE SMOOTH",
"77 422 OFFCURVE",
"140 464 OFFCURVE",
"233 464 CURVE SMOOTH",
"290 464 OFFCURVE",
"350 448 OFFCURVE",
"385 424 CURVE",
"391 441 LINE",
"356 467 OFFCURVE",
"292 484 OFFCURVE",
"231 484 CURVE SMOOTH",
"127 484 OFFCURVE",
"56 434 OFFCURVE",
"56 364 CURVE SMOOTH",
"56 209 OFFCURVE",
"397 264 OFFCURVE",
"397 117 CURVE SMOOTH",
"397 51 OFFCURVE",
"332 8 OFFCURVE",
"241 8 CURVE SMOOTH",
"181 8 OFFCURVE",
"112 27 OFFCURVE",
"55 56 CURVE",
"49 39 LINE",
"104 8 OFFCURVE",
"177 -12 OFFCURVE",
"241 -12 CURVE SMOOTH"
);
}
);
width = 464;
}
);
unicode = 0073;
},
{
glyphname = germandbls;
layers = (
{
anchors = (
{
name = bottom;
position = "{283, 0}";
},
{
name = top;
position = "{283, 730}";
}
);
layerId = "D9DFF065-DDB2-4B0F-A853-E0DAE751FB65";
paths = (
{
closed = 1;
nodes = (
"443 -10 OFFCURVE",
"518 49 OFFCURVE",
"518 141 CURVE SMOOTH",
"518 288 OFFCURVE",
"326 287 OFFCURVE",
"326 369 CURVE SMOOTH",
"326 429 OFFCURVE",
"432 461 OFFCURVE",
"432 577 CURVE SMOOTH",
"432 670 OFFCURVE",
"363 730 OFFCURVE",
"270 730 CURVE SMOOTH",
"161 730 OFFCURVE",
"96 648 OFFCURVE",
"96 524 CURVE SMOOTH",
"96 0 LINE",
"116 0 LINE",
"116 523 LINE SMOOTH",
"116 634 OFFCURVE",
"173 709 OFFCURVE",
"270 709 CURVE SMOOTH",
"349 709 OFFCURVE",
"410 659 OFFCURVE",
"410 577 CURVE SMOOTH",
"410 468 OFFCURVE",
"304 442 OFFCURVE",
"304 367 CURVE SMOOTH",
"304 267 OFFCURVE",
"496 274 OFFCURVE",
"496 140 CURVE SMOOTH",
"496 62 OFFCURVE",
"430 11 OFFCURVE",
"335 11 CURVE SMOOTH",
"289 11 OFFCURVE",
"237 23 OFFCURVE",
"205 41 CURVE",
"199 24 LINE",
"230 6 OFFCURVE",
"278 -10 OFFCURVE",
"335 -10 CURVE SMOOTH"
);
}
);
width = 560;
},
{
anchors = (
{
name = bottom;
position = "{334, 0}";
},
{
name = top;
position = "{334, 728}";
}
);
layerId = "EF8420CB-322A-4DAC-B980-DA6E6912705F";
paths = (
{
closed = 1;
nodes = (
"540 -10 OFFCURVE",
"628 57 OFFCURVE",
"628 160 CURVE SMOOTH",
"628 300 OFFCURVE",
"466 326 OFFCURVE",
"466 380 CURVE SMOOTH",
"466 417 OFFCURVE",
"542 452 OFFCURVE",
"542 548 CURVE SMOOTH",
"542 655 OFFCURVE",
"448 740 OFFCURVE",
"307 740 CURVE SMOOTH",
"165 740 OFFCURVE",
"71 654 OFFCURVE",
"71 524 CURVE SMOOTH",
"71 0 LINE",
"244 0 LINE",
"244 523 LINE SMOOTH",
"244 569 OFFCURVE",
"266 596 OFFCURVE",
"307 596 CURVE SMOOTH",
"344 596 OFFCURVE",
"368 575 OFFCURVE",
"368 539 CURVE SMOOTH",
"368 473 OFFCURVE",
"292 446 OFFCURVE",
"292 365 CURVE SMOOTH",
"292 246 OFFCURVE",
"454 231 OFFCURVE",
"454 172 CURVE SMOOTH",
"454 149 OFFCURVE",
"430 134 OFFCURVE",
"394 134 CURVE SMOOTH",
"367 134 OFFCURVE",
"332 142 OFFCURVE",
"307 155 CURVE",
"280 23 LINE",
"312 3 OFFCURVE",
"362 -10 OFFCURVE",
"416 -10 CURVE SMOOTH"
);
}
);
width = 644;
}
);
unicode = 00DF;
},
{
glyphname = t;
layers = (
{
anchors = (
{
name = bottom;
position = "{177, 0}";
},
{
name = center;
position = "{141, 256}";
},
{
name = top;
position = "{117, 617}";
},
{
name = topright;
position = "{217, 472}";
}
);
layerId = "D9DFF065-DDB2-4B0F-A853-E0DAE751FB65";
paths = (
{
closed = 1;
nodes = (
"229 -12 OFFCURVE",
"255 -5 OFFCURVE",
"270 6 CURVE",
"264 24 LINE",
"248 14 OFFCURVE",
"225 8 OFFCURVE",
"202 8 CURVE SMOOTH",
"153 8 OFFCURVE",
"127 34 OFFCURVE",
"127 79 CURVE SMOOTH",
"127 617 LINE",
"107 617 LINE",
"107 79 LINE SMOOTH",
"107 22 OFFCURVE",
"141 -12 OFFCURVE",
"201 -12 CURVE SMOOTH"
);
},
{
closed = 1;
nodes = (
"259 453 LINE",
"259 472 LINE",
"18 472 LINE",
"18 453 LINE"
);
}
);
width = 295;
},
{
anchors = (
{
name = bottom;
position = "{259, 0}";
},
{
name = center;
position = "{197, 258}";
},
{
name = top;
position = "{180, 617}";
},
{
name = topright;
position = "{372, 497}";
}
);
layerId = "EF8420CB-322A-4DAC-B980-DA6E6912705F";
paths = (
{
closed = 1;
nodes = (
"325 -12 OFFCURVE",
"369 -2 OFFCURVE",
"402 16 CURVE",
"369 143 LINE",
"357 137 OFFCURVE",
"340 133 OFFCURVE",
"326 133 CURVE SMOOTH",
"290 133 OFFCURVE",
"268 157 OFFCURVE",
"268 194 CURVE SMOOTH",
"268 617 LINE",
"95 617 LINE",
"95 162 LINE SMOOTH",
"95 58 OFFCURVE",
"168 -12 OFFCURVE",
"282 -12 CURVE SMOOTH"
);
},
{
closed = 1;
nodes = (
"379 357 LINE",
"379 497 LINE",
"17 497 LINE",
"17 357 LINE"
);
}
);
width = 430;
}
);
unicode = 0074;
},
{
glyphname = u;
layers = (
{
anchors = (
{
name = bottom;
position = "{280, 0}";
},
{
name = ogonek;
position = "{452, 2}";
},
{
name = top;
position = "{280, 472}";
},
{
name = topright;
position = "{532, 472}";
}
);
components = (
{
name = _n;
transform = "{-1, 0, 0, -1, 568, 472}";
}
);
layerId = "D9DFF065-DDB2-4B0F-A853-E0DAE751FB65";
paths = (
{
closed = 1;
nodes = (
"462 0 LINE",
"462 472 LINE",
"442 472 LINE",
"442 74 LINE",
"446 0 LINE"
);
}
);
width = 558;
},
{
anchors = (
{
name = bottom;
position = "{304, 0}";
},
{
name = ogonek;
position = "{505, 5}";
},
{
name = top;
position = "{304, 497}";
},
{
name = topright;
position = "{546, 497}";
}
);
components = (
{
name = _n;
transform = "{-1, 0, 0, -1, 606, 497}";
}
);
layerId = "EF8420CB-322A-4DAC-B980-DA6E6912705F";
paths = (
{
closed = 1;
nodes = (
"547 0 LINE",
"547 497 LINE",
"374 497 LINE",
"374 111 LINE",
"402 0 LINE"
);
}
);
width = 618;
}
);
unicode = 0075;
},
{
glyphname = v;
layers = (
{
anchors = (
{
name = bottom;
position = "{276, 0}";
},
{
name = top;
position = "{276, 502}";
}
);
layerId = "EF8420CB-322A-4DAC-B980-DA6E6912705F";
paths = (
{
closed = 1;
nodes = (
"368 0 LINE",
"553 497 LINE",
"370 497 LINE",
"278 162 LINE",
"274 162 LINE",
"182 497 LINE",
"-1 497 LINE",
"180 0 LINE"
);
}
);
width = 552;
},
{
anchors = (
{
name = bottom;
position = "{240, 0}";
},
{
name = top;
position = "{240, 472}";
}
);
layerId = "D9DFF065-DDB2-4B0F-A853-E0DAE751FB65";
paths = (
{
closed = 1;
nodes = (
"251 0 LINE",
"457 472 LINE",
"434 472 LINE",
"244 30 LINE",
"240 30 LINE",
"46 472 LINE",
"23 472 LINE",
"233 0 LINE"
);
}
);
width = 480;
}
);
unicode = 0076;
},
{
glyphname = w;
layers = (
{
anchors = (
{
name = bottom;
position = "{377, 0}";
},
{
name = top;
position = "{377, 472}";
}
);
layerId = "D9DFF065-DDB2-4B0F-A853-E0DAE751FB65";
paths = (
{
closed = 1;
nodes = (
"216 0 LINE",
"376 444 LINE",
"378 444 LINE",
"542 0 LINE",
"556 0 LINE",
"727 472 LINE",
"705 472 LINE",
"551 33 LINE",
"547 33 LINE",
"390 472 LINE",
"364 472 LINE",
"210 33 LINE",
"207 33 LINE",
"49 472 LINE",
"27 472 LINE",
"201 0 LINE"
);
}
);
width = 755;
},
{
anchors = (
{
name = bottom;
position = "{415, 0}";
},
{
name = top;
position = "{415, 497}";
}
);
layerId = "EF8420CB-322A-4DAC-B980-DA6E6912705F";
paths = (
{
closed = 1;
nodes = (
"320 0 LINE",
"411 331 LINE",
"414 331 LINE",
"496 0 LINE",
"681 0 LINE",
"819 497 LINE",
"646 497 LINE",
"596 193 LINE",
"591 193 LINE",
"511 497 LINE",
"315 497 LINE",
"235 193 LINE",
"231 193 LINE",
"184 497 LINE",
"11 497 LINE",
"137 0 LINE"
);
}
);
width = 827;
}
);
unicode = 0077;
},
{
glyphname = x;
layers = (
{
anchors = (
{
name = bottom;
position = "{222, 0}";
},
{
name = top;
position = "{222, 472}";
}
);
layerId = "D9DFF065-DDB2-4B0F-A853-E0DAE751FB65";
paths = (
{
closed = 1;
nodes = (
"58 0 LINE",
"414 472 LINE",
"390 472 LINE",
"34 0 LINE"
);
},
{
closed = 1;
nodes = (
"220 234 LINE",
"394 0 LINE",
"419 0 LINE",
"233 249 LINE"
);
},
{
closed = 1;
nodes = (
"228 251 LINE",
"49 472 LINE",
"24 472 LINE",
"215 236 LINE"
);
}
);
width = 444;
},
{
anchors = (
{
name = bottom;
position = "{264, 0}";
},
{
name = top;
position = "{264, 497}";
}
);
layerId = "EF8420CB-322A-4DAC-B980-DA6E6912705F";
paths = (
{
closed = 1;
nodes = (
"179 0 LINE",
"527 497 LINE",
"347 497 LINE",
"0 0 LINE"
);
},
{
closed = 1;
nodes = (
"220 200 LINE",
"348 0 LINE",
"527 0 LINE",
"314 323 LINE"
);
},
{
closed = 1;
nodes = (
"307 320 LINE",
"180 497 LINE",
"0 497 LINE",
"213 197 LINE"
);
}
);
width = 528;
}
);
unicode = 0078;
},
{
glyphname = y;
layers = (
{
anchors = (
{
name = bottom;
position = "{328, 0}";
},
{
name = top;
position = "{227, 472}";
}
);
layerId = "D9DFF065-DDB2-4B0F-A853-E0DAE751FB65";
paths = (
{
closed = 1;
nodes = (
"228 0 LINE",
"146 -218 LINE",
"166 -218 LINE",
"246 0 LINE",
"447 472 LINE",
"424 472 LINE",
"239 30 LINE",
"235 30 LINE",
"46 472 LINE",
"23 472 LINE"
);
}
);
width = 471;
},
{
anchors = (
{
name = bottom;
position = "{477, 0}";
},
{
name = top;
position = "{274, 497}";
}
);
layerId = "EF8420CB-322A-4DAC-B980-DA6E6912705F";
paths = (
{
closed = 1;
nodes = (
"180 0 LINE",
"96 -218 LINE",
"289 -218 LINE",
"366 0 LINE",
"553 497 LINE",
"370 497 LINE",
"278 162 LINE",
"274 162 LINE",
"182 497 LINE",
"-1 497 LINE"
);
}
);
width = 551;
}
);
unicode = 0079;
},
{
glyphname = z;
layers = (
{
anchors = (
{
name = bottom;
position = "{217, 0}";
},
{
name = top;
position = "{217, 472}";
}
);
layerId = "D9DFF065-DDB2-4B0F-A853-E0DAE751FB65";
paths = (
{
closed = 1;
nodes = (
"403 0 LINE",
"403 20 LINE",
"58 20 LINE",
"392 455 LINE",
"392 472 LINE",
"30 472 LINE",
"30 452 LINE",
"364 452 LINE",
"30 16 LINE",
"30 0 LINE"
);
}
);
width = 431;
},
{
anchors = (
{
name = bottom;
position = "{261, 0}";
},
{
name = top;
position = "{261, 497}";
}
);
layerId = "EF8420CB-322A-4DAC-B980-DA6E6912705F";
paths = (
{
closed = 1;
nodes = (
"485 0 LINE",
"485 140 LINE",
"260 140 LINE",
"471 393 LINE",
"471 497 LINE",
"41 497 LINE",
"41 358 LINE",
"252 358 LINE",
"41 103 LINE",
"41 0 LINE"
);
}
);
width = 521;
}
);
unicode = 007A;
},
{
glyphname = ordfeminine;
layers = (
{
layerId = "D9DFF065-DDB2-4B0F-A853-E0DAE751FB65";
paths = (
{
closed = 1;
nodes = (
"322 420 LINE",
"322 604 LINE SMOOTH",
"322 674 OFFCURVE",
"281 712 OFFCURVE",
"212 712 CURVE SMOOTH",
"177 712 OFFCURVE",
"140 702 OFFCURVE",
"109 686 CURVE",
"114 670 LINE",
"141 685 OFFCURVE",
"178 694 OFFCURVE",
"208 694 CURVE SMOOTH",
"268 694 OFFCURVE",
"302 662 OFFCURVE",
"302 602 CURVE SMOOTH",
"302 463 LINE",
"306 420 LINE"
);
},
{
closed = 1;
nodes = (
"222 413 OFFCURVE",
"271 429 OFFCURVE",
"308 456 CURVE",
"308 471 LINE",
"270 446 OFFCURVE",
"222 430 OFFCURVE",
"185 430 CURVE SMOOTH",
"135 430 OFFCURVE",
"106 458 OFFCURVE",
"106 492 CURVE SMOOTH",
"106 546 OFFCURVE",
"182 576 OFFCURVE",
"308 576 CURVE",
"308 592 LINE",
"168 592 OFFCURVE",
"85 556 OFFCURVE",
"85 490 CURVE SMOOTH",
"85 447 OFFCURVE",
"121 413 OFFCURVE",
"181 413 CURVE SMOOTH"
);
}
);
width = 436;
userData = {
RMXScaler = {
height = 60;
verticalShift = 420;
width = 60;
};
};
},
{
layerId = "EF8420CB-322A-4DAC-B980-DA6E6912705F";
paths = (
{
closed = 1;
nodes = (
"326 416 LINE",
"326 611 LINE SMOOTH",
"326 676 OFFCURVE",
"272 719 OFFCURVE",
"191 719 CURVE SMOOTH",
"152 719 OFFCURVE",
"103 708 OFFCURVE",
"70 691 CURVE",
"80 619 LINE",
"111 636 OFFCURVE",
"148 644 OFFCURVE",
"171 644 CURVE SMOOTH",
"207 644 OFFCURVE",
"231 627 OFFCURVE",
"231 589 CURVE SMOOTH",
"231 485 LINE",
"246 416 LINE"
);
},
{
closed = 1;
nodes = (
"182 409 OFFCURVE",
"221 425 OFFCURVE",
"243 449 CURVE",
"243 514 LINE",
"221 493 OFFCURVE",
"195 479 OFFCURVE",
"172 479 CURVE SMOOTH",
"153 479 OFFCURVE",
"139 489 OFFCURVE",
"139 503 CURVE SMOOTH",
"139 528 OFFCURVE",
"180 544 OFFCURVE",
"243 544 CURVE",
"243 606 LINE",
"122 606 OFFCURVE",
"43 562 OFFCURVE",
"43 494 CURVE SMOOTH",
"43 444 OFFCURVE",
"84 409 OFFCURVE",
"143 409 CURVE SMOOTH"
);
}
);
width = 389;
userData = {
RMXScaler = {
height = 60;
verticalShift = 416;
weight = -80;
width = 60;
};
};
}
);
unicode = 00AA;
userData = {
RMXScaler = {
source = a;
};
};
},
{
glyphname = ordmasculine;
layers = (
{
layerId = "D9DFF065-DDB2-4B0F-A853-E0DAE751FB65";
paths = (
{
closed = 1;
nodes = (
"312 413 OFFCURVE",
"366 472 OFFCURVE",
"366 562 CURVE SMOOTH",
"366 652 OFFCURVE",
"312 712 OFFCURVE",
"231 712 CURVE SMOOTH",
"150 712 OFFCURVE",
"96 652 OFFCURVE",
"96 562 CURVE SMOOTH",
"96 472 OFFCURVE",
"150 413 OFFCURVE",
"231 413 CURVE SMOOTH"
);
},
{
closed = 1;
nodes = (
"162 431 OFFCURVE",
"116 484 OFFCURVE",
"116 562 CURVE SMOOTH",
"116 641 OFFCURVE",
"162 693 OFFCURVE",
"231 693 CURVE SMOOTH",
"300 693 OFFCURVE",
"346 641 OFFCURVE",
"346 562 CURVE SMOOTH",
"346 484 OFFCURVE",
"300 431 OFFCURVE",
"231 431 CURVE SMOOTH"
);
}
);
width = 462;
userData = {
RMXScaler = {
height = 60;
verticalShift = 420;
width = 60;
};
};
},
{
layerId = "EF8420CB-322A-4DAC-B980-DA6E6912705F";
paths = (
{
closed = 1;
nodes = (
"287 408 OFFCURVE",
"348 470 OFFCURVE",
"348 564 CURVE SMOOTH",
"348 657 OFFCURVE",
"287 719 OFFCURVE",
"196 719 CURVE SMOOTH",
"105 719 OFFCURVE",
"45 657 OFFCURVE",
"45 564 CURVE SMOOTH",
"45 470 OFFCURVE",
"105 408 OFFCURVE",
"196 408 CURVE SMOOTH"
);
},
{
closed = 1;
nodes = (
"162 487 OFFCURVE",
"140 517 OFFCURVE",
"140 564 CURVE SMOOTH",
"140 610 OFFCURVE",
"162 640 OFFCURVE",
"196 640 CURVE SMOOTH",
"230 640 OFFCURVE",
"253 610 OFFCURVE",
"253 564 CURVE SMOOTH",
"253 517 OFFCURVE",
"230 487 OFFCURVE",
"196 487 CURVE SMOOTH"
);
}
);
width = 393;
userData = {
RMXScaler = {
height = 60;
verticalShift = 415;
weight = -80;
width = 60;
};
};
}
);
unicode = 00BA;
userData = {
RMXScaler = {
source = o;
};
};
},
{
glyphname = zero;
layers = (
{
anchors = (
{
name = slash;
position = "{331, 354}";
}
);
layerId = "EF8420CB-322A-4DAC-B980-DA6E6912705F";
paths = (
{
closed = 1;
nodes = (
"504 -12 OFFCURVE",
"618 134 OFFCURVE",
"618 354 CURVE SMOOTH",
"618 573 OFFCURVE",
"504 719 OFFCURVE",
"333 719 CURVE SMOOTH",
"160 719 OFFCURVE",
"44 573 OFFCURVE",
"44 354 CURVE SMOOTH",
"44 134 OFFCURVE",
"160 -12 OFFCURVE",
"333 -12 CURVE SMOOTH"
);
},
{
closed = 1;
nodes = (
"264 132 OFFCURVE",
"218 221 OFFCURVE",
"218 354 CURVE SMOOTH",
"218 487 OFFCURVE",
"264 575 OFFCURVE",
"333 575 CURVE SMOOTH",
"400 575 OFFCURVE",
"444 487 OFFCURVE",
"444 354 CURVE SMOOTH",
"444 221 OFFCURVE",
"400 132 OFFCURVE",
"333 132 CURVE SMOOTH"
);
}
);
width = 662;
},
{
anchors = (
{
name = slash;
position = "{303, 365}";
}
);
layerId = "D9DFF065-DDB2-4B0F-A853-E0DAE751FB65";
paths = (
{
closed = 1;
nodes = (
"438 -12 OFFCURVE",
"526 132 OFFCURVE",
"526 349 CURVE SMOOTH",
"526 567 OFFCURVE",
"438 712 OFFCURVE",
"305 712 CURVE SMOOTH",
"170 712 OFFCURVE",
"80 567 OFFCURVE",
"80 349 CURVE SMOOTH",
"80 132 OFFCURVE",
"170 -12 OFFCURVE",
"305 -12 CURVE SMOOTH"
);
},
{
closed = 1;
nodes = (
"183 9 OFFCURVE",
"102 145 OFFCURVE",
"102 349 CURVE SMOOTH",
"102 554 OFFCURVE",
"183 691 OFFCURVE",
"305 691 CURVE SMOOTH",
"424 691 OFFCURVE",
"504 554 OFFCURVE",
"504 349 CURVE SMOOTH",
"504 145 OFFCURVE",
"424 9 OFFCURVE",
"305 9 CURVE SMOOTH"
);
}
);
width = 606;
}
);
unicode = 0030;
},
{
glyphname = one;
layers = (
{
layerId = "D9DFF065-DDB2-4B0F-A853-E0DAE751FB65";
paths = (
{
closed = 1;
nodes = (
"412 0 LINE",
"412 19 LINE",
"255 19 LINE",
"255 700 LINE",
"234 700 LINE",
"41 636 LINE",
"47 619 LINE",
"234 677 LINE",
"234 19 LINE",
"52 19 LINE",
"52 0 LINE"
);
}
);
width = 441;
},
{
layerId = "EF8420CB-322A-4DAC-B980-DA6E6912705F";
paths = (
{
closed = 1;
nodes = (
"532 0 LINE",
"532 144 LINE",
"387 144 LINE",
"387 707 LINE",
"214 707 LINE",
"36 634 LINE",
"63 501 LINE",
"214 557 LINE",
"214 144 LINE",
"46 144 LINE",
"46 0 LINE"
);
}
);
width = 544;
}
);
unicode = 0031;
},
{
glyphname = two;
layers = (
{
layerId = "D9DFF065-DDB2-4B0F-A853-E0DAE751FB65";
paths = (
{
closed = 1;
nodes = (
"468 0 LINE",
"468 20 LINE",
"78 20 LINE",
"346 310 OFFCURVE",
"424 429 OFFCURVE",
"424 536 CURVE SMOOTH",
"424 642 OFFCURVE",
"347 712 OFFCURVE",
"239 712 CURVE SMOOTH",
"173 712 OFFCURVE",
"98 686 OFFCURVE",
"41 650 CURVE",
"47 633 LINE",
"101 668 OFFCURVE",
"174 691 OFFCURVE",
"236 691 CURVE SMOOTH",
"335 691 OFFCURVE",
"402 630 OFFCURVE",
"402 536 CURVE SMOOTH",
"402 432 OFFCURVE",
"322 314 OFFCURVE",
"48 17 CURVE",
"48 0 LINE"
);
}
);
width = 511;
},
{
layerId = "EF8420CB-322A-4DAC-B980-DA6E6912705F";
paths = (
{
closed = 1;
nodes = (
"518 0 LINE",
"518 144 LINE",
"272 144 LINE",
"440 266 OFFCURVE",
"507 411 OFFCURVE",
"507 513 CURVE SMOOTH",
"507 637 OFFCURVE",
"409 719 OFFCURVE",
"254 719 CURVE SMOOTH",
"168 719 OFFCURVE",
"89 694 OFFCURVE",
"31 657 CURVE",
"58 521 LINE",
"121 557 OFFCURVE",
"167 575 OFFCURVE",
"221 575 CURVE SMOOTH",
"290 575 OFFCURVE",
"334 545 OFFCURVE",
"334 488 CURVE SMOOTH",
"334 395 OFFCURVE",
"216 244 OFFCURVE",
"38 108 CURVE",
"38 0 LINE"
);
}
);
width = 564;
}
);
unicode = 0032;
},
{
glyphname = three;
layers = (
{
layerId = "EF8420CB-322A-4DAC-B980-DA6E6912705F";
paths = (
{
closed = 1;
nodes = (
"428 -12 OFFCURVE",
"539 66 OFFCURVE",
"539 187 CURVE SMOOTH",
"539 279 OFFCURVE",
"474 350 OFFCURVE",
"377 361 CURVE",
"377 363 LINE",
"452 383 OFFCURVE",
"502 448 OFFCURVE",
"502 529 CURVE SMOOTH",
"502 642 OFFCURVE",
"402 719 OFFCURVE",
"259 719 CURVE SMOOTH",
"175 719 OFFCURVE",
"97 692 OFFCURVE",
"47 659 CURVE",
"74 523 LINE",
"123 553 OFFCURVE",
"188 575 OFFCURVE",
"240 575 CURVE SMOOTH",
"308 575 OFFCURVE",
"329 537 OFFCURVE",
"329 507 CURVE SMOOTH",
"329 454 OFFCURVE",
"263 418 OFFCURVE",
"165 418 CURVE",
"165 288 LINE",
"286 288 OFFCURVE",
"366 253 OFFCURVE",
"366 200 CURVE SMOOTH",
"366 164 OFFCURVE",
"329 132 OFFCURVE",
"248 132 CURVE SMOOTH",
"185 132 OFFCURVE",
"108 151 OFFCURVE",
"57 177 CURVE",
"29 41 LINE",
"89 11 OFFCURVE",
"177 -12 OFFCURVE",
"265 -12 CURVE SMOOTH"
);
}
);
width = 574;
},
{
layerId = "D9DFF065-DDB2-4B0F-A853-E0DAE751FB65";
paths = (
{
closed = 1;
nodes = (
"379 -12 OFFCURVE",
"477 40 OFFCURVE",
"477 165 CURVE SMOOTH",
"477 286 OFFCURVE",
"389 347 OFFCURVE",
"258 357 CURVE",
"258 359 LINE",
"367 371 OFFCURVE",
"441 431 OFFCURVE",
"441 535 CURVE SMOOTH",
"441 651 OFFCURVE",
"353 712 OFFCURVE",
"249 712 CURVE SMOOTH",
"188 712 OFFCURVE",
"118 690 OFFCURVE",
"58 642 CURVE",
"64 625 LINE",
"115 665 OFFCURVE",
"175 691 OFFCURVE",
"242 691 CURVE SMOOTH",
"339 691 OFFCURVE",
"419 638 OFFCURVE",
"419 536 CURVE SMOOTH",
"419 424 OFFCURVE",
"320 367 OFFCURVE",
"171 367 CURVE",
"171 347 LINE",
"341 347 OFFCURVE",
"455 295 OFFCURVE",
"455 164 CURVE SMOOTH",
"455 52 OFFCURVE",
"365 9 OFFCURVE",
"254 9 CURVE SMOOTH",
"176 9 OFFCURVE",
"98 31 OFFCURVE",
"49 65 CURVE",
"43 48 LINE",
"94 12 OFFCURVE",
"177 -12 OFFCURVE",
"257 -12 CURVE SMOOTH"
);
}
);
width = 545;
}
);
unicode = 0033;
},
{
glyphname = four;
layers = (
{
layerId = "EF8420CB-322A-4DAC-B980-DA6E6912705F";
paths = (
{
closed = 1;
nodes = (
"595 139 LINE",
"595 279 LINE",
"171 279 LINE",
"171 283 LINE",
"324 495 LINE",
"329 495 LINE",
"329 0 LINE",
"499 0 LINE",
"499 707 LINE",
"336 707 LINE",
"22 278 LINE",
"22 139 LINE"
);
}
);
width = 616;
},
{
layerId = "D9DFF065-DDB2-4B0F-A853-E0DAE751FB65";
paths = (
{
closed = 1;
nodes = (
"549 179 LINE",
"549 198 LINE",
"63 198 LINE",
"63 202 LINE",
"378 675 LINE",
"383 675 LINE",
"383 0 LINE",
"404 0 LINE",
"404 700 LINE",
"371 700 LINE",
"39 198 LINE",
"39 179 LINE"
);
}
);
width = 584;
}
);
unicode = 0034;
},
{
glyphname = five;
layers = (
{
layerId = "EF8420CB-322A-4DAC-B980-DA6E6912705F";
paths = (
{
closed = 1;
nodes = (
"459 -12 OFFCURVE",
"568 82 OFFCURVE",
"568 224 CURVE SMOOTH",
"568 361 OFFCURVE",
"479 453 OFFCURVE",
"345 453 CURVE SMOOTH",
"278 453 OFFCURVE",
"210 432 OFFCURVE",
"167 401 CURVE",
"207 280 LINE",
"234 297 OFFCURVE",
"270 309 OFFCURVE",
"304 309 CURVE SMOOTH",
"360 309 OFFCURVE",
"395 276 OFFCURVE",
"395 221 CURVE SMOOTH",
"395 160 OFFCURVE",
"350 132 OFFCURVE",
"275 132 CURVE SMOOTH",
"212 132 OFFCURVE",
"139 153 OFFCURVE",
"85 185 CURVE",
"58 51 LINE",
"118 13 OFFCURVE",
"212 -12 OFFCURVE",
"297 -12 CURVE SMOOTH"
);
},
{
closed = 1;
nodes = (
"207 280 LINE",
"255 395 LINE",
"260 563 LINE",
"516 563 LINE",
"516 707 LINE",
"88 707 LINE",
"82 280 LINE"
);
}
);
width = 604;
},
{
layerId = "D9DFF065-DDB2-4B0F-A853-E0DAE751FB65";
paths = (
{
closed = 1;
nodes = (
"408 -12 OFFCURVE",
"496 73 OFFCURVE",
"496 202 CURVE SMOOTH",
"496 330 OFFCURVE",
"411 416 OFFCURVE",
"280 416 CURVE SMOOTH",
"225 416 OFFCURVE",
"169 402 OFFCURVE",
"112 364 CURVE",
"110 347 LINE",
"163 376 OFFCURVE",
"221 395 OFFCURVE",
"279 395 CURVE SMOOTH",
"398 395 OFFCURVE",
"474 317 OFFCURVE",
"474 202 CURVE SMOOTH",
"474 85 OFFCURVE",
"394 9 OFFCURVE",
"279 9 CURVE SMOOTH",
"216 9 OFFCURVE",
"141 31 OFFCURVE",
"80 65 CURVE",
"74 48 LINE",
"133 12 OFFCURVE",
"215 -12 OFFCURVE",
"282 -12 CURVE SMOOTH"
);
},
{
closed = 1;
nodes = (
"110 347 LINE",
"112 359 LINE",
"118 680 LINE",
"452 680 LINE",
"452 700 LINE",
"99 700 LINE",
"93 347 LINE"
);
}
);
width = 556;
}
);
unicode = 0035;
},
{
glyphname = six;
layers = (
{
layerId = "D9DFF065-DDB2-4B0F-A853-E0DAE751FB65";
paths = (
{
closed = 1;
nodes = (
"432 -12 OFFCURVE",
"516 74 OFFCURVE",
"516 202 CURVE SMOOTH",
"516 332 OFFCURVE",
"434 418 OFFCURVE",
"316 418 CURVE SMOOTH",
"232 418 OFFCURVE",
"143 375 OFFCURVE",
"90 310 CURVE",
"90 294 LINE",
"139 356 OFFCURVE",
"226 397 OFFCURVE",
"307 397 CURVE SMOOTH",
"419 397 OFFCURVE",
"493 319 OFFCURVE",
"493 203 CURVE SMOOTH",
"493 87 OFFCURVE",
"417 9 OFFCURVE",
"313 9 CURVE SMOOTH",
"181 9 OFFCURVE",
"100 136 OFFCURVE",
"100 327 CURVE SMOOTH",
"100 541 OFFCURVE",
"190 683 OFFCURVE",
"329 683 CURVE SMOOTH",
"377 683 OFFCURVE",
"430 666 OFFCURVE",
"463 640 CURVE",
"469 657 LINE",
"434 685 OFFCURVE",
"376 704 OFFCURVE",
"324 704 CURVE SMOOTH",
"176 704 OFFCURVE",
"78 554 OFFCURVE",
"78 328 CURVE SMOOTH",
"78 124 OFFCURVE",
"169 -12 OFFCURVE",
"315 -12 CURVE SMOOTH"
);
}
);
width = 577;
},
{
layerId = "EF8420CB-322A-4DAC-B980-DA6E6912705F";
paths = (
{
closed = 1;
nodes = (
"475 -12 OFFCURVE",
"580 86 OFFCURVE",
"580 234 CURVE SMOOTH",
"580 375 OFFCURVE",
"494 469 OFFCURVE",
"372 469 CURVE SMOOTH",
"288 469 OFFCURVE",
"200 424 OFFCURVE",
"147 337 CURVE",
"199 256 LINE",
"224 297 OFFCURVE",
"272 325 OFFCURVE",
"320 325 CURVE SMOOTH",
"377 325 OFFCURVE",
"417 287 OFFCURVE",
"417 226 CURVE SMOOTH",
"417 174 OFFCURVE",
"388 132 OFFCURVE",
"330 132 CURVE SMOOTH",
"265 132 OFFCURVE",
"222 182 OFFCURVE",
"222 331 CURVE SMOOTH",
"222 480 OFFCURVE",
"249 575 OFFCURVE",
"369 575 CURVE SMOOTH",
"414 575 OFFCURVE",
"450 561 OFFCURVE",
"484 538 CURVE",
"511 677 LINE",
"468 702 OFFCURVE",
"410 719 OFFCURVE",
"349 719 CURVE SMOOTH",
"162 719 OFFCURVE",
"44 566 OFFCURVE",
"44 336 CURVE SMOOTH",
"44 127 OFFCURVE",
"154 -12 OFFCURVE",
"327 -12 CURVE SMOOTH"
);
}
);
width = 611;
}
);
unicode = 0036;
},
{
glyphname = seven;
layers = (
{
layerId = "EF8420CB-322A-4DAC-B980-DA6E6912705F";
paths = (
{
closed = 1;
nodes = (
"308 0 LINE",
"517 633 LINE",
"517 707 LINE",
"12 707 LINE",
"12 567 LINE",
"336 567 LINE",
"149 0 LINE"
);
}
);
width = 534;
},
{
layerId = "D9DFF065-DDB2-4B0F-A853-E0DAE751FB65";
paths = (
{
closed = 1;
nodes = (
"225 0 LINE",
"467 684 LINE",
"467 700 LINE",
"30 700 LINE",
"30 678 LINE",
"441 678 LINE",
"199 0 LINE"
);
}
);
width = 508;
}
);
unicode = 0037;
},
{
glyphname = eight;
layers = (
{
layerId = "EF8420CB-322A-4DAC-B980-DA6E6912705F";
paths = (
{
closed = 1;
nodes = (
"472 -12 OFFCURVE",
"569 74 OFFCURVE",
"569 197 CURVE SMOOTH",
"569 424 OFFCURVE",
"232 401 OFFCURVE",
"232 520 CURVE SMOOTH",
"232 558 OFFCURVE",
"267 579 OFFCURVE",
"309 579 CURVE SMOOTH",
"343 579 OFFCURVE",
"382 565 OFFCURVE",
"382 519 CURVE SMOOTH",
"382 474 OFFCURVE",
"345 431 OFFCURVE",
"297 425 CURVE",
"415 365 LINE",
"495 395 OFFCURVE",
"542 457 OFFCURVE",
"542 534 CURVE SMOOTH",
"542 640 OFFCURVE",
"453 719 OFFCURVE",
"311 719 CURVE SMOOTH",
"166 719 OFFCURVE",
"65 636 OFFCURVE",
"65 510 CURVE SMOOTH",
"65 282 OFFCURVE",
"402 311 OFFCURVE",
"402 190 CURVE SMOOTH",
"402 152 OFFCURVE",
"368 128 OFFCURVE",
"312 128 CURVE SMOOTH",
"270 128 OFFCURVE",
"208 141 OFFCURVE",
"208 200 CURVE SMOOTH",
"208 247 OFFCURVE",
"249 296 OFFCURVE",
"305 300 CURVE",
"206 363 LINE",
"105 344 OFFCURVE",
"41 272 OFFCURVE",
"41 184 CURVE SMOOTH",
"41 66 OFFCURVE",
"156 -12 OFFCURVE",
"310 -12 CURVE SMOOTH"
);
}
);
width = 610;
},
{
layerId = "D9DFF065-DDB2-4B0F-A853-E0DAE751FB65";
paths = (
{
closed = 1;
nodes = (
"434 -12 OFFCURVE",
"521 62 OFFCURVE",
"521 174 CURVE SMOOTH",
"521 416 OFFCURVE",
"115 293 OFFCURVE",
"115 523 CURVE SMOOTH",
"115 618 OFFCURVE",
"184 683 OFFCURVE",
"290 683 CURVE SMOOTH",
"393 683 OFFCURVE",
"462 620 OFFCURVE",
"462 534 CURVE SMOOTH",
"462 445 OFFCURVE",
"386 380 OFFCURVE",
"293 359 CURVE",
"317 350 LINE",
"405 371 OFFCURVE",
"484 437 OFFCURVE",
"484 534 CURVE SMOOTH",
"484 632 OFFCURVE",
"406 704 OFFCURVE",
"290 704 CURVE SMOOTH",
"171 704 OFFCURVE",
"92 630 OFFCURVE",
"92 521 CURVE SMOOTH",
"92 274 OFFCURVE",
"499 399 OFFCURVE",
"499 173 CURVE SMOOTH",
"499 74 OFFCURVE",
"421 9 OFFCURVE",
"299 9 CURVE SMOOTH",
"177 9 OFFCURVE",
"93 75 OFFCURVE",
"93 169 CURVE SMOOTH",
"93 252 OFFCURVE",
"160 327 OFFCURVE",
"294 348 CURVE",
"272 360 LINE",
"158 348 OFFCURVE",
"72 271 OFFCURVE",
"72 169 CURVE SMOOTH",
"72 63 OFFCURVE",
"163 -12 OFFCURVE",
"299 -12 CURVE SMOOTH"
);
}
);
width = 586;
}
);
unicode = 0038;
},
{
glyphname = zero.dnom;
layers = (
{
layerId = "EF8420CB-322A-4DAC-B980-DA6E6912705F";
paths = (
{
closed = 1;
nodes = (
"320 -7 OFFCURVE",
"393 81 OFFCURVE",
"393 213 CURVE SMOOTH",
"393 345 OFFCURVE",
"320 433 OFFCURVE",
"210 433 CURVE SMOOTH",
"99 433 OFFCURVE",
"24 345 OFFCURVE",
"24 213 CURVE SMOOTH",
"24 81 OFFCURVE",
"99 -7 OFFCURVE",
"210 -7 CURVE SMOOTH"
);
},
{
closed = 1;
nodes = (
"179 103 OFFCURVE",
"158 147 OFFCURVE",
"158 213 CURVE SMOOTH",
"158 279 OFFCURVE",
"179 322 OFFCURVE",
"210 322 CURVE SMOOTH",
"240 322 OFFCURVE",
"259 279 OFFCURVE",
"259 213 CURVE SMOOTH",
"259 147 OFFCURVE",
"240 103 OFFCURVE",
"210 103 CURVE SMOOTH"
);
}
);
width = 417;
userData = {
RMXScaler = {
height = 60;
weight = -40;
width = 60;
};
};
},
{
layerId = "D9DFF065-DDB2-4B0F-A853-E0DAE751FB65";
paths = (
{
closed = 1;
nodes = (
"271 -7 OFFCURVE",
"325 79 OFFCURVE",
"325 210 CURVE SMOOTH",
"325 341 OFFCURVE",
"271 428 OFFCURVE",
"189 428 CURVE SMOOTH",
"106 428 OFFCURVE",
"51 341 OFFCURVE",
"51 210 CURVE SMOOTH",
"51 79 OFFCURVE",
"106 -7 OFFCURVE",
"189 -7 CURVE SMOOTH"
);
},
{
closed = 1;
nodes = (
"119 12 OFFCURVE",
"72 91 OFFCURVE",
"72 210 CURVE SMOOTH",
"72 329 OFFCURVE",
"119 409 OFFCURVE",
"189 409 CURVE SMOOTH",
"258 409 OFFCURVE",
"304 329 OFFCURVE",
"304 210 CURVE SMOOTH",
"304 91 OFFCURVE",
"258 12 OFFCURVE",
"189 12 CURVE SMOOTH"
);
}
);
width = 377;
userData = {
RMXScaler = {
height = 60;
width = 60;
};
};
}
);
userData = {
RMXScaler = {
source = zero;
};
};
},
{
glyphname = one.dnom;
layers = (
{
layerId = "D9DFF065-DDB2-4B0F-A853-E0DAE751FB65";
paths = (
{
closed = 1;
nodes = (
"244 0 LINE",
"244 18 LINE",
"150 18 LINE",
"150 420 LINE",
"130 420 LINE",
"15 381 LINE",
"18 365 LINE",
"130 400 LINE",
"130 18 LINE",
"22 18 LINE",
"22 0 LINE"
);
}
);
width = 241;
userData = {
RMXScaler = {
height = 60;
width = 60;
};
};
},
{
layerId = "EF8420CB-322A-4DAC-B980-DA6E6912705F";
paths = (
{
closed = 1;
nodes = (
"353 0 LINE",
"353 111 LINE",
"268 111 LINE",
"268 426 LINE",
"135 426 LINE",
"31 380 LINE",
"44 278 LINE",
"135 311 LINE",
"135 111 LINE",
"37 111 LINE",
"37 0 LINE"
);
}
);
width = 355;
userData = {
RMXScaler = {
height = 60;
weight = -40;
width = 60;
};
};
}
);
userData = {
RMXScaler = {
source = one;
};
};
},
{
glyphname = two.dnom;
layers = (
{
layerId = "D9DFF065-DDB2-4B0F-A853-E0DAE751FB65";
paths = (
{
closed = 1;
nodes = (
"275 0 LINE",
"275 18 LINE",
"49 18 LINE",
"204 184 OFFCURVE",
"251 256 OFFCURVE",
"251 320 CURVE SMOOTH",
"251 385 OFFCURVE",
"203 428 OFFCURVE",
"136 428 CURVE SMOOTH",
"95 428 OFFCURVE",
"50 412 OFFCURVE",
"16 390 CURVE",
"19 374 LINE",
"51 395 OFFCURVE",
"96 409 OFFCURVE",
"133 409 CURVE SMOOTH",
"191 409 OFFCURVE",
"230 374 OFFCURVE",
"230 319 CURVE SMOOTH",
"230 257 OFFCURVE",
"180 185 OFFCURVE",
"20 15 CURVE",
"20 0 LINE"
);
}
);
width = 300;
userData = {
RMXScaler = {
height = 60;
width = 60;
};
};
},
{
layerId = "EF8420CB-322A-4DAC-B980-DA6E6912705F";
paths = (
{
closed = 1;
nodes = (
"327 0 LINE",
"327 111 LINE",
"207 111 LINE",
"289 151 OFFCURVE",
"327 243 OFFCURVE",
"327 303 CURVE SMOOTH",
"327 381 OFFCURVE",
"264 433 OFFCURVE",
"162 433 CURVE SMOOTH",
"106 433 OFFCURVE",
"58 418 OFFCURVE",
"23 396 CURVE",
"36 291 LINE",
"75 313 OFFCURVE",
"105 322 OFFCURVE",
"136 322 CURVE SMOOTH",
"172 322 OFFCURVE",
"193 310 OFFCURVE",
"193 283 CURVE SMOOTH",
"193 230 OFFCURVE",
"115 133 OFFCURVE",
"27 83 CURVE",
"27 0 LINE"
);
}
);
width = 367;
userData = {
RMXScaler = {
height = 60;
weight = -40;
width = 60;
};
};
}
);
userData = {
RMXScaler = {
source = two;
};
};
},
{
glyphname = three.dnom;
layers = (
{
layerId = "EF8420CB-322A-4DAC-B980-DA6E6912705F";
paths = (
{
closed = 1;
nodes = (
"280 -7 OFFCURVE",
"346 45 OFFCURVE",
"346 116 CURVE SMOOTH",
"346 166 OFFCURVE",
"311 211 OFFCURVE",
"260 217 CURVE",
"260 219 LINE",
"298 232 OFFCURVE",
"323 272 OFFCURVE",
"323 316 CURVE SMOOTH",
"323 383 OFFCURVE",
"265 433 OFFCURVE",
"172 433 CURVE SMOOTH",
"123 433 OFFCURVE",
"67 418 OFFCURVE",
"36 399 CURVE",
"49 294 LINE",
"81 311 OFFCURVE",
"122 322 OFFCURVE",
"148 322 CURVE SMOOTH",
"175 322 OFFCURVE",
"190 311 OFFCURVE",
"190 299 CURVE SMOOTH",
"190 278 OFFCURVE",
"157 261 OFFCURVE",
"108 261 CURVE",
"108 161 LINE",
"171 161 OFFCURVE",
"213 144 OFFCURVE",
"213 127 CURVE SMOOTH",
"213 116 OFFCURVE",
"190 103 OFFCURVE",
"152 103 CURVE SMOOTH",
"119 103 OFFCURVE",
"73 113 OFFCURVE",
"39 128 CURVE",
"25 23 LINE",
"65 5 OFFCURVE",
"125 -7 OFFCURVE",
"175 -7 CURVE SMOOTH"
);
}
);
width = 369;
userData = {
RMXScaler = {
height = 60;
weight = -40;
width = 60;
};
};
},
{
layerId = "D9DFF065-DDB2-4B0F-A853-E0DAE751FB65";
paths = (
{
closed = 1;
nodes = (
"224 -7 OFFCURVE",
"283 25 OFFCURVE",
"283 100 CURVE SMOOTH",
"283 171 OFFCURVE",
"232 208 OFFCURVE",
"155 214 CURVE",
"155 216 LINE",
"218 223 OFFCURVE",
"262 259 OFFCURVE",
"262 321 CURVE SMOOTH",
"262 390 OFFCURVE",
"208 428 OFFCURVE",
"144 428 CURVE SMOOTH",
"107 428 OFFCURVE",
"64 414 OFFCURVE",
"28 386 CURVE",
"31 370 LINE",
"61 393 OFFCURVE",
"99 409 OFFCURVE",
"139 409 CURVE SMOOTH",
"195 409 OFFCURVE",
"241 378 OFFCURVE",
"241 320 CURVE SMOOTH",
"241 256 OFFCURVE",
"183 223 OFFCURVE",
"96 223 CURVE",
"96 205 LINE",
"196 205 OFFCURVE",
"262 175 OFFCURVE",
"262 100 CURVE SMOOTH",
"262 37 OFFCURVE",
"210 12 OFFCURVE",
"146 12 CURVE SMOOTH",
"100 12 OFFCURVE",
"51 25 OFFCURVE",
"22 45 CURVE",
"19 28 LINE",
"50 7 OFFCURVE",
"101 -7 OFFCURVE",
"149 -7 CURVE SMOOTH"
);
}
);
width = 329;
userData = {
RMXScaler = {
height = 60;
width = 60;
};
};
}
);
userData = {
RMXScaler = {
source = three;
};
};
},
{
glyphname = four.dnom;
layers = (
{
layerId = "EF8420CB-322A-4DAC-B980-DA6E6912705F";
paths = (
{
closed = 1;
nodes = (
"364 76 LINE",
"364 183 LINE",
"118 183 LINE",
"118 186 LINE",
"182 274 LINE",
"185 274 LINE",
"185 0 LINE",
"316 0 LINE",
"316 426 LINE",
"193 426 LINE",
"8 182 LINE",
"8 76 LINE"
);
}
);
width = 390;
userData = {
RMXScaler = {
height = 60;
weight = -40;
width = 60;
};
};
},
{
layerId = "D9DFF065-DDB2-4B0F-A853-E0DAE751FB65";
paths = (
{
closed = 1;
nodes = (
"322 105 LINE",
"322 123 LINE",
"34 123 LINE",
"34 125 LINE",
"215 397 LINE",
"218 397 LINE",
"218 0 LINE",
"238 0 LINE",
"238 420 LINE",
"211 420 LINE",
"13 123 LINE",
"13 105 LINE"
);
}
);
width = 335;
userData = {
RMXScaler = {
height = 60;
width = 60;
};
};
}
);
userData = {
RMXScaler = {
source = four;
};
};
},
{
glyphname = five.dnom;
layers = (
{
layerId = "EF8420CB-322A-4DAC-B980-DA6E6912705F";
paths = (
{
closed = 1;
nodes = (
"296 -7 OFFCURVE",
"365 51 OFFCURVE",
"365 139 CURVE SMOOTH",
"365 223 OFFCURVE",
"311 279 OFFCURVE",
"230 279 CURVE SMOOTH",
"187 279 OFFCURVE",
"144 265 OFFCURVE",
"121 248 CURVE",
"153 155 LINE",
"165 163 OFFCURVE",
"182 169 OFFCURVE",
"198 169 CURVE SMOOTH",
"219 169 OFFCURVE",
"232 158 OFFCURVE",
"232 136 CURVE SMOOTH",
"232 111 OFFCURVE",
"212 103 OFFCURVE",
"175 103 CURVE SMOOTH",
"137 103 OFFCURVE",
"86 116 OFFCURVE",
"55 134 CURVE",
"42 31 LINE",
"78 8 OFFCURVE",
"137 -7 OFFCURVE",
"191 -7 CURVE SMOOTH"
);
},
{
closed = 1;
nodes = (
"153 155 LINE",
"191 244 LINE",
"194 315 LINE",
"332 315 LINE",
"332 426 LINE",
"61 426 LINE",
"57 155 LINE"
);
}
);
width = 392;
userData = {
RMXScaler = {
height = 60;
weight = -40;
width = 60;
};
};
},
{
layerId = "D9DFF065-DDB2-4B0F-A853-E0DAE751FB65";
paths = (
{
closed = 1;
nodes = (
"255 -7 OFFCURVE",
"309 44 OFFCURVE",
"309 122 CURVE SMOOTH",
"309 200 OFFCURVE",
"258 251 OFFCURVE",
"179 251 CURVE SMOOTH",
"145 251 OFFCURVE",
"111 243 OFFCURVE",
"77 220 CURVE",
"78 205 LINE",
"109 222 OFFCURVE",
"143 233 OFFCURVE",
"176 233 CURVE SMOOTH",
"244 233 OFFCURVE",
"288 188 OFFCURVE",
"288 122 CURVE SMOOTH",
"288 55 OFFCURVE",
"242 12 OFFCURVE",
"175 12 CURVE SMOOTH",
"137 12 OFFCURVE",
"90 25 OFFCURVE",
"54 45 CURVE",
"51 29 LINE",
"86 7 OFFCURVE",
"136 -7 OFFCURVE",
"177 -7 CURVE SMOOTH"
);
},
{
closed = 1;
nodes = (
"78 205 LINE",
"82 217 LINE",
"86 402 LINE",
"282 402 LINE",
"282 420 LINE",
"66 420 LINE",
"63 205 LINE"
);
}
);
width = 344;
userData = {
RMXScaler = {
height = 60;
width = 60;
};
};
}
);
userData = {
RMXScaler = {
source = five;
};
};
},
{
glyphname = six.dnom;
layers = (
{
layerId = "D9DFF065-DDB2-4B0F-A853-E0DAE751FB65";
paths = (
{
closed = 1;
nodes = (
"266 -7 OFFCURVE",
"318 45 OFFCURVE",
"318 123 CURVE SMOOTH",
"318 201 OFFCURVE",
"268 253 OFFCURVE",
"197 253 CURVE SMOOTH",
"147 253 OFFCURVE",
"94 228 OFFCURVE",
"62 187 CURVE",
"65 174 LINE",
"93 211 OFFCURVE",
"143 235 OFFCURVE",
"190 235 CURVE SMOOTH",
"254 235 OFFCURVE",
"297 190 OFFCURVE",
"297 123 CURVE SMOOTH",
"297 57 OFFCURVE",
"254 12 OFFCURVE",
"194 12 CURVE SMOOTH",
"118 12 OFFCURVE",
"71 84 OFFCURVE",
"71 196 CURVE SMOOTH",
"71 321 OFFCURVE",
"122 404 OFFCURVE",
"204 404 CURVE SMOOTH",
"233 404 OFFCURVE",
"266 394 OFFCURVE",
"286 379 CURVE",
"288 395 LINE",
"267 412 OFFCURVE",
"232 423 OFFCURVE",
"201 423 CURVE SMOOTH",
"110 423 OFFCURVE",
"50 333 OFFCURVE",
"50 197 CURVE SMOOTH",
"50 75 OFFCURVE",
"106 -7 OFFCURVE",
"195 -7 CURVE SMOOTH"
);
}
);
width = 355;
userData = {
RMXScaler = {
height = 60;
width = 60;
};
};
},
{
layerId = "EF8420CB-322A-4DAC-B980-DA6E6912705F";
paths = (
{
closed = 1;
nodes = (
"298 -7 OFFCURVE",
"365 54 OFFCURVE",
"365 147 CURVE SMOOTH",
"365 233 OFFCURVE",
"312 291 OFFCURVE",
"238 291 CURVE SMOOTH",
"188 291 OFFCURVE",
"135 264 OFFCURVE",
"104 207 CURVE",
"145 146 LINE",
"155 167 OFFCURVE",
"176 181 OFFCURVE",
"199 181 CURVE SMOOTH",
"222 181 OFFCURVE",
"240 166 OFFCURVE",
"240 138 CURVE SMOOTH",
"240 121 OFFCURVE",
"231 103 OFFCURVE",
"206 103 CURVE SMOOTH",
"180 103 OFFCURVE",
"161 118 OFFCURVE",
"161 199 CURVE SMOOTH",
"161 276 OFFCURVE",
"165 324 OFFCURVE",
"233 324 CURVE SMOOTH",
"260 324 OFFCURVE",
"285 316 OFFCURVE",
"306 303 CURVE",
"319 410 LINE",
"292 425 OFFCURVE",
"257 434 OFFCURVE",
"218 434 CURVE SMOOTH",
"99 434 OFFCURVE",
"24 342 OFFCURVE",
"24 203 CURVE SMOOTH",
"24 77 OFFCURVE",
"94 -7 OFFCURVE",
"203 -7 CURVE SMOOTH"
);
}
);
width = 387;
userData = {
RMXScaler = {
height = 60;
weight = -40;
width = 60;
};
};
}
);
userData = {
RMXScaler = {
source = six;
};
};
},
{
glyphname = seven.dnom;
layers = (
{
layerId = "EF8420CB-322A-4DAC-B980-DA6E6912705F";
paths = (
{
closed = 1;
nodes = (
"193 0 LINE",
"312 370 LINE",
"312 426 LINE",
"-4 426 LINE",
"-4 319 LINE",
"173 319 LINE",
"72 0 LINE"
);
}
);
width = 319;
userData = {
RMXScaler = {
height = 60;
weight = -40;
width = 60;
};
};
},
{
layerId = "D9DFF065-DDB2-4B0F-A853-E0DAE751FB65";
paths = (
{
closed = 1;
nodes = (
"118 0 LINE",
"262 408 LINE",
"262 420 LINE",
"-4 420 LINE",
"-4 401 LINE",
"238 401 LINE",
"96 0 LINE"
);
}
);
width = 277;
userData = {
RMXScaler = {
height = 60;
width = 60;
};
};
}
);
userData = {
RMXScaler = {
source = seven;
};
};
},
{
glyphname = eight.dnom;
layers = (
{
layerId = "EF8420CB-322A-4DAC-B980-DA6E6912705F";
paths = (
{
closed = 1;
nodes = (
"295 -7 OFFCURVE",
"354 46 OFFCURVE",
"354 121 CURVE SMOOTH",
"354 255 OFFCURVE",
"161 255 OFFCURVE",
"161 312 CURVE SMOOTH",
"161 327 OFFCURVE",
"178 334 OFFCURVE",
"194 334 CURVE SMOOTH",
"206 334 OFFCURVE",
"225 332 OFFCURVE",
"225 309 CURVE SMOOTH",
"225 288 OFFCURVE",
"208 265 OFFCURVE",
"185 264 CURVE",
"268 221 LINE",
"315 240 OFFCURVE",
"339 277 OFFCURVE",
"339 320 CURVE SMOOTH",
"339 385 OFFCURVE",
"284 433 OFFCURVE",
"196 433 CURVE SMOOTH",
"105 433 OFFCURVE",
"42 382 OFFCURVE",
"42 305 CURVE SMOOTH",
"42 170 OFFCURVE",
"235 175 OFFCURVE",
"235 116 CURVE SMOOTH",
"235 101 OFFCURVE",
"220 92 OFFCURVE",
"195 92 CURVE SMOOTH",
"181 92 OFFCURVE",
"146 93 OFFCURVE",
"146 124 CURVE SMOOTH",
"146 148 OFFCURVE",
"167 174 OFFCURVE",
"191 174 CURVE",
"121 218 LINE",
"63 206 OFFCURVE",
"27 163 OFFCURVE",
"27 112 CURVE SMOOTH",
"27 40 OFFCURVE",
"99 -7 OFFCURVE",
"194 -7 CURVE SMOOTH"
);
}
);
width = 383;
userData = {
RMXScaler = {
height = 60;
weight = -50;
width = 60;
};
};
},
{
layerId = "D9DFF065-DDB2-4B0F-A853-E0DAE751FB65";
paths = (
{
closed = 1;
nodes = (
"270 -7 OFFCURVE",
"322 38 OFFCURVE",
"322 106 CURVE SMOOTH",
"322 250 OFFCURVE",
"82 181 OFFCURVE",
"82 314 CURVE SMOOTH",
"82 368 OFFCURVE",
"122 404 OFFCURVE",
"182 404 CURVE SMOOTH",
"241 404 OFFCURVE",
"280 369 OFFCURVE",
"280 320 CURVE SMOOTH",
"280 268 OFFCURVE",
"237 231 OFFCURVE",
"183 219 CURVE",
"203 211 LINE",
"255 224 OFFCURVE",
"301 263 OFFCURVE",
"301 320 CURVE SMOOTH",
"301 380 OFFCURVE",
"253 423 OFFCURVE",
"182 423 CURVE SMOOTH",
"110 423 OFFCURVE",
"61 378 OFFCURVE",
"61 312 CURVE SMOOTH",
"61 165 OFFCURVE",
"302 235 OFFCURVE",
"302 105 CURVE SMOOTH",
"302 48 OFFCURVE",
"257 12 OFFCURVE",
"187 12 CURVE SMOOTH",
"118 12 OFFCURVE",
"69 48 OFFCURVE",
"69 103 CURVE SMOOTH",
"69 151 OFFCURVE",
"108 195 OFFCURVE",
"184 206 CURVE",
"167 216 LINE",
"99 209 OFFCURVE",
"49 163 OFFCURVE",
"49 102 CURVE SMOOTH",
"49 38 OFFCURVE",
"105 -7 OFFCURVE",
"187 -7 CURVE SMOOTH"
);
}
);
width = 367;
userData = {
RMXScaler = {
height = 60;
width = 60;
};
};
}
);
userData = {
RMXScaler = {
source = eight;
};
};
},
{
glyphname = fraction;
layers = (
{
layerId = "D9DFF065-DDB2-4B0F-A853-E0DAE751FB65";
paths = (
{
closed = 1;
nodes = (
"-130 0 LINE",
"-109 0 LINE",
"342 700 LINE",
"321 700 LINE"
);
}
);
width = 212;
},
{
layerId = "EF8420CB-322A-4DAC-B980-DA6E6912705F";
paths = (
{
closed = 1;
nodes = (
"-88 0 LINE",
"54 0 LINE",
"351 707 LINE",
"211 707 LINE"
);
}
);
width = 263;
}
);
unicode = 2044;
},
{
glyphname = asterisk;
layers = (
{
layerId = "EF8420CB-322A-4DAC-B980-DA6E6912705F";
paths = (
{
closed = 1;
nodes = (
"99 634 LINE",
"46 494 LINE",
"315 412 LINE",
"351 520 LINE"
);
},
{
closed = 1;
nodes = (
"510 494 LINE",
"459 635 LINE",
"207 522 LINE",
"241 412 LINE"
);
},
{
closed = 1;
nodes = (
"80 366 LINE",
"193 269 LINE",
"360 496 LINE",
"271 567 LINE"
);
},
{
closed = 1;
nodes = (
"353 707 LINE",
"203 707 LINE",
"222 429 LINE",
"334 429 LINE"
);
},
{
closed = 1;
nodes = (
"363 268 LINE",
"476 367 LINE",
"287 568 LINE",
"198 497 LINE"
);
}
);
width = 558;
},
{
layerId = "D9DFF065-DDB2-4B0F-A853-E0DAE751FB65";
paths = (
{
closed = 1;
nodes = (
"89 608 LINE",
"80 584 LINE",
"239 529 LINE",
"244 544 LINE"
);
},
{
closed = 1;
nodes = (
"389 584 LINE",
"380 609 LINE",
"224 545 LINE",
"229 529 LINE"
);
},
{
closed = 1;
nodes = (
"130 417 LINE",
"150 402 LINE",
"246 541 LINE",
"233 550 LINE"
);
},
{
closed = 1;
nodes = (
"247 700 LINE",
"221 700 LINE",
"226 532 LINE",
"242 532 LINE"
);
},
{
closed = 1;
nodes = (
"318 402 LINE",
"339 418 LINE",
"237 551 LINE",
"224 542 LINE"
);
}
);
width = 469;
}
);
unicode = 002A;
},
{
glyphname = bullet;
layers = (
{
layerId = "EF8420CB-322A-4DAC-B980-DA6E6912705F";
paths = (
{
closed = 1;
nodes = (
"314 150 OFFCURVE",
"377 216 OFFCURVE",
"377 303 CURVE SMOOTH",
"377 390 OFFCURVE",
"314 458 OFFCURVE",
"224 458 CURVE SMOOTH",
"134 458 OFFCURVE",
"71 390 OFFCURVE",
"71 303 CURVE SMOOTH",
"71 216 OFFCURVE",
"134 150 OFFCURVE",
"224 150 CURVE SMOOTH"
);
}
);
width = 448;
},
{
layerId = "D9DFF065-DDB2-4B0F-A853-E0DAE751FB65";
paths = (
{
closed = 1;
nodes = (
"174 308 OFFCURVE",
"185 319 OFFCURVE",
"185 336 CURVE SMOOTH",
"185 353 OFFCURVE",
"174 364 OFFCURVE",
"157 364 CURVE SMOOTH",
"140 364 OFFCURVE",
"129 353 OFFCURVE",
"129 336 CURVE SMOOTH",
"129 319 OFFCURVE",
"140 308 OFFCURVE",
"157 308 CURVE SMOOTH"
);
}
);
width = 314;
}
);
unicode = 2022;
},
{
glyphname = exclam;
layers = (
{
components = (
{
name = _period;
transform = "{1, 0, 0, 1, 9, 0}";
}
);
layerId = "EF8420CB-322A-4DAC-B980-DA6E6912705F";
paths = (
{
closed = 1;
nodes = (
"254 272 LINE",
"279 707 LINE",
"76 707 LINE",
"101 272 LINE"
);
}
);
width = 359;
},
{
components = (
{
name = _period;
transform = "{1, 0, 0, 1, -6, 0}";
}
);
layerId = "D9DFF065-DDB2-4B0F-A853-E0DAE751FB65";
paths = (
{
closed = 1;
nodes = (
"153 154 LINE",
"157 700 LINE",
"134 700 LINE",
"138 154 LINE"
);
}
);
width = 291;
}
);
unicode = 0021;
},
{
glyphname = numbersign;
layers = (
{
layerId = "EF8420CB-322A-4DAC-B980-DA6E6912705F";
paths = (
{
closed = 1;
nodes = (
"149 0 LINE",
"325 0 LINE",
"325 707 LINE",
"149 707 LINE"
);
},
{
closed = 1;
nodes = (
"412 0 LINE",
"585 0 LINE",
"585 707 LINE",
"412 707 LINE"
);
},
{
closed = 1;
nodes = (
"67 419 LINE",
"668 419 LINE",
"668 559 LINE",
"67 559 LINE"
);
},
{
closed = 1;
nodes = (
"67 148 LINE",
"668 148 LINE",
"668 288 LINE",
"67 288 LINE"
);
}
);
width = 735;
},
{
layerId = "D9DFF065-DDB2-4B0F-A853-E0DAE751FB65";
paths = (
{
closed = 1;
nodes = (
"229 0 LINE",
"249 0 LINE",
"249 700 LINE",
"229 700 LINE"
);
},
{
closed = 1;
nodes = (
"490 0 LINE",
"510 0 LINE",
"510 700 LINE",
"490 700 LINE"
);
},
{
closed = 1;
nodes = (
"69 473 LINE",
"670 473 LINE",
"670 492 LINE",
"69 492 LINE"
);
},
{
closed = 1;
nodes = (
"69 208 LINE",
"670 208 LINE",
"670 227 LINE",
"69 227 LINE"
);
}
);
width = 739;
}
);
unicode = 0023;
},
{
glyphname = question;
layers = (
{
components = (
{
name = _period;
transform = "{1, 0, 0, 1, 49, 0}";
}
);
layerId = "EF8420CB-322A-4DAC-B980-DA6E6912705F";
paths = (
{
closed = 1;
nodes = (
"296 252 LINE",
"296 372 OFFCURVE",
"459 416 OFFCURVE",
"459 553 CURVE SMOOTH",
"459 655 OFFCURVE",
"369 719 OFFCURVE",
"217 719 CURVE SMOOTH",
"151 719 OFFCURVE",
"79 702 OFFCURVE",
"24 674 CURVE",
"51 537 LINE",
"86 561 OFFCURVE",
"131 575 OFFCURVE",
"176 575 CURVE SMOOTH",
"233 575 OFFCURVE",
"270 552 OFFCURVE",
"270 515 CURVE SMOOTH",
"270 447 OFFCURVE",
"142 416 OFFCURVE",
"142 252 CURVE"
);
}
);
width = 489;
},
{
components = (
{
name = _period;
transform = "{1, 0, 0, 1, 85, 0}";
}
);
layerId = "D9DFF065-DDB2-4B0F-A853-E0DAE751FB65";
paths = (
{
closed = 1;
nodes = (
"240 154 LINE",
"240 371 OFFCURVE",
"417 392 OFFCURVE",
"417 545 CURVE SMOOTH",
"417 637 OFFCURVE",
"352 712 OFFCURVE",
"235 712 CURVE SMOOTH",
"171 712 OFFCURVE",
"107 690 OFFCURVE",
"52 664 CURVE",
"58 647 LINE",
"110 674 OFFCURVE",
"174 692 OFFCURVE",
"230 692 CURVE SMOOTH",
"337 692 OFFCURVE",
"396 627 OFFCURVE",
"396 546 CURVE SMOOTH",
"396 407 OFFCURVE",
"221 376 OFFCURVE",
"221 154 CURVE"
);
}
);
width = 487;
}
);
unicode = 003F;
},
{
glyphname = slash;
layers = (
{
layerId = "EF8420CB-322A-4DAC-B980-DA6E6912705F";
paths = (
{
closed = 1;
nodes = (
"-8 -160 LINE",
"155 -160 LINE",
"396 741 LINE",
"233 741 LINE"
);
}
);
width = 388;
},
{
layerId = "D9DFF065-DDB2-4B0F-A853-E0DAE751FB65";
paths = (
{
closed = 1;
nodes = (
"23 -83 LINE",
"43 -83 LINE",
"252 730 LINE",
"232 730 LINE"
);
}
);
width = 275;
}
);
unicode = 002F;
},
{
glyphname = underscore;
layers = (
{
layerId = "EF8420CB-322A-4DAC-B980-DA6E6912705F";
paths = (
{
closed = 1;
nodes = (
"99 0 LINE",
"493 0 LINE",
"493 140 LINE",
"99 140 LINE"
);
}
);
width = 592;
},
{
layerId = "D9DFF065-DDB2-4B0F-A853-E0DAE751FB65";
paths = (
{
closed = 1;
nodes = (
"134 0 LINE",
"528 0 LINE",
"528 19 LINE",
"134 19 LINE"
);
}
);
width = 662;
}
);
unicode = 005F;
},
{
glyphname = periodcentered.loclCAT;
layers = (
{
layerId = "D9DFF065-DDB2-4B0F-A853-E0DAE751FB65";
paths = (
{
closed = 1;
nodes = (
"175 313 OFFCURVE",
"187 325 OFFCURVE",
"187 342 CURVE SMOOTH",
"187 359 OFFCURVE",
"175 371 OFFCURVE",
"158 371 CURVE SMOOTH",
"141 371 OFFCURVE",
"129 359 OFFCURVE",
"129 342 CURVE SMOOTH",
"129 325 OFFCURVE",
"141 313 OFFCURVE",
"158 313 CURVE SMOOTH"
);
}
);
width = 316;
},
{
layerId = "EF8420CB-322A-4DAC-B980-DA6E6912705F";
paths = (
{
closed = 1;
nodes = (
"221 285 OFFCURVE",
"257 323 OFFCURVE",
"257 372 CURVE SMOOTH",
"257 421 OFFCURVE",
"221 460 OFFCURVE",
"170 460 CURVE SMOOTH",
"119 460 OFFCURVE",
"83 421 OFFCURVE",
"83 372 CURVE SMOOTH",
"83 323 OFFCURVE",
"119 285 OFFCURVE",
"170 285 CURVE SMOOTH"
);
}
);
width = 340;
}
);
},
{
glyphname = braceleft;
layers = (
{
layerId = "D9DFF065-DDB2-4B0F-A853-E0DAE751FB65";
paths = (
{
closed = 1;
nodes = (
"295 -150 LINE",
"223 -126 OFFCURVE",
"172 -60 OFFCURVE",
"172 15 CURVE SMOOTH",
"172 111 LINE SMOOTH",
"172 182 OFFCURVE",
"125 247 OFFCURVE",
"55 275 CURVE",
"55 276 LINE",
"125 304 OFFCURVE",
"172 367 OFFCURVE",
"172 435 CURVE SMOOTH",
"172 536 LINE SMOOTH",
"172 611 OFFCURVE",
"223 677 OFFCURVE",
"295 701 CURVE",
"289 718 LINE",
"209 691 OFFCURVE",
"153 619 OFFCURVE",
"153 536 CURVE SMOOTH",
"153 435 LINE SMOOTH",
"153 368 OFFCURVE",
"106 311 OFFCURVE",
"33 289 CURVE",
"33 263 LINE",
"106 241 OFFCURVE",
"153 180 OFFCURVE",
"153 111 CURVE SMOOTH",
"153 15 LINE SMOOTH",
"153 -68 OFFCURVE",
"209 -140 OFFCURVE",
"289 -167 CURVE"
);
}
);
width = 329;
},
{
layerId = "EF8420CB-322A-4DAC-B980-DA6E6912705F";
paths = (
{
closed = 1;
nodes = (
"362 -59 LINE",
"318 -48 OFFCURVE",
"289 -18 OFFCURVE",
"289 15 CURVE SMOOTH",
"289 111 LINE SMOOTH",
"289 182 OFFCURVE",
"242 247 OFFCURVE",
"172 275 CURVE",
"172 276 LINE",
"242 304 OFFCURVE",
"289 367 OFFCURVE",
"289 435 CURVE SMOOTH",
"289 536 LINE SMOOTH",
"289 573 OFFCURVE",
"318 605 OFFCURVE",
"362 616 CURVE",
"305 728 LINE",
"175 691 OFFCURVE",
"119 619 OFFCURVE",
"119 536 CURVE SMOOTH",
"119 435 LINE SMOOTH",
"119 370 OFFCURVE",
"72 311 OFFCURVE",
"-1 289 CURVE",
"-1 263 LINE",
"72 241 OFFCURVE",
"119 180 OFFCURVE",
"119 111 CURVE SMOOTH",
"119 15 LINE SMOOTH",
"119 -68 OFFCURVE",
"175 -150 OFFCURVE",
"305 -177 CURVE"
);
}
);
width = 385;
}
);
unicode = 007B;
},
{
glyphname = bracketleft;
layers = (
{
layerId = "D9DFF065-DDB2-4B0F-A853-E0DAE751FB65";
paths = (
{
closed = 1;
nodes = (
"279 -182 LINE",
"279 -163 LINE",
"134 -163 LINE",
"134 699 LINE",
"279 699 LINE",
"279 718 LINE",
"115 718 LINE",
"115 -182 LINE"
);
}
);
width = 313;
},
{
layerId = "EF8420CB-322A-4DAC-B980-DA6E6912705F";
paths = (
{
closed = 1;
nodes = (
"402 -178 LINE",
"402 -38 LINE",
"258 -38 LINE",
"258 579 LINE",
"402 579 LINE",
"402 719 LINE",
"85 719 LINE",
"85 -178 LINE"
);
}
);
width = 429;
}
);
unicode = 005B;
},
{
glyphname = parenleft;
layers = (
{
layerId = "D9DFF065-DDB2-4B0F-A853-E0DAE751FB65";
paths = (
{
closed = 1;
nodes = (
"221 -151 LINE",
"132 3 OFFCURVE",
"96 127 OFFCURVE",
"96 284 CURVE SMOOTH",
"96 430 OFFCURVE",
"131 551 OFFCURVE",
"219 708 CURVE",
"204 718 LINE",
"112 559 OFFCURVE",
"75 435 OFFCURVE",
"75 284 CURVE SMOOTH",
"75 127 OFFCURVE",
"112 0 OFFCURVE",
"206 -161 CURVE"
);
}
);
width = 264;
},
{
layerId = "EF8420CB-322A-4DAC-B980-DA6E6912705F";
paths = (
{
closed = 1;
nodes = (
"311 -140 LINE",
"244 -33 OFFCURVE",
"204 118 OFFCURVE",
"204 262 CURVE SMOOTH",
"204 405 OFFCURVE",
"244 554 OFFCURVE",
"311 666 CURVE",
"191 728 LINE",
"75 534 OFFCURVE",
"40 427 OFFCURVE",
"40 264 CURVE SMOOTH",
"40 102 OFFCURVE",
"75 -6 OFFCURVE",
"191 -206 CURVE"
);
}
);
width = 331;
}
);
unicode = 0028;
},
{
glyphname = emdash;
layers = (
{
layerId = "EF8420CB-322A-4DAC-B980-DA6E6912705F";
paths = (
{
closed = 1;
nodes = (
"971 193 LINE",
"971 333 LINE",
"71 333 LINE",
"71 193 LINE"
);
}
);
width = 1042;
},
{
layerId = "D9DFF065-DDB2-4B0F-A853-E0DAE751FB65";
paths = (
{
closed = 1;
nodes = (
"996 253 LINE",
"996 272 LINE",
"96 272 LINE",
"96 253 LINE"
);
}
);
width = 1092;
}
);
unicode = 2014;
},
{
glyphname = endash;
layers = (
{
layerId = "EF8420CB-322A-4DAC-B980-DA6E6912705F";
paths = (
{
closed = 1;
nodes = (
"471 193 LINE",
"471 333 LINE",
"71 333 LINE",
"71 193 LINE"
);
}
);
width = 542;
},
{
layerId = "D9DFF065-DDB2-4B0F-A853-E0DAE751FB65";
paths = (
{
closed = 1;
nodes = (
"496 253 LINE",
"496 272 LINE",
"96 272 LINE",
"96 253 LINE"
);
}
);
width = 592;
}
);
unicode = 2013;
},
{
glyphname = figuredash;
layers = (
{
layerId = "EF8420CB-322A-4DAC-B980-DA6E6912705F";
paths = (
{
closed = 1;
nodes = (
"549 193 LINE",
"549 333 LINE",
"71 333 LINE",
"71 193 LINE"
);
}
);
width = 620;
},
{
layerId = "D9DFF065-DDB2-4B0F-A853-E0DAE751FB65";
paths = (
{
closed = 1;
nodes = (
"504 253 LINE",
"504 272 LINE",
"96 272 LINE",
"96 253 LINE"
);
}
);
width = 600;
}
);
unicode = 2012;
},
{
glyphname = hyphen;
layers = (
{
layerId = "EF8420CB-322A-4DAC-B980-DA6E6912705F";
paths = (
{
closed = 1;
nodes = (
"361 193 LINE",
"361 333 LINE",
"71 333 LINE",
"71 193 LINE"
);
}
);
width = 432;
},
{
layerId = "D9DFF065-DDB2-4B0F-A853-E0DAE751FB65";
paths = (
{
closed = 1;
nodes = (
"386 253 LINE",
"386 272 LINE",
"96 272 LINE",
"96 253 LINE"
);
}
);
width = 482;
}
);
unicode = 002D;
},
{
glyphname = hyphentwo;
layers = (
{
layerId = "EF8420CB-322A-4DAC-B980-DA6E6912705F";
paths = (
{
closed = 1;
nodes = (
"271 193 LINE",
"271 333 LINE",
"71 333 LINE",
"71 193 LINE"
);
}
);
width = 342;
},
{
layerId = "D9DFF065-DDB2-4B0F-A853-E0DAE751FB65";
paths = (
{
closed = 1;
nodes = (
"296 253 LINE",
"296 272 LINE",
"96 272 LINE",
"96 253 LINE"
);
}
);
width = 392;
}
);
unicode = 2010;
},
{
glyphname = guilsinglleft;
layers = (
{
layerId = "EF8420CB-322A-4DAC-B980-DA6E6912705F";
paths = (
{
closed = 1;
nodes = (
"323 74 LINE",
"194 258 LINE",
"194 261 LINE",
"323 444 LINE",
"154 444 LINE",
"24 260 LINE",
"154 74 LINE"
);
}
);
width = 347;
},
{
layerId = "D9DFF065-DDB2-4B0F-A853-E0DAE751FB65";
paths = (
{
closed = 1;
nodes = (
"204 74 LINE",
"81 250 LINE",
"81 253 LINE",
"204 430 LINE",
"182 430 LINE",
"58 252 LINE",
"182 74 LINE"
);
}
);
width = 260;
}
);
unicode = 2039;
},
{
glyphname = quoteleft;
layers = (
{
layerId = "EF8420CB-322A-4DAC-B980-DA6E6912705F";
paths = (
{
closed = 1;
nodes = (
"110 721 OFFCURVE",
"47 617 OFFCURVE",
"47 529 CURVE SMOOTH",
"47 460 OFFCURVE",
"88 414 OFFCURVE",
"149 414 CURVE SMOOTH",
"207 414 OFFCURVE",
"245 452 OFFCURVE",
"245 508 CURVE SMOOTH",
"245 558 OFFCURVE",
"215 603 OFFCURVE",
"169 603 CURVE",
"169 651 OFFCURVE",
"200 707 OFFCURVE",
"255 754 CURVE",
"205 789 LINE"
);
}
);
width = 304;
},
{
layerId = "D9DFF065-DDB2-4B0F-A853-E0DAE751FB65";
paths = (
{
closed = 1;
nodes = (
"121 683 OFFCURVE",
"99 609 OFFCURVE",
"99 560 CURVE SMOOTH",
"99 530 OFFCURVE",
"107 519 OFFCURVE",
"120 519 CURVE SMOOTH",
"133 519 OFFCURVE",
"141 528 OFFCURVE",
"141 542 CURVE SMOOTH",
"141 555 OFFCURVE",
"132 564 OFFCURVE",
"118 564 CURVE",
"118 620 OFFCURVE",
"135 684 OFFCURVE",
"160 723 CURVE",
"155 730 LINE"
);
}
);
width = 249;
}
);
unicode = 2018;
},
{
glyphname = cedi;
layers = (
{
components = (
{
name = _currency_C;
transform = "{1, 0, 0, 1, -60, 0}";
}
);
layerId = "D9DFF065-DDB2-4B0F-A853-E0DAE751FB65";
paths = (
{
closed = 1;
nodes = (
"319 -116 LINE",
"339 -116 LINE",
"339 821 LINE",
"319 821 LINE"
);
}
);
width = 624;
userData = {
RMXScaler = {
width = 90;
};
};
},
{
components = (
{
name = _currency_C;
transform = "{1, 0, 0, 1, -49, 0}";
}
);
layerId = "EF8420CB-322A-4DAC-B980-DA6E6912705F";
paths = (
{
closed = 1;
nodes = (
"314 -116 LINE",
"425 -116 LINE",
"425 821 LINE",
"314 821 LINE"
);
}
);
width = 600;
userData = {
RMXScaler = {
width = 90;
};
};
}
);
unicode = 20B5;
userData = {
RMXScaler = {
source = C;
};
};
},
{
glyphname = currency;
layers = (
{
layerId = "D9DFF065-DDB2-4B0F-A853-E0DAE751FB65";
paths = (
{
closed = 1;
nodes = (
"215 514 OFFCURVE",
"145 441 OFFCURVE",
"145 331 CURVE SMOOTH",
"145 221 OFFCURVE",
"215 147 OFFCURVE",
"321 147 CURVE SMOOTH",
"427 147 OFFCURVE",
"497 221 OFFCURVE",
"497 331 CURVE SMOOTH",
"497 441 OFFCURVE",
"427 514 OFFCURVE",
"321 514 CURVE SMOOTH"
);
},
{
closed = 1;
nodes = (
"218 198 LINE",
"205 211 LINE",
"109 116 LINE",
"122 103 LINE"
);
},
{
closed = 1;
nodes = (
"534 116 LINE",
"438 211 LINE",
"425 198 LINE",
"521 103 LINE"
);
},
{
closed = 1;
nodes = (
"109 543 LINE",
"205 448 LINE",
"218 461 LINE",
"122 556 LINE"
);
},
{
closed = 1;
nodes = (
"424 461 LINE",
"437 448 LINE",
"533 543 LINE",
"520 556 LINE"
);
},
{
closed = 1;
nodes = (
"415 497 OFFCURVE",
"477 430 OFFCURVE",
"477 330 CURVE SMOOTH",
"477 230 OFFCURVE",
"415 164 OFFCURVE",
"321 164 CURVE SMOOTH",
"227 164 OFFCURVE",
"165 230 OFFCURVE",
"165 330 CURVE SMOOTH",
"165 430 OFFCURVE",
"227 497 OFFCURVE",
"321 497 CURVE SMOOTH"
);
}
);
width = 643;
},
{
layerId = "EF8420CB-322A-4DAC-B980-DA6E6912705F";
paths = (
{
closed = 1;
nodes = (
"204 564 OFFCURVE",
"114 475 OFFCURVE",
"114 342 CURVE SMOOTH",
"114 209 OFFCURVE",
"204 120 OFFCURVE",
"340 120 CURVE SMOOTH",
"476 120 OFFCURVE",
"566 209 OFFCURVE",
"566 342 CURVE SMOOTH",
"566 475 OFFCURVE",
"476 564 OFFCURVE",
"340 564 CURVE SMOOTH"
);
},
{
closed = 1;
nodes = (
"236 156 LINE",
"156 237 LINE",
"69 151 LINE",
"148 72 LINE"
);
},
{
closed = 1;
nodes = (
"610 151 LINE",
"524 236 LINE",
"445 156 LINE",
"531 72 LINE"
);
},
{
closed = 1;
nodes = (
"69 534 LINE",
"154 447 LINE",
"236 526 LINE",
"148 613 LINE"
);
},
{
closed = 1;
nodes = (
"445 526 LINE",
"525 448 LINE",
"610 534 LINE",
"531 613 LINE"
);
},
{
closed = 1;
nodes = (
"389 435 OFFCURVE",
"422 398 OFFCURVE",
"422 342 CURVE SMOOTH",
"422 285 OFFCURVE",
"389 247 OFFCURVE",
"340 247 CURVE SMOOTH",
"291 247 OFFCURVE",
"258 285 OFFCURVE",
"258 342 CURVE SMOOTH",
"258 398 OFFCURVE",
"291 435 OFFCURVE",
"340 435 CURVE SMOOTH"
);
}
);
width = 680;
}
);
unicode = 00A4;
},
{
glyphname = dollar;
layers = (
{
anchors = (
{
name = bottom;
position = "{297, 0}";
},
{
name = top;
position = "{308, 700}";
}
);
components = (
{
name = _dollarstem;
transform = "{1, 0, 0, 1, 4, 0}";
},
{
name = _dollarstem;
transform = "{1, 0, 0, 1, 4, 833}";
}
);
layerId = "D9DFF065-DDB2-4B0F-A853-E0DAE751FB65";
paths = (
{
closed = 1;
nodes = (
"431 -12 OFFCURVE",
"524 63 OFFCURVE",
"524 179 CURVE SMOOTH",
"524 420 OFFCURVE",
"110 317 OFFCURVE",
"110 531 CURVE SMOOTH",
"110 629 OFFCURVE",
"196 690 OFFCURVE",
"313 690 CURVE SMOOTH",
"369 690 OFFCURVE",
"428 676 OFFCURVE",
"484 653 CURVE",
"489 672 LINE",
"428 697 OFFCURVE",
"369 711 OFFCURVE",
"312 711 CURVE SMOOTH",
"181 711 OFFCURVE",
"88 638 OFFCURVE",
"88 529 CURVE SMOOTH",
"88 298 OFFCURVE",
"502 396 OFFCURVE",
"502 176 CURVE SMOOTH",
"502 76 OFFCURVE",
"418 9 OFFCURVE",
"288 9 CURVE SMOOTH",
"226 9 OFFCURVE",
"156 24 OFFCURVE",
"99 47 CURVE",
"94 28 LINE",
"156 3 OFFCURVE",
"223 -12 OFFCURVE",
"288 -12 CURVE SMOOTH"
);
}
);
width = 609;
userData = {
RMXScaler = {
width = 90;
};
};
},
{
anchors = (
{
name = bottom;
position = "{308, 0}";
},
{
name = top;
position = "{291, 706}";
}
);
components = (
{
name = _dollarstem;
transform = "{1, 0, 0, 1, 9, 0}";
},
{
name = _dollarstem;
transform = "{1, 0, 0, 1, -11, 810}";
}
);
layerId = "EF8420CB-322A-4DAC-B980-DA6E6912705F";
paths = (
{
closed = 1;
nodes = (
"451 -12 OFFCURVE",
"564 54 OFFCURVE",
"564 210 CURVE SMOOTH",
"564 488 OFFCURVE",
"216 392 OFFCURVE",
"216 506 CURVE SMOOTH",
"216 547 OFFCURVE",
"255 571 OFFCURVE",
"325 571 CURVE SMOOTH",
"387 571 OFFCURVE",
"445 557 OFFCURVE",
"488 539 CURVE",
"521 675 LINE",
"463 701 OFFCURVE",
"396 718 OFFCURVE",
"323 718 CURVE SMOOTH",
"165 718 OFFCURVE",
"56 640 OFFCURVE",
"56 493 CURVE SMOOTH",
"56 227 OFFCURVE",
"405 331 OFFCURVE",
"405 207 CURVE SMOOTH",
"405 161 OFFCURVE",
"362 135 OFFCURVE",
"287 135 CURVE SMOOTH",
"222 135 OFFCURVE",
"159 150 OFFCURVE",
"101 172 CURVE",
"68 35 LINE",
"130 7 OFFCURVE",
"210 -12 OFFCURVE",
"296 -12 CURVE SMOOTH"
);
}
);
width = 613;
userData = {
RMXScaler = {
weight = -20;
width = 90;
};
};
}
);
unicode = 0024;
userData = {
RMXScaler = {
source = S;
};
};
},
{
glyphname = dong;
layers = (
{
components = (
{
name = strokeshortcomb;
transform = "{1, 0, 0, 1, 198, 302}";
},
{
name = strokeshortcomb;
transform = "{1.4, 0, 0, 1, -6, -290}";
}
);
layerId = "D9DFF065-DDB2-4B0F-A853-E0DAE751FB65";
paths = (
{
closed = 1;
nodes = (
"459 125 LINE",
"459 700 LINE",
"439 700 LINE",
"439 185 LINE",
"444 125 LINE"
);
},
{
closed = 1;
nodes = (
"344 116 OFFCURVE",
"393 135 OFFCURVE",
"440 177 CURVE",
"439 193 LINE",
"402 157 OFFCURVE",
"353 135 OFFCURVE",
"297 135 CURVE SMOOTH",
"198 135 OFFCURVE",
"120 207 OFFCURVE",
"120 315 CURVE SMOOTH",
"120 422 OFFCURVE",
"196 494 OFFCURVE",
"293 494 CURVE SMOOTH",
"347 494 OFFCURVE",
"403 471 OFFCURVE",
"439 434 CURVE",
"441 448 LINE",
"403 489 OFFCURVE",
"350 513 OFFCURVE",
"291 513 CURVE SMOOTH",
"184 513 OFFCURVE",
"99 434 OFFCURVE",
"99 315 CURVE SMOOTH",
"99 195 OFFCURVE",
"186 116 OFFCURVE",
"293 116 CURVE SMOOTH"
);
}
);
width = 623;
userData = {
RMXScaler = {
height = 80;
verticalShift = 125;
width = 90;
};
};
},
{
components = (
{
name = strokeshortcomb;
transform = "{1, 0, 0, 0.8, 128, 362}";
},
{
name = strokeshortcomb;
transform = "{1.1, 0, 0, 0.8, 29, -206}";
}
);
layerId = "EF8420CB-322A-4DAC-B980-DA6E6912705F";
paths = (
{
closed = 1;
nodes = (
"487 124 LINE",
"487 707 LINE",
"334 707 LINE",
"334 224 LINE",
"359 124 LINE"
);
},
{
closed = 1;
nodes = (
"281 124 OFFCURVE",
"317 143 OFFCURVE",
"356 186 CURVE",
"341 298 LINE",
"322 269 OFFCURVE",
"293 252 OFFCURVE",
"272 252 CURVE SMOOTH",
"244 252 OFFCURVE",
"221 284 OFFCURVE",
"221 334 CURVE SMOOTH",
"221 382 OFFCURVE",
"242 415 OFFCURVE",
"272 415 CURVE SMOOTH",
"301 415 OFFCURVE",
"329 388 OFFCURVE",
"341 349 CURVE",
"356 463 LINE",
"327 520 OFFCURVE",
"290 544 OFFCURVE",
"236 544 CURVE SMOOTH",
"138 544 OFFCURVE",
"65 460 OFFCURVE",
"65 335 CURVE SMOOTH",
"65 208 OFFCURVE",
"141 124 OFFCURVE",
"235 124 CURVE SMOOTH"
);
}
);
width = 613;
userData = {
RMXScaler = {
height = 80;
verticalShift = 124;
weight = -20;
width = 80;
};
};
}
);
unicode = 20AB;
userData = {
RMXScaler = {
source = d;
};
};
},
{
glyphname = florin;
layers = (
{
components = (
{
alignment = -1;
name = f;
transform = "{1, 0, 0, 1, 117, 0}";
}
);
layerId = "D9DFF065-DDB2-4B0F-A853-E0DAE751FB65";
paths = (
{
closed = 1;
nodes = (
"204 -230 OFFCURVE",
"246 -186 OFFCURVE",
"246 -112 CURVE SMOOTH",
"246 0 LINE",
"226 0 LINE",
"226 -112 LINE SMOOTH",
"226 -174 OFFCURVE",
"192 -210 OFFCURVE",
"136 -210 CURVE SMOOTH",
"115 -210 OFFCURVE",
"91 -205 OFFCURVE",
"71 -196 CURVE",
"66 -212 LINE",
"88 -223 OFFCURVE",
"112 -230 OFFCURVE",
"138 -230 CURVE SMOOTH"
);
}
);
width = 477;
},
{
components = (
{
alignment = -1;
name = f;
transform = "{1, 0, 0, 1, 103, 0}";
}
);
layerId = "EF8420CB-322A-4DAC-B980-DA6E6912705F";
paths = (
{
closed = 1;
nodes = (
"282 -230 OFFCURVE",
"358 -145 OFFCURVE",
"358 -18 CURVE SMOOTH",
"358 0 LINE",
"185 0 LINE",
"185 -8 LINE",
"185 -54 OFFCURVE",
"156 -84 OFFCURVE",
"113 -84 CURVE SMOOTH",
"97 -84 OFFCURVE",
"75 -80 OFFCURVE",
"58 -75 CURVE",
"31 -207 LINE",
"71 -221 OFFCURVE",
"124 -230 OFFCURVE",
"163 -230 CURVE SMOOTH"
);
}
);
width = 566;
}
);
unicode = 0192;
},
{
glyphname = franc;
layers = (
{
components = (
{
name = strokeshortcomb;
transform = "{1, 0, 0, 1, 6, -127}";
}
);
layerId = "D9DFF065-DDB2-4B0F-A853-E0DAE751FB65";
paths = (
{
closed = 1;
nodes = (
"180 0 LINE",
"180 680 LINE",
"514 680 LINE",
"514 700 LINE",
"159 700 LINE",
"159 0 LINE"
);
},
{
closed = 1;
nodes = (
"488 334 LINE",
"488 354 LINE",
"175 354 LINE",
"175 334 LINE"
);
}
);
width = 590;
},
{
components = (
{
name = strokeshortcomb;
transform = "{1, 0, 0, 1, 11, -170}";
}
);
layerId = "EF8420CB-322A-4DAC-B980-DA6E6912705F";
paths = (
{
closed = 1;
nodes = (
"301 0 LINE",
"301 545 LINE",
"570 545 LINE",
"570 707 LINE",
"125 707 LINE",
"125 0 LINE"
);
},
{
closed = 1;
nodes = (
"553 253 LINE",
"553 415 LINE",
"211 415 LINE",
"211 253 LINE"
);
}
);
width = 641;
}
);
unicode = 20A3;
},
{
glyphname = guarani;
layers = (
{
anchors = (
{
name = bottom;
position = "{342, 0}";
},
{
name = top;
position = "{341, 700}";
}
);
components = (
{
name = _dollarstem;
transform = "{1, 0, 0, 1, 61, 841}";
},
{
name = _dollarstem;
transform = "{1, 0, 0, 1, 71, 0}";
}
);
layerId = "D9DFF065-DDB2-4B0F-A853-E0DAE751FB65";
paths = (
{
closed = 1;
nodes = (
"438 -12 OFFCURVE",
"527 17 OFFCURVE",
"572 66 CURVE",
"572 343 LINE",
"345 343 LINE",
"345 323 LINE",
"552 323 LINE",
"552 77 LINE",
"512 34 OFFCURVE",
"430 9 OFFCURVE",
"370 9 CURVE SMOOTH",
"231 9 OFFCURVE",
"118 145 OFFCURVE",
"118 350 CURVE SMOOTH",
"118 555 OFFCURVE",
"232 691 OFFCURVE",
"384 691 CURVE SMOOTH",
"440 691 OFFCURVE",
"491 673 OFFCURVE",
"536 644 CURVE",
"542 663 LINE",
"492 694 OFFCURVE",
"438 712 OFFCURVE",
"381 712 CURVE SMOOTH",
"219 712 OFFCURVE",
"96 567 OFFCURVE",
"96 350 CURVE SMOOTH",
"96 133 OFFCURVE",
"217 -12 OFFCURVE",
"369 -12 CURVE SMOOTH"
);
}
);
width = 671;
userData = {
RMXScaler = {
width = 80;
};
};
},
{
anchors = (
{
name = bottom;
position = "{357, 0}";
},
{
name = top;
position = "{348, 706}";
}
);
components = (
{
name = _dollarstem;
transform = "{1, 0, 0, 1, 35, 841}";
},
{
name = _dollarstem;
transform = "{1, 0, 0, 1, 45, 0}";
}
);
layerId = "EF8420CB-322A-4DAC-B980-DA6E6912705F";
paths = (
{
closed = 1;
nodes = (
"430 -12 OFFCURVE",
"528 20 OFFCURVE",
"587 68 CURVE",
"587 417 LINE",
"340 417 LINE",
"340 273 LINE",
"449 273 LINE",
"449 169 LINE",
"430 148 OFFCURVE",
"389 135 OFFCURVE",
"360 135 CURVE SMOOTH",
"280 135 OFFCURVE",
"213 221 OFFCURVE",
"213 353 CURVE SMOOTH",
"213 482 OFFCURVE",
"276 571 OFFCURVE",
"377 571 CURVE SMOOTH",
"421 571 OFFCURVE",
"486 556 OFFCURVE",
"527 536 CURVE",
"559 673 LINE",
"511 700 OFFCURVE",
"422 718 OFFCURVE",
"357 718 CURVE SMOOTH",
"171 718 OFFCURVE",
"54 570 OFFCURVE",
"54 350 CURVE SMOOTH",
"54 131 OFFCURVE",
"185 -12 OFFCURVE",
"351 -12 CURVE SMOOTH"
);
}
);
width = 656;
userData = {
RMXScaler = {
weight = -20;
width = 80;
};
};
}
);
unicode = 20B2;
userData = {
RMXScaler = {
source = G;
};
};
},
{
glyphname = kip;
layers = (
{
anchors = (
{
name = bottom;
position = "{333, 0}";
},
{
name = top;
position = "{333, 700}";
}
);
components = (
{
name = strokelongcomb;
transform = "{0.8, 0, 0, 1, -4, -3}";
}
);
layerId = "D9DFF065-DDB2-4B0F-A853-E0DAE751FB65";
paths = (
{
closed = 1;
nodes = (
"204 0 LINE",
"204 700 LINE",
"183 700 LINE",
"183 0 LINE"
);
},
{
closed = 1;
nodes = (
"304 352 LINE",
"580 0 LINE",
"606 0 LINE",
"317 366 LINE"
);
},
{
closed = 1;
nodes = (
"204 214 LINE",
"574 700 LINE",
"548 700 LINE",
"204 242 LINE"
);
}
);
width = 698;
userData = {
RMXScaler = {
width = 90;
};
};
},
{
anchors = (
{
name = bottom;
position = "{398, 0}";
},
{
name = top;
position = "{398, 707}";
}
);
components = (
{
name = strokelongcomb;
transform = "{0.9, 0, 0, 1, -7, 50}";
}
);
layerId = "EF8420CB-322A-4DAC-B980-DA6E6912705F";
paths = (
{
closed = 1;
nodes = (
"317 0 LINE",
"317 707 LINE",
"141 707 LINE",
"141 0 LINE"
);
},
{
closed = 1;
nodes = (
"357 269 LINE",
"510 0 LINE",
"714 0 LINE",
"463 398 LINE"
);
},
{
closed = 1;
nodes = (
"317 179 LINE",
"710 707 LINE",
"511 707 LINE",
"317 410 LINE"
);
}
);
width = 789;
userData = {
RMXScaler = {
width = 90;
};
};
}
);
unicode = 20AD;
userData = {
RMXScaler = {
source = K;
};
};
},
{
glyphname = liraTurkish;
layers = (
{
layerId = "D9DFF065-DDB2-4B0F-A853-E0DAE751FB65";
paths = (
{
closed = 1;
nodes = (
"366 0 OFFCURVE",
"481 128 OFFCURVE",
"481 320 CURVE",
"461 320 LINE",
"461 140 OFFCURVE",
"354 20 OFFCURVE",
"193 20 CURVE",
"193 0 LINE"
);
},
{
closed = 1;
nodes = (
"193 0 LINE",
"193 700 LINE",
"172 700 LINE",
"172 0 LINE"
);
},
{
closed = 1;
nodes = (
"92 427 LINE",
"101 412 LINE",
"369 568 LINE",
"360 584 LINE"
);
},
{
closed = 1;
nodes = (
"92 307 LINE",
"101 292 LINE",
"369 452 LINE",
"360 468 LINE"
);
}
);
width = 568;
},
{
layerId = "EF8420CB-322A-4DAC-B980-DA6E6912705F";
paths = (
{
closed = 1;
nodes = (
"475 0 OFFCURVE",
"588 138 OFFCURVE",
"588 345 CURVE",
"449 345 LINE",
"449 222 OFFCURVE",
"391 140 OFFCURVE",
"305 140 CURVE",
"305 0 LINE"
);
},
{
closed = 1;
nodes = (
"305 0 LINE",
"305 707 LINE",
"139 707 LINE",
"139 0 LINE"
);
},
{
closed = 1;
nodes = (
"52 452 LINE",
"99 362 LINE",
"454 571 LINE",
"406 661 LINE"
);
},
{
closed = 1;
nodes = (
"65 287 LINE",
"113 197 LINE",
"454 400 LINE",
"406 490 LINE"
);
}
);
width = 635;
userData = {
RMXScaler = {
weight = -10;
width = 90;
};
};
}
);
unicode = 20BA;
userData = {
RMXScaler = {
source = I;
};
};
},
{
glyphname = manat;
layers = (
{
components = (
{
name = bar;
transform = "{1, 0, 0, 0.7, 217, 210}";
}
);
layerId = "D9DFF065-DDB2-4B0F-A853-E0DAE751FB65";
paths = (
{
closed = 1;
nodes = (
"148 0 LINE",
"148 345 LINE SMOOTH",
"148 493 OFFCURVE",
"237 591 OFFCURVE",
"370 591 CURVE SMOOTH",
"504 591 OFFCURVE",
"594 493 OFFCURVE",
"594 345 CURVE SMOOTH",
"594 0 LINE",
"614 0 LINE",
"614 345 LINE SMOOTH",
"614 505 OFFCURVE",
"517 612 OFFCURVE",
"370 612 CURVE SMOOTH",
"224 612 OFFCURVE",
"127 505 OFFCURVE",
"127 345 CURVE SMOOTH",
"127 0 LINE"
);
}
);
width = 741;
userData = {
RMXScaler = {
width = 90;
};
};
},
{
components = (
{
name = bar;
transform = "{0.6, 0, 0, 0.7, 231, 212}";
}
);
layerId = "EF8420CB-322A-4DAC-B980-DA6E6912705F";
paths = (
{
closed = 1;
nodes = (
"231 0 LINE",
"231 351 LINE SMOOTH",
"231 429 OFFCURVE",
"277 480 OFFCURVE",
"344 480 CURVE SMOOTH",
"413 480 OFFCURVE",
"459 429 OFFCURVE",
"459 351 CURVE SMOOTH",
"459 0 LINE",
"605 0 LINE",
"605 351 LINE SMOOTH",
"605 511 OFFCURVE",
"501 618 OFFCURVE",
"344 618 CURVE SMOOTH",
"189 618 OFFCURVE",
"85 511 OFFCURVE",
"85 351 CURVE SMOOTH",
"85 0 LINE"
);
}
);
width = 690;
userData = {
RMXScaler = {
weight = -30;
width = 90;
};
};
}
);
unicode = 20BC;
userData = {
RMXScaler = {
source = U;
};
};
},
{
glyphname = naira;
layers = (
{
anchors = (
{
name = bottom;
position = "{446, 0}";
},
{
name = top;
position = "{446, 700}";
}
);
components = (
{
name = strokelongcomb;
transform = "{1, 0, 0, 1, -10, -63}";
},
{
name = strokelongcomb;
transform = "{1, 0, 0, 1, -10, 57}";
}
);
layerId = "D9DFF065-DDB2-4B0F-A853-E0DAE751FB65";
paths = (
{
closed = 1;
nodes = (
"230 0 LINE",
"230 670 LINE",
"234 670 LINE",
"657 0 LINE",
"684 0 LINE",
"684 700 LINE",
"663 700 LINE",
"663 30 LINE",
"659 30 LINE",
"237 700 LINE",
"209 700 LINE",
"209 0 LINE"
);
}
);
width = 858;
userData = {
RMXScaler = {
width = 90;
};
};
},
{
anchors = (
{
name = bottom;
position = "{441, 0}";
},
{
name = top;
position = "{441, 705}";
}
);
components = (
{
name = strokelongcomb;
transform = "{1, 0, 0, 0.5, -10, 137}";
},
{
name = strokelongcomb;
transform = "{1, 0, 0, 0.5, -10, 257}";
}
);
layerId = "EF8420CB-322A-4DAC-B980-DA6E6912705F";
paths = (
{
closed = 1;
nodes = (
"302 0 LINE",
"302 471 LINE",
"309 471 LINE",
"567 0 LINE",
"715 0 LINE",
"715 705 LINE",
"579 705 LINE",
"579 227 LINE",
"572 227 LINE",
"315 705 LINE",
"166 705 LINE",
"166 0 LINE"
);
}
);
width = 863;
userData = {
RMXScaler = {
weight = -40;
width = 90;
};
};
}
);
unicode = 20A6;
userData = {
RMXScaler = {
source = N;
};
};
},
{
glyphname = peseta;
layers = (
{
anchors = (
{
name = bottom;
position = "{355, 0}";
},
{
name = top;
position = "{355, 700}";
}
);
components = (
{
name = strokeshortcomb;
transform = "{2.4, 0, 0, 1, -152, 189}";
}
);
layerId = "D9DFF065-DDB2-4B0F-A853-E0DAE751FB65";
paths = (
{
closed = 1;
nodes = (
"187 0 LINE",
"187 680 LINE",
"382 680 LINE SMOOTH",
"491 680 OFFCURVE",
"564 602 OFFCURVE",
"564 488 CURVE SMOOTH",
"564 374 OFFCURVE",
"491 301 OFFCURVE",
"382 301 CURVE SMOOTH",
"178 301 LINE",
"178 281 LINE",
"387 281 LINE SMOOTH",
"506 281 OFFCURVE",
"586 362 OFFCURVE",
"586 488 CURVE SMOOTH",
"586 614 OFFCURVE",
"506 700 OFFCURVE",
"387 700 CURVE SMOOTH",
"166 700 LINE",
"166 0 LINE"
);
}
);
width = 735;
userData = {
RMXScaler = {
width = 90;
};
};
},
{
anchors = (
{
name = bottom;
position = "{351, 0}";
},
{
name = top;
position = "{351, 707}";
}
);
components = (
{
name = strokeshortcomb;
transform = "{1.8, 0, 0, 0.8, -53, 211}";
}
);
layerId = "EF8420CB-322A-4DAC-B980-DA6E6912705F";
paths = (
{
closed = 1;
nodes = (
"294 0 LINE",
"294 556 LINE",
"395 556 LINE SMOOTH",
"445 556 OFFCURVE",
"479 515 OFFCURVE",
"479 455 CURVE SMOOTH",
"479 395 OFFCURVE",
"445 354 OFFCURVE",
"395 354 CURVE SMOOTH",
"205 354 LINE",
"205 203 LINE",
"401 203 LINE SMOOTH",
"539 203 OFFCURVE",
"632 304 OFFCURVE",
"632 455 CURVE SMOOTH",
"632 606 OFFCURVE",
"539 707 OFFCURVE",
"401 707 CURVE SMOOTH",
"128 707 LINE",
"128 0 LINE"
);
}
);
width = 742;
userData = {
RMXScaler = {
weight = -10;
width = 90;
};
};
}
);
unicode = 20A7;
userData = {
RMXScaler = {
source = P;
};
};
},
{
glyphname = peso;
layers = (
{
anchors = (
{
name = bottom;
position = "{366, 0}";
},
{
name = top;
position = "{366, 700}";
}
);
components = (
{
name = strokeshortcomb;
transform = "{2.4, 0, 0, 1, -141, 124}";
},
{
name = strokeshortcomb;
transform = "{2.4, 0, 0, 1, -141, 240}";
}
);
layerId = "D9DFF065-DDB2-4B0F-A853-E0DAE751FB65";
paths = (
{
closed = 1;
nodes = (
"198 0 LINE",
"198 680 LINE",
"393 680 LINE SMOOTH",
"502 680 OFFCURVE",
"575 602 OFFCURVE",
"575 488 CURVE SMOOTH",
"575 374 OFFCURVE",
"502 301 OFFCURVE",
"393 301 CURVE SMOOTH",
"189 301 LINE",
"189 281 LINE",
"398 281 LINE SMOOTH",
"517 281 OFFCURVE",
"597 362 OFFCURVE",
"597 488 CURVE SMOOTH",
"597 614 OFFCURVE",
"517 700 OFFCURVE",
"398 700 CURVE SMOOTH",
"177 700 LINE",
"177 0 LINE"
);
}
);
width = 758;
userData = {
RMXScaler = {
width = 90;
};
};
},
{
anchors = (
{
name = bottom;
position = "{360, 0}";
},
{
name = top;
position = "{360, 706}";
}
);
components = (
{
name = strokeshortcomb;
transform = "{1.8, 0, 0, 0.6, -50, 224}";
},
{
name = strokeshortcomb;
transform = "{1.8, 0, 0, 0.6, -50, 320}";
}
);
layerId = "EF8420CB-322A-4DAC-B980-DA6E6912705F";
paths = (
{
closed = 1;
nodes = (
"295 0 LINE",
"295 564 LINE",
"403 564 LINE SMOOTH",
"457 564 OFFCURVE",
"493 521 OFFCURVE",
"493 457 CURVE SMOOTH",
"493 393 OFFCURVE",
"457 351 OFFCURVE",
"403 351 CURVE SMOOTH",
"212 351 LINE",
"212 209 LINE",
"408 209 LINE SMOOTH",
"546 209 OFFCURVE",
"637 308 OFFCURVE",
"637 457 CURVE SMOOTH",
"637 606 OFFCURVE",
"546 706 OFFCURVE",
"408 706 CURVE SMOOTH",
"139 706 LINE",
"139 0 LINE"
);
}
);
width = 755;
userData = {
RMXScaler = {
weight = -20;
width = 90;
};
};
}
);
unicode = 20B1;
userData = {
RMXScaler = {
source = P;
};
};
},
{
glyphname = ruble;
layers = (
{
components = (
{
name = strokeshortcomb;
transform = "{1, 0, 0, 1, 0, -155}";
}
);
layerId = "D9DFF065-DDB2-4B0F-A853-E0DAE751FB65";
paths = (
{
closed = 1;
nodes = (
"192 0 LINE",
"192 680 LINE",
"387 680 LINE SMOOTH",
"496 680 OFFCURVE",
"569 602 OFFCURVE",
"569 488 CURVE SMOOTH",
"569 374 OFFCURVE",
"496 301 OFFCURVE",
"387 301 CURVE SMOOTH",
"100 301 LINE",
"100 281 LINE",
"392 281 LINE SMOOTH",
"511 281 OFFCURVE",
"591 362 OFFCURVE",
"591 488 CURVE SMOOTH",
"591 614 OFFCURVE",
"511 700 OFFCURVE",
"392 700 CURVE SMOOTH",
"171 700 LINE",
"171 0 LINE"
);
}
);
width = 686;
userData = {
RMXScaler = {
width = 90;
};
};
},
{
components = (
{
name = strokeshortcomb;
transform = "{1, 0, 0, 1, 16, -195}";
}
);
layerId = "EF8420CB-322A-4DAC-B980-DA6E6912705F";
paths = (
{
closed = 1;
nodes = (
"324 0 LINE",
"324 547 LINE",
"419 547 LINE SMOOTH",
"465 547 OFFCURVE",
"496 509 OFFCURVE",
"496 453 CURVE SMOOTH",
"496 396 OFFCURVE",
"465 358 OFFCURVE",
"419 358 CURVE SMOOTH",
"80 358 LINE",
"80 198 LINE",
"424 198 LINE SMOOTH",
"564 198 OFFCURVE",
"658 300 OFFCURVE",
"658 453 CURVE SMOOTH",
"658 605 OFFCURVE",
"564 707 OFFCURVE",
"424 707 CURVE SMOOTH",
"148 707 LINE",
"148 0 LINE"
);
}
);
width = 715;
userData = {
RMXScaler = {
width = 90;
};
};
}
);
unicode = 20BD;
userData = {
RMXScaler = {
source = P;
};
};
},
{
glyphname = rupeeIndian;
layers = (
{
anchors = (
{
name = bottom;
position = "{251, 0}";
},
{
name = top;
position = "{251, 700}";
}
);
components = (
{
name = strokelongcomb;
transform = "{0.6, 0, 0, 1, 39, 330}";
},
{
name = strokelongcomb;
transform = "{0.6, 0, 0, 1, 39, 150}";
}
);
layerId = "D9DFF065-DDB2-4B0F-A853-E0DAE751FB65";
paths = (
{
closed = 1;
nodes = (
"418 0 LINE",
"448 0 LINE",
"128 321 LINE",
"97 321 LINE"
);
},
{
closed = 1;
nodes = (
"97 680 LINE",
"280 680 LINE SMOOTH",
"377 680 OFFCURVE",
"443 610 OFFCURVE",
"443 508 CURVE SMOOTH",
"443 406 OFFCURVE",
"377 341 OFFCURVE",
"280 341 CURVE SMOOTH",
"97 341 LINE",
"97 321 LINE",
"285 321 LINE SMOOTH",
"393 321 OFFCURVE",
"465 394 OFFCURVE",
"465 508 CURVE SMOOTH",
"465 622 OFFCURVE",
"393 700 OFFCURVE",
"285 700 CURVE SMOOTH",
"97 700 LINE"
);
}
);
width = 590;
userData = {
RMXScaler = {
width = 90;
};
};
},
{
anchors = (
{
name = bottom;
position = "{241, 0}";
},
{
name = top;
position = "{241, 706}";
}
);
components = (
{
name = strokelongcomb;
transform = "{0.6, 0, 0, 1, 51, 337}";
},
{
name = strokelongcomb;
transform = "{0.6, 0, 0, 1, 49, 171}";
}
);
layerId = "EF8420CB-322A-4DAC-B980-DA6E6912705F";
paths = (
{
closed = 1;
nodes = (
"286 0 LINE",
"504 0 LINE",
"286 240 LINE",
"86 240 LINE"
);
},
{
closed = 1;
nodes = (
"87 588 LINE",
"267 588 LINE SMOOTH",
"315 588 OFFCURVE",
"347 557 OFFCURVE",
"347 483 CURVE SMOOTH",
"347 418 OFFCURVE",
"315 382 OFFCURVE",
"267 382 CURVE SMOOTH",
"87 382 LINE",
"87 240 LINE",
"272 240 LINE SMOOTH",
"404 240 OFFCURVE",
"491 333 OFFCURVE",
"491 473 CURVE SMOOTH",
"491 612 OFFCURVE",
"404 706 OFFCURVE",
"272 706 CURVE SMOOTH",
"87 706 LINE"
);
}
);
width = 605;
userData = {
RMXScaler = {
weight = -20;
width = 90;
};
};
}
);
unicode = 20B9;
userData = {
RMXScaler = {
source = R;
};
};
},
{
glyphname = won;
layers = (
{
anchors = (
{
name = bottom;
position = "{442, 0}";
},
{
name = top;
position = "{442, 700}";
}
);
components = (
{
name = strokelongcomb;
transform = "{1, 0, 0, 1, 4, 48}";
},
{
name = strokelongcomb;
transform = "{1, 0, 0, 1, 4, -82}";
}
);
layerId = "D9DFF065-DDB2-4B0F-A853-E0DAE751FB65";
paths = (
{
closed = 1;
nodes = (
"281 0 LINE",
"297 0 LINE",
"442 675 LINE",
"444 675 LINE",
"586 0 LINE",
"603 0 LINE",
"759 700 LINE",
"737 700 LINE",
"597 50 LINE",
"593 50 LINE",
"457 700 LINE",
"430 700 LINE",
"290 50 LINE",
"286 50 LINE",
"146 700 LINE",
"124 700 LINE"
);
}
);
width = 880;
userData = {
RMXScaler = {
width = 70;
};
};
},
{
anchors = (
{
name = bottom;
position = "{457, 0}";
},
{
name = top;
position = "{457, 707}";
}
);
components = (
{
name = strokelongcomb;
transform = "{1, 0, 0, 0.7, 19, 200}";
},
{
name = strokelongcomb;
transform = "{1, 0, 0, 0.7, 19, 40}";
}
);
layerId = "EF8420CB-322A-4DAC-B980-DA6E6912705F";
paths = (
{
closed = 1;
nodes = (
"210 0 LINE",
"422 0 LINE",
"457 479 LINE",
"459 479 LINE",
"491 0 LINE",
"703 0 LINE",
"830 707 LINE",
"667 707 LINE",
"605 121 LINE",
"600 121 LINE",
"544 707 LINE",
"367 707 LINE",
"316 121 LINE",
"309 121 LINE",
"246 707 LINE",
"83 707 LINE"
);
}
);
width = 917;
userData = {
RMXScaler = {
width = 70;
};
};
}
);
unicode = 20A9;
userData = {
RMXScaler = {
source = W;
};
};
},
{
glyphname = plus;
layers = (
{
layerId = "D9DFF065-DDB2-4B0F-A853-E0DAE751FB65";
paths = (
{
closed = 1;
nodes = (
"69 351 LINE",
"569 351 LINE",
"569 370 LINE",
"69 370 LINE"
);
},
{
closed = 1;
nodes = (
"312 86 LINE",
"332 86 LINE",
"332 616 LINE",
"312 616 LINE"
);
}
);
width = 638;
},
{
layerId = "EF8420CB-322A-4DAC-B980-DA6E6912705F";
paths = (
{
closed = 1;
nodes = (
"53 291 LINE",
"562 291 LINE",
"562 431 LINE",
"53 431 LINE"
);
},
{
closed = 1;
nodes = (
"241 101 LINE",
"381 101 LINE",
"381 621 LINE",
"241 621 LINE"
);
}
);
width = 615;
}
);
unicode = 002B;
},
{
glyphname = minus;
layers = (
{
layerId = "D9DFF065-DDB2-4B0F-A853-E0DAE751FB65";
paths = (
{
closed = 1;
nodes = (
"144 351 LINE",
"620 351 LINE",
"620 370 LINE",
"144 370 LINE"
);
}
);
width = 764;
},
{
layerId = "EF8420CB-322A-4DAC-B980-DA6E6912705F";
paths = (
{
closed = 1;
nodes = (
"106 291 LINE",
"612 291 LINE",
"612 431 LINE",
"106 431 LINE"
);
}
);
width = 718;
}
);
unicode = 2212;
},
{
glyphname = multiply;
layers = (
{
layerId = "D9DFF065-DDB2-4B0F-A853-E0DAE751FB65";
paths = (
{
closed = 1;
nodes = (
"95 137 LINE",
"435 504 LINE",
"420 518 LINE",
"81 151 LINE"
);
},
{
closed = 1;
nodes = (
"98 518 LINE",
"83 505 LINE",
"420 137 LINE",
"434 149 LINE"
);
}
);
width = 516;
},
{
layerId = "EF8420CB-322A-4DAC-B980-DA6E6912705F";
paths = (
{
closed = 1;
nodes = (
"137 71 LINE",
"547 513 LINE",
"449 612 LINE",
"42 172 LINE"
);
},
{
closed = 1;
nodes = (
"160 612 LINE",
"52 515 LINE",
"458 72 LINE",
"562 170 LINE"
);
}
);
width = 602;
}
);
unicode = 00D7;
},
{
glyphname = divide;
layers = (
{
components = (
{
name = _dot;
transform = "{1, 0, 0, 1, 305, 562}";
},
{
name = _dot;
transform = "{1, 0, 0, 1, 305, 162}";
}
);
layerId = "D9DFF065-DDB2-4B0F-A853-E0DAE751FB65";
paths = (
{
closed = 1;
nodes = (
"74 351 LINE",
"550 351 LINE",
"550 370 LINE",
"74 370 LINE"
);
}
);
width = 639;
},
{
components = (
{
name = _dot;
transform = "{1, 0, 0, 1, 296, 572}";
},
{
name = _dot;
transform = "{1, 0, 0, 1, 296, 150}";
}
);
layerId = "EF8420CB-322A-4DAC-B980-DA6E6912705F";
paths = (
{
closed = 1;
nodes = (
"45 291 LINE",
"561 291 LINE",
"561 431 LINE",
"45 431 LINE"
);
}
);
width = 606;
}
);
unicode = 00F7;
},
{
glyphname = equal;
layers = (
{
layerId = "D9DFF065-DDB2-4B0F-A853-E0DAE751FB65";
paths = (
{
closed = 1;
nodes = (
"144 461 LINE",
"590 461 LINE",
"590 480 LINE",
"144 480 LINE"
);
},
{
closed = 1;
nodes = (
"144 221 LINE",
"590 221 LINE",
"590 240 LINE",
"144 240 LINE"
);
}
);
width = 734;
},
{
layerId = "EF8420CB-322A-4DAC-B980-DA6E6912705F";
paths = (
{
closed = 1;
nodes = (
"106 401 LINE",
"598 401 LINE",
"598 541 LINE",
"106 541 LINE"
);
},
{
closed = 1;
nodes = (
"106 161 LINE",
"598 161 LINE",
"598 301 LINE",
"106 301 LINE"
);
}
);
width = 704;
}
);
unicode = 003D;
},
{
glyphname = notequal;
layers = (
{
components = (
{
name = equal;
transform = "{1, 0, 0, 1, -48, 0}";
}
);
layerId = "D9DFF065-DDB2-4B0F-A853-E0DAE751FB65";
paths = (
{
closed = 1;
nodes = (
"131 109 LINE",
"146 98 LINE",
"501 575 LINE",
"486 586 LINE"
);
}
);
width = 636;
},
{
components = (
{
name = equal;
transform = "{1, 0, 0, 1, -18, 0}";
}
);
layerId = "EF8420CB-322A-4DAC-B980-DA6E6912705F";
paths = (
{
closed = 1;
nodes = (
"101 75 LINE",
"169 36 LINE",
"497 603 LINE",
"429 642 LINE"
);
}
);
width = 661;
}
);
unicode = 2260;
},
{
glyphname = greater;
layers = (
{
layerId = "D9DFF065-DDB2-4B0F-A853-E0DAE751FB65";
paths = (
{
closed = 1;
nodes = (
"501 320 LINE",
"501 341 LINE",
"75 585 LINE",
"75 565 LINE",
"481 333 LINE",
"481 329 LINE",
"75 109 LINE",
"75 89 LINE"
);
}
);
width = 572;
},
{
layerId = "EF8420CB-322A-4DAC-B980-DA6E6912705F";
paths = (
{
closed = 1;
nodes = (
"557 286 LINE",
"557 387 LINE",
"81 595 LINE",
"81 447 LINE",
"356 335 LINE",
"356 333 LINE",
"81 227 LINE",
"81 79 LINE"
);
}
);
width = 601;
}
);
unicode = 003E;
},
{
glyphname = greaterequal;
layers = (
{
layerId = "D9DFF065-DDB2-4B0F-A853-E0DAE751FB65";
paths = (
{
closed = 1;
nodes = (
"91 81 LINE",
"537 81 LINE",
"537 100 LINE",
"91 100 LINE"
);
},
{
closed = 1;
nodes = (
"508 390 LINE",
"508 411 LINE",
"82 605 LINE",
"82 585 LINE",
"488 403 LINE",
"488 399 LINE",
"82 229 LINE",
"82 209 LINE"
);
}
);
width = 610;
},
{
layerId = "EF8420CB-322A-4DAC-B980-DA6E6912705F";
paths = (
{
closed = 1;
nodes = (
"92 26 LINE",
"584 26 LINE",
"584 141 LINE",
"92 141 LINE"
);
},
{
closed = 1;
nodes = (
"566 363 LINE",
"566 451 LINE",
"90 632 LINE",
"90 503 LINE",
"365 406 LINE",
"365 404 LINE",
"90 311 LINE",
"90 182 LINE"
);
}
);
width = 640;
}
);
unicode = 2265;
},
{
glyphname = plusminus;
layers = (
{
layerId = "D9DFF065-DDB2-4B0F-A853-E0DAE751FB65";
paths = (
{
closed = 1;
nodes = (
"77 400 LINE",
"557 400 LINE",
"557 419 LINE",
"77 419 LINE"
);
},
{
closed = 1;
nodes = (
"310 161 LINE",
"330 161 LINE",
"330 641 LINE",
"310 641 LINE"
);
},
{
closed = 1;
nodes = (
"82 77 LINE",
"558 77 LINE",
"558 96 LINE",
"82 96 LINE"
);
}
);
width = 636;
},
{
layerId = "EF8420CB-322A-4DAC-B980-DA6E6912705F";
paths = (
{
closed = 1;
nodes = (
"68 364 LINE",
"537 364 LINE",
"537 504 LINE",
"68 504 LINE"
);
},
{
closed = 1;
nodes = (
"236 199 LINE",
"376 199 LINE",
"376 669 LINE",
"236 669 LINE"
);
},
{
closed = 1;
nodes = (
"80 34 LINE",
"546 34 LINE",
"546 164 LINE",
"80 164 LINE"
);
}
);
width = 614;
}
);
unicode = 00B1;
},
{
glyphname = approxequal;
layers = (
{
layerId = "D9DFF065-DDB2-4B0F-A853-E0DAE751FB65";
paths = (
{
closed = 1;
nodes = (
"157 444 OFFCURVE",
"195 483 OFFCURVE",
"236 483 CURVE SMOOTH",
"305 483 OFFCURVE",
"376 359 OFFCURVE",
"466 359 CURVE SMOOTH",
"526 359 OFFCURVE",
"566 411 OFFCURVE",
"587 499 CURVE",
"565 503 LINE",
"545 421 OFFCURVE",
"507 379 OFFCURVE",
"463 379 CURVE SMOOTH",
"392 379 OFFCURVE",
"323 503 OFFCURVE",
"236 503 CURVE SMOOTH",
"179 503 OFFCURVE",
"138 455 OFFCURVE",
"111 363 CURVE",
"132 359 LINE"
);
},
{
closed = 1;
nodes = (
"157 234 OFFCURVE",
"195 273 OFFCURVE",
"236 273 CURVE SMOOTH",
"305 273 OFFCURVE",
"376 149 OFFCURVE",
"466 149 CURVE SMOOTH",
"526 149 OFFCURVE",
"566 201 OFFCURVE",
"587 289 CURVE",
"565 293 LINE",
"545 211 OFFCURVE",
"507 169 OFFCURVE",
"463 169 CURVE SMOOTH",
"392 169 OFFCURVE",
"323 293 OFFCURVE",
"236 293 CURVE SMOOTH",
"179 293 OFFCURVE",
"138 245 OFFCURVE",
"111 153 CURVE",
"132 149 LINE"
);
}
);
width = 700;
},
{
layerId = "EF8420CB-322A-4DAC-B980-DA6E6912705F";
paths = (
{
closed = 1;
nodes = (
"215 405 OFFCURVE",
"241 420 OFFCURVE",
"265 420 CURVE SMOOTH",
"314 420 OFFCURVE",
"366 358 OFFCURVE",
"437 358 CURVE SMOOTH",
"508 358 OFFCURVE",
"601 419 OFFCURVE",
"622 538 CURVE",
"490 566 LINE",
"477 520 OFFCURVE",
"462 498 OFFCURVE",
"430 498 CURVE SMOOTH",
"373 498 OFFCURVE",
"327 570 OFFCURVE",
"246 570 CURVE SMOOTH",
"174 570 OFFCURVE",
"92 513 OFFCURVE",
"69 386 CURVE",
"201 358 LINE"
);
},
{
closed = 1;
nodes = (
"214 143 OFFCURVE",
"239 160 OFFCURVE",
"265 160 CURVE SMOOTH",
"315 160 OFFCURVE",
"366 97 OFFCURVE",
"437 97 CURVE SMOOTH",
"507 97 OFFCURVE",
"603 156 OFFCURVE",
"625 279 CURVE",
"492 307 LINE",
"479 263 OFFCURVE",
"465 238 OFFCURVE",
"431 238 CURVE SMOOTH",
"373 238 OFFCURVE",
"327 311 OFFCURVE",
"245 311 CURVE SMOOTH",
"172 311 OFFCURVE",
"89 253 OFFCURVE",
"66 126 CURVE",
"199 97 LINE"
);
}
);
width = 689;
}
);
unicode = 2248;
},
{
glyphname = asciitilde;
layers = (
{
layerId = "D9DFF065-DDB2-4B0F-A853-E0DAE751FB65";
paths = (
{
closed = 1;
nodes = (
"157 324 OFFCURVE",
"195 373 OFFCURVE",
"236 373 CURVE SMOOTH",
"305 373 OFFCURVE",
"376 239 OFFCURVE",
"466 239 CURVE SMOOTH",
"526 239 OFFCURVE",
"566 301 OFFCURVE",
"587 389 CURVE",
"565 393 LINE",
"545 311 OFFCURVE",
"507 259 OFFCURVE",
"463 259 CURVE SMOOTH",
"392 259 OFFCURVE",
"323 393 OFFCURVE",
"236 393 CURVE SMOOTH",
"179 393 OFFCURVE",
"138 335 OFFCURVE",
"111 243 CURVE",
"132 239 LINE"
);
}
);
width = 700;
},
{
layerId = "EF8420CB-322A-4DAC-B980-DA6E6912705F";
paths = (
{
closed = 1;
nodes = (
"223 245 OFFCURVE",
"248 276 OFFCURVE",
"280 276 CURVE SMOOTH",
"331 276 OFFCURVE",
"379 198 OFFCURVE",
"455 198 CURVE SMOOTH",
"531 198 OFFCURVE",
"645 282 OFFCURVE",
"669 415 CURVE",
"525 446 LINE",
"510 395 OFFCURVE",
"484 361 OFFCURVE",
"447 361 CURVE SMOOTH",
"388 361 OFFCURVE",
"344 450 OFFCURVE",
"259 450 CURVE SMOOTH",
"173 450 OFFCURVE",
"88 362 OFFCURVE",
"64 229 CURVE",
"208 198 LINE"
);
}
);
width = 730;
}
);
unicode = 007E;
},
{
glyphname = logicalnot;
layers = (
{
layerId = "D9DFF065-DDB2-4B0F-A853-E0DAE751FB65";
paths = (
{
closed = 1;
nodes = (
"79 351 LINE",
"555 351 LINE",
"555 370 LINE",
"79 370 LINE"
);
},
{
closed = 1;
nodes = (
"535 169 LINE",
"555 169 LINE",
"555 370 LINE",
"535 370 LINE"
);
}
);
width = 699;
},
{
layerId = "EF8420CB-322A-4DAC-B980-DA6E6912705F";
paths = (
{
closed = 1;
nodes = (
"68 291 LINE",
"544 291 LINE",
"544 431 LINE",
"68 431 LINE"
);
},
{
closed = 1;
nodes = (
"371 129 LINE",
"544 129 LINE",
"544 330 LINE",
"371 330 LINE"
);
}
);
width = 650;
}
);
unicode = 00AC;
},
{
glyphname = micro;
layers = (
{
layerId = "D9DFF065-DDB2-4B0F-A853-E0DAE751FB65";
paths = (
{
closed = 1;
nodes = (
"516 0 LINE",
"516 472 LINE",
"496 472 LINE",
"496 74 LINE",
"500 0 LINE"
);
},
{
closed = 1;
nodes = (
"164 -218 LINE",
"164 69 LINE",
"185 17 OFFCURVE",
"231 -12 OFFCURVE",
"301 -12 CURVE SMOOTH",
"376 -12 OFFCURVE",
"456 21 OFFCURVE",
"510 71 CURVE",
"510 87 LINE",
"454 39 OFFCURVE",
"373 7 OFFCURVE",
"304 7 CURVE SMOOTH",
"217 7 OFFCURVE",
"164 57 OFFCURVE",
"164 141 CURVE SMOOTH",
"164 472 LINE",
"144 472 LINE",
"144 -218 LINE"
);
}
);
width = 636;
},
{
layerId = "EF8420CB-322A-4DAC-B980-DA6E6912705F";
paths = (
{
closed = 1;
nodes = (
"590 0 LINE",
"590 497 LINE",
"417 497 LINE",
"417 111 LINE",
"445 0 LINE"
);
},
{
closed = 1;
nodes = (
"279 -218 LINE",
"279 23 LINE",
"293 6 OFFCURVE",
"316 -12 OFFCURVE",
"343 -12 CURVE SMOOTH",
"378 -12 OFFCURVE",
"408 18 OFFCURVE",
"429 64 CURVE",
"429 188 LINE",
"407 156 OFFCURVE",
"382 135 OFFCURVE",
"350 135 CURVE SMOOTH",
"314 135 OFFCURVE",
"279 161 OFFCURVE",
"279 212 CURVE SMOOTH",
"279 497 LINE",
"106 497 LINE",
"106 -218 LINE"
);
}
);
width = 672;
}
);
unicode = 00B5;
},
{
glyphname = at;
layers = (
{
layerId = "D9DFF065-DDB2-4B0F-A853-E0DAE751FB65";
paths = (
{
closed = 1;
nodes = (
"547 -169 OFFCURVE",
"610 -157 OFFCURVE",
"652 -139 CURVE",
"649 -122 LINE",
"604 -138 OFFCURVE",
"543 -149 OFFCURVE",
"485 -149 CURVE SMOOTH",
"267 -149 OFFCURVE",
"116 4 OFFCURVE",
"116 236 CURVE SMOOTH",
"116 480 OFFCURVE",
"269 639 OFFCURVE",
"494 639 CURVE SMOOTH",
"719 639 OFFCURVE",
"867 479 OFFCURVE",
"867 254 CURVE SMOOTH",
"867 113 OFFCURVE",
"803 56 OFFCURVE",
"734 56 CURVE SMOOTH",
"689 56 OFFCURVE",
"657 80 OFFCURVE",
"657 117 CURVE",
"637 117 LINE",
"637 68 OFFCURVE",
"677 36 OFFCURVE",
"734 36 CURVE SMOOTH",
"817 36 OFFCURVE",
"888 103 OFFCURVE",
"888 255 CURVE SMOOTH",
"888 491 OFFCURVE",
"731 659 OFFCURVE",
"494 659 CURVE SMOOTH",
"257 659 OFFCURVE",
"95 492 OFFCURVE",
"95 236 CURVE SMOOTH",
"95 -8 OFFCURVE",
"254 -169 OFFCURVE",
"484 -169 CURVE SMOOTH"
);
},
{
closed = 1;
nodes = (
"546 36 OFFCURVE",
"593 56 OFFCURVE",
"640 103 CURVE",
"640 117 LINE",
"604 78 OFFCURVE",
"554 56 OFFCURVE",
"500 56 CURVE SMOOTH",
"400 56 OFFCURVE",
"330 132 OFFCURVE",
"330 246 CURVE SMOOTH",
"330 359 OFFCURVE",
"397 434 OFFCURVE",
"498 434 CURVE SMOOTH",
"552 434 OFFCURVE",
"604 412 OFFCURVE",
"639 373 CURVE",
"639 388 LINE",
"603 429 OFFCURVE",
"551 454 OFFCURVE",
"493 454 CURVE SMOOTH",
"386 454 OFFCURVE",
"310 371 OFFCURVE",
"310 246 CURVE SMOOTH",
"310 120 OFFCURVE",
"387 36 OFFCURVE",
"494 36 CURVE SMOOTH"
);
},
{
closed = 1;
nodes = (
"657 117 LINE",
"657 442 LINE",
"641 442 LINE",
"637 368 LINE",
"637 117 LINE"
);
}
);
width = 977;
},
{
layerId = "EF8420CB-322A-4DAC-B980-DA6E6912705F";
paths = (
{
closed = 1;
nodes = (
"560 -204 OFFCURVE",
"631 -195 OFFCURVE",
"673 -182 CURVE",
"656 -74 LINE",
"610 -84 OFFCURVE",
"548 -90 OFFCURVE",
"501 -90 CURVE SMOOTH",
"291 -90 OFFCURVE",
"178 51 OFFCURVE",
"178 257 CURVE SMOOTH",
"178 467 OFFCURVE",
"296 590 OFFCURVE",
"493 590 CURVE SMOOTH",
"697 590 OFFCURVE",
"816 457 OFFCURVE",
"816 285 CURVE SMOOTH",
"816 152 OFFCURVE",
"744 130 OFFCURVE",
"727 130 CURVE SMOOTH",
"711 130 OFFCURVE",
"691 148 OFFCURVE",
"691 189 CURVE",
"546 189 LINE",
"546 90 OFFCURVE",
"639 24 OFFCURVE",
"735 24 CURVE SMOOTH",
"862 24 OFFCURVE",
"940 141 OFFCURVE",
"940 294 CURVE SMOOTH",
"940 524 OFFCURVE",
"762 704 OFFCURVE",
"495 704 CURVE SMOOTH",
"230 704 OFFCURVE",
"54 528 OFFCURVE",
"54 254 CURVE SMOOTH",
"54 -19 OFFCURVE",
"229 -204 OFFCURVE",
"496 -204 CURVE SMOOTH"
);
},
{
closed = 1;
nodes = (
"518 24 OFFCURVE",
"564 51 OFFCURVE",
"595 94 CURVE",
"546 188 LINE",
"536 158 OFFCURVE",
"515 140 OFFCURVE",
"494 140 CURVE SMOOTH",
"460 140 OFFCURVE",
"440 189 OFFCURVE",
"440 257 CURVE SMOOTH",
"440 317 OFFCURVE",
"456 356 OFFCURVE",
"496 356 CURVE SMOOTH",
"529 356 OFFCURVE",
"550 328 OFFCURVE",
"560 290 CURVE",
"560 416 LINE",
"541 451 OFFCURVE",
"503 472 OFFCURVE",
"455 472 CURVE SMOOTH",
"354 472 OFFCURVE",
"287 379 OFFCURVE",
"287 247 CURVE SMOOTH",
"287 109 OFFCURVE",
"361 24 OFFCURVE",
"461 24 CURVE SMOOTH"
);
},
{
closed = 1;
nodes = (
"691 157 LINE",
"691 460 LINE",
"570 460 LINE",
"546 369 LINE",
"546 157 LINE"
);
}
);
width = 986;
}
);
unicode = 0040;
},
{
glyphname = ampersand;
layers = (
{
layerId = "D9DFF065-DDB2-4B0F-A853-E0DAE751FB65";
paths = (
{
closed = 1;
nodes = (
"432 400 OFFCURVE",
"88 415 OFFCURVE",
"88 179 CURVE SMOOTH",
"88 64 OFFCURVE",
"170 -12 OFFCURVE",
"288 -12 CURVE SMOOTH",
"408 -12 OFFCURVE",
"486 67 OFFCURVE",
"572 210 CURVE",
"556 225 LINE",
"454 49 OFFCURVE",
"376 8 OFFCURVE",
"291 8 CURVE SMOOTH",
"183 8 OFFCURVE",
"109 76 OFFCURVE",
"109 179 CURVE SMOOTH",
"109 400 OFFCURVE",
"452 380 OFFCURVE",
"452 575 CURVE SMOOTH",
"452 663 OFFCURVE",
"383 712 OFFCURVE",
"302 712 CURVE SMOOTH",
"201 712 OFFCURVE",
"149 637 OFFCURVE",
"149 549 CURVE SMOOTH",
"149 412 OFFCURVE",
"273 275 OFFCURVE",
"599 -13 CURVE",
"613 0 LINE",
"321 264 OFFCURVE",
"169 410 OFFCURVE",
"169 548 CURVE SMOOTH",
"169 622 OFFCURVE",
"213 692 OFFCURVE",
"303 692 CURVE SMOOTH",
"372 692 OFFCURVE",
"432 650 OFFCURVE",
"432 577 CURVE SMOOTH"
);
}
);
width = 676;
},
{
layerId = "EF8420CB-322A-4DAC-B980-DA6E6912705F";
paths = (
{
closed = 1;
nodes = (
"398 433 OFFCURVE",
"42 439 OFFCURVE",
"42 197 CURVE SMOOTH",
"42 72 OFFCURVE",
"136 -12 OFFCURVE",
"273 -12 CURVE SMOOTH",
"421 -12 OFFCURVE",
"582 85 OFFCURVE",
"679 232 CURVE",
"584 307 LINE",
"515 197 OFFCURVE",
"388 128 OFFCURVE",
"291 128 CURVE SMOOTH",
"227 128 OFFCURVE",
"196 158 OFFCURVE",
"196 204 CURVE SMOOTH",
"196 359 OFFCURVE",
"551 321 OFFCURVE",
"551 540 CURVE SMOOTH",
"551 647 OFFCURVE",
"465 718 OFFCURVE",
"342 718 CURVE SMOOTH",
"188 718 OFFCURVE",
"127 607 OFFCURVE",
"127 523 CURVE SMOOTH",
"127 380 OFFCURVE",
"305 200 OFFCURVE",
"557 -34 CURVE",
"666 75 LINE",
"432 277 OFFCURVE",
"281 415 OFFCURVE",
"281 518 CURVE SMOOTH",
"281 556 OFFCURVE",
"302 588 OFFCURVE",
"342 588 CURVE SMOOTH",
"372 588 OFFCURVE",
"398 569 OFFCURVE",
"398 540 CURVE SMOOTH"
);
}
);
width = 710;
}
);
unicode = 0026;
},
{
glyphname = paragraph;
layers = (
{
layerId = "D9DFF065-DDB2-4B0F-A853-E0DAE751FB65";
paths = (
{
closed = 1;
nodes = (
"345 -162 LINE",
"345 699 LINE",
"526 699 LINE",
"526 -162 LINE",
"546 -162 LINE",
"546 718 LINE",
"326 718 LINE SMOOTH",
"175 718 OFFCURVE",
"75 635 OFFCURVE",
"75 511 CURVE SMOOTH",
"75 387 OFFCURVE",
"175 304 OFFCURVE",
"325 304 CURVE",
"325 -162 LINE"
);
}
);
width = 690;
},
{
layerId = "EF8420CB-322A-4DAC-B980-DA6E6912705F";
paths = (
{
closed = 1;
nodes = (
"404 -182 LINE",
"404 588 LINE",
"502 588 LINE",
"502 -182 LINE",
"675 -182 LINE",
"675 728 LINE",
"308 728 LINE SMOOTH",
"145 728 OFFCURVE",
"37 640 OFFCURVE",
"37 509 CURVE SMOOTH",
"37 375 OFFCURVE",
"115 286 OFFCURVE",
"231 286 CURVE",
"231 -182 LINE"
);
}
);
width = 781;
}
);
unicode = 00B6;
},
{
glyphname = section;
layers = (
{
layerId = "D9DFF065-DDB2-4B0F-A853-E0DAE751FB65";
paths = (
{
closed = 1;
nodes = (
"390 -12 OFFCURVE",
"461 37 OFFCURVE",
"461 116 CURVE SMOOTH",
"461 287 OFFCURVE",
"129 219 OFFCURVE",
"129 365 CURVE SMOOTH",
"129 430 OFFCURVE",
"195 468 OFFCURVE",
"281 468 CURVE",
"280 483 LINE",
"182 483 OFFCURVE",
"108 441 OFFCURVE",
"108 364 CURVE SMOOTH",
"108 202 OFFCURVE",
"441 269 OFFCURVE",
"441 116 CURVE SMOOTH",
"441 49 OFFCURVE",
"377 8 OFFCURVE",
"285 8 CURVE SMOOTH",
"229 8 OFFCURVE",
"168 23 OFFCURVE",
"104 56 CURVE",
"101 39 LINE",
"159 6 OFFCURVE",
"221 -12 OFFCURVE",
"285 -12 CURVE SMOOTH"
);
},
{
closed = 1;
nodes = (
"392 225 OFFCURVE",
"463 266 OFFCURVE",
"463 345 CURVE SMOOTH",
"463 516 OFFCURVE",
"131 448 OFFCURVE",
"131 594 CURVE SMOOTH",
"131 659 OFFCURVE",
"197 693 OFFCURVE",
"283 693 CURVE SMOOTH",
"342 693 OFFCURVE",
"400 677 OFFCURVE",
"435 653 CURVE",
"438 670 LINE",
"403 696 OFFCURVE",
"344 713 OFFCURVE",
"282 713 CURVE SMOOTH",
"184 713 OFFCURVE",
"110 670 OFFCURVE",
"110 593 CURVE SMOOTH",
"110 431 OFFCURVE",
"443 498 OFFCURVE",
"443 345 CURVE SMOOTH",
"443 278 OFFCURVE",
"379 237 OFFCURVE",
"335 237 CURVE",
"353 225 LINE"
);
}
);
width = 565;
},
{
layerId = "EF8420CB-322A-4DAC-B980-DA6E6912705F";
paths = (
{
closed = 1;
nodes = (
"426 -35 OFFCURVE",
"510 21 OFFCURVE",
"510 131 CURVE SMOOTH",
"510 316 OFFCURVE",
"221 267 OFFCURVE",
"221 344 CURVE SMOOTH",
"221 369 OFFCURVE",
"247 403 OFFCURVE",
"275 429 CURVE",
"167 479 LINE",
"110 459 OFFCURVE",
"66 403 OFFCURVE",
"66 329 CURVE SMOOTH",
"66 135 OFFCURVE",
"335 183 OFFCURVE",
"335 123 CURVE SMOOTH",
"335 108 OFFCURVE",
"319 98 OFFCURVE",
"278 98 CURVE SMOOTH",
"232 98 OFFCURVE",
"174 111 OFFCURVE",
"118 132 CURVE",
"91 0 LINE",
"148 -22 OFFCURVE",
"219 -35 OFFCURVE",
"286 -35 CURVE SMOOTH"
);
},
{
closed = 1;
nodes = (
"487 240 OFFCURVE",
"517 292 OFFCURVE",
"517 356 CURVE SMOOTH",
"517 546 OFFCURVE",
"268 496 OFFCURVE",
"268 553 CURVE SMOOTH",
"268 567 OFFCURVE",
"283 575 OFFCURVE",
"318 575 CURVE SMOOTH",
"362 575 OFFCURVE",
"407 562 OFFCURVE",
"457 540 CURVE",
"484 670 LINE",
"441 697 OFFCURVE",
"372 715 OFFCURVE",
"305 715 CURVE SMOOTH",
"190 715 OFFCURVE",
"93 663 OFFCURVE",
"93 547 CURVE SMOOTH",
"93 364 OFFCURVE",
"362 412 OFFCURVE",
"362 332 CURVE SMOOTH",
"362 310 OFFCURVE",
"336 281 OFFCURVE",
"296 260 CURVE",
"441 210 LINE"
);
}
);
width = 589;
}
);
unicode = 00A7;
},
{
glyphname = copyright;
layers = (
{
layerId = "D9DFF065-DDB2-4B0F-A853-E0DAE751FB65";
paths = (
{
closed = 1;
nodes = (
"556 175 LINE",
"532 162 OFFCURVE",
"492 153 OFFCURVE",
"456 153 CURVE SMOOTH",
"350 153 OFFCURVE",
"280 231 OFFCURVE",
"280 350 CURVE SMOOTH",
"280 468 OFFCURVE",
"349 548 OFFCURVE",
"459 548 CURVE SMOOTH",
"493 548 OFFCURVE",
"534 540 OFFCURVE",
"556 528 CURVE",
"558 547 LINE",
"537 560 OFFCURVE",
"494 568 OFFCURVE",
"457 568 CURVE SMOOTH",
"336 568 OFFCURVE",
"259 480 OFFCURVE",
"259 350 CURVE SMOOTH",
"259 219 OFFCURVE",
"337 133 OFFCURVE",
"454 133 CURVE SMOOTH",
"492 133 OFFCURVE",
"533 142 OFFCURVE",
"558 156 CURVE"
);
},
{
closed = 1;
nodes = (
"654 -12 OFFCURVE",
"816 150 OFFCURVE",
"816 350 CURVE SMOOTH",
"816 549 OFFCURVE",
"654 712 OFFCURVE",
"455 712 CURVE SMOOTH",
"255 712 OFFCURVE",
"93 549 OFFCURVE",
"93 350 CURVE SMOOTH",
"93 150 OFFCURVE",
"255 -12 OFFCURVE",
"455 -12 CURVE SMOOTH"
);
},
{
closed = 1;
nodes = (
"267 8 OFFCURVE",
"114 162 OFFCURVE",
"114 350 CURVE SMOOTH",
"114 537 OFFCURVE",
"267 692 OFFCURVE",
"455 692 CURVE SMOOTH",
"642 692 OFFCURVE",
"795 537 OFFCURVE",
"795 350 CURVE SMOOTH",
"795 162 OFFCURVE",
"642 8 OFFCURVE",
"455 8 CURVE SMOOTH"
);
}
);
width = 909;
userData = {
RMXScaler = {
height = 60;
verticalShift = 100;
width = 60;
};
};
},
{
layerId = "EF8420CB-322A-4DAC-B980-DA6E6912705F";
paths = (
{
closed = 1;
nodes = (
"523 289 LINE",
"497 278 OFFCURVE",
"464 271 OFFCURVE",
"442 271 CURVE SMOOTH",
"392 271 OFFCURVE",
"360 303 OFFCURVE",
"360 353 CURVE SMOOTH",
"360 402 OFFCURVE",
"393 434 OFFCURVE",
"448 434 CURVE SMOOTH",
"469 434 OFFCURVE",
"501 428 OFFCURVE",
"523 418 CURVE",
"534 518 LINE",
"511 534 OFFCURVE",
"471 545 OFFCURVE",
"433 545 CURVE SMOOTH",
"316 545 OFFCURVE",
"239 468 OFFCURVE",
"239 353 CURVE SMOOTH",
"239 238 OFFCURVE",
"315 161 OFFCURVE",
"429 161 CURVE SMOOTH",
"469 161 OFFCURVE",
"511 172 OFFCURVE",
"534 188 CURVE"
);
},
{
closed = 1;
nodes = (
"621 -12 OFFCURVE",
"785 151 OFFCURVE",
"785 353 CURVE SMOOTH",
"785 554 OFFCURVE",
"621 718 OFFCURVE",
"420 718 CURVE SMOOTH",
"218 718 OFFCURVE",
"54 554 OFFCURVE",
"54 353 CURVE SMOOTH",
"54 151 OFFCURVE",
"218 -12 OFFCURVE",
"420 -12 CURVE SMOOTH"
);
},
{
closed = 1;
nodes = (
"273 87 OFFCURVE",
"153 206 OFFCURVE",
"153 353 CURVE SMOOTH",
"153 499 OFFCURVE",
"273 619 OFFCURVE",
"420 619 CURVE SMOOTH",
"566 619 OFFCURVE",
"686 499 OFFCURVE",
"686 353 CURVE SMOOTH",
"686 206 OFFCURVE",
"566 87 OFFCURVE",
"420 87 CURVE SMOOTH"
);
}
);
width = 839;
userData = {
RMXScaler = {
height = 60;
verticalShift = 100;
weight = -40;
width = 60;
};
};
}
);
unicode = 00A9;
userData = {
RMXScaler = {
source = C;
};
};
},
{
glyphname = registered;
layers = (
{
layerId = "D9DFF065-DDB2-4B0F-A853-E0DAE751FB65";
paths = (
{
closed = 1;
nodes = (
"353 450 LINE",
"375 450 LINE",
"317 544 LINE",
"295 544 LINE"
);
},
{
closed = 1;
nodes = (
"241 450 LINE",
"241 642 LINE",
"300 642 LINE SMOOTH",
"329 642 OFFCURVE",
"349 624 OFFCURVE",
"349 599 CURVE SMOOTH",
"349 573 OFFCURVE",
"329 557 OFFCURVE",
"300 557 CURVE SMOOTH",
"231 557 LINE",
"231 538 LINE",
"302 538 LINE SMOOTH",
"342 538 OFFCURVE",
"369 562 OFFCURVE",
"369 599 CURVE SMOOTH",
"369 636 OFFCURVE",
"342 661 OFFCURVE",
"302 661 CURVE SMOOTH",
"221 661 LINE",
"221 450 LINE"
);
},
{
closed = 1;
nodes = (
"387 375 OFFCURVE",
"467 455 OFFCURVE",
"467 554 CURVE SMOOTH",
"467 653 OFFCURVE",
"387 733 OFFCURVE",
"288 733 CURVE SMOOTH",
"189 733 OFFCURVE",
"109 653 OFFCURVE",
"109 554 CURVE SMOOTH",
"109 455 OFFCURVE",
"189 375 OFFCURVE",
"288 375 CURVE SMOOTH"
);
},
{
closed = 1;
nodes = (
"202 395 OFFCURVE",
"130 468 OFFCURVE",
"130 554 CURVE SMOOTH",
"130 640 OFFCURVE",
"202 713 OFFCURVE",
"288 713 CURVE SMOOTH",
"374 713 OFFCURVE",
"446 640 OFFCURVE",
"446 554 CURVE SMOOTH",
"446 468 OFFCURVE",
"374 395 OFFCURVE",
"288 395 CURVE SMOOTH"
);
}
);
width = 577;
userData = {
RMXScaler = {
height = 30;
verticalShift = 450;
width = 30;
};
};
},
{
layerId = "EF8420CB-322A-4DAC-B980-DA6E6912705F";
paths = (
{
closed = 1;
nodes = (
"304 458 LINE",
"350 458 LINE",
"301 538 LINE",
"258 538 LINE"
);
},
{
closed = 1;
nodes = (
"233 458 LINE",
"233 615 LINE",
"270 615 LINE SMOOTH",
"289 615 OFFCURVE",
"301 605 OFFCURVE",
"301 589 CURVE SMOOTH",
"301 574 OFFCURVE",
"289 563 OFFCURVE",
"270 563 CURVE SMOOTH",
"211 563 LINE",
"211 525 LINE",
"272 525 LINE SMOOTH",
"313 525 OFFCURVE",
"341 550 OFFCURVE",
"341 589 CURVE SMOOTH",
"341 628 OFFCURVE",
"313 654 OFFCURVE",
"272 654 CURVE SMOOTH",
"191 654 LINE",
"191 458 LINE"
);
},
{
closed = 1;
nodes = (
"372 359 OFFCURVE",
"459 446 OFFCURVE",
"459 554 CURVE SMOOTH",
"459 662 OFFCURVE",
"372 749 OFFCURVE",
"264 749 CURVE SMOOTH",
"156 749 OFFCURVE",
"69 662 OFFCURVE",
"69 554 CURVE SMOOTH",
"69 446 OFFCURVE",
"156 359 OFFCURVE",
"264 359 CURVE SMOOTH"
);
},
{
closed = 1;
nodes = (
"187 415 OFFCURVE",
"125 477 OFFCURVE",
"125 554 CURVE SMOOTH",
"125 631 OFFCURVE",
"187 693 OFFCURVE",
"264 693 CURVE SMOOTH",
"341 693 OFFCURVE",
"403 631 OFFCURVE",
"403 554 CURVE SMOOTH",
"403 477 OFFCURVE",
"341 415 OFFCURVE",
"264 415 CURVE SMOOTH"
);
}
);
width = 528;
userData = {
RMXScaler = {
height = 30;
verticalShift = 450;
weight = -130;
width = 30;
};
};
}
);
unicode = 00AE;
userData = {
RMXScaler = {
source = R;
};
};
},
{
glyphname = degree;
layers = (
{
layerId = "D9DFF065-DDB2-4B0F-A853-E0DAE751FB65";
paths = (
{
closed = 1;
nodes = (
"254 550 OFFCURVE",
"290 586 OFFCURVE",
"290 631 CURVE SMOOTH",
"290 676 OFFCURVE",
"254 712 OFFCURVE",
"209 712 CURVE SMOOTH",
"164 712 OFFCURVE",
"128 676 OFFCURVE",
"128 631 CURVE SMOOTH",
"128 586 OFFCURVE",
"164 550 OFFCURVE",
"209 550 CURVE SMOOTH"
);
},
{
closed = 1;
nodes = (
"176 570 OFFCURVE",
"148 598 OFFCURVE",
"148 631 CURVE SMOOTH",
"148 664 OFFCURVE",
"176 692 OFFCURVE",
"209 692 CURVE SMOOTH",
"242 692 OFFCURVE",
"270 664 OFFCURVE",
"270 631 CURVE SMOOTH",
"270 598 OFFCURVE",
"242 570 OFFCURVE",
"209 570 CURVE SMOOTH"
);
}
);
width = 418;
},
{
layerId = "EF8420CB-322A-4DAC-B980-DA6E6912705F";
paths = (
{
closed = 1;
nodes = (
"333 399 OFFCURVE",
"397 463 OFFCURVE",
"397 559 CURVE SMOOTH",
"397 655 OFFCURVE",
"333 719 OFFCURVE",
"238 719 CURVE SMOOTH",
"142 719 OFFCURVE",
"78 655 OFFCURVE",
"78 559 CURVE SMOOTH",
"78 463 OFFCURVE",
"142 399 OFFCURVE",
"238 399 CURVE SMOOTH"
);
},
{
closed = 1;
nodes = (
"205 507 OFFCURVE",
"185 526 OFFCURVE",
"185 559 CURVE SMOOTH",
"185 592 OFFCURVE",
"205 612 OFFCURVE",
"238 612 CURVE SMOOTH",
"271 612 OFFCURVE",
"290 592 OFFCURVE",
"290 559 CURVE SMOOTH",
"290 526 OFFCURVE",
"271 507 OFFCURVE",
"238 507 CURVE SMOOTH"
);
}
);
width = 476;
}
);
unicode = 00B0;
},
{
glyphname = bar;
layers = (
{
layerId = "D9DFF065-DDB2-4B0F-A853-E0DAE751FB65";
paths = (
{
closed = 1;
nodes = (
"144 -159 LINE",
"163 -159 LINE",
"163 700 LINE",
"144 700 LINE"
);
}
);
width = 307;
},
{
layerId = "EF8420CB-322A-4DAC-B980-DA6E6912705F";
paths = (
{
closed = 1;
nodes = (
"106 -159 LINE",
"279 -159 LINE",
"279 707 LINE",
"106 707 LINE"
);
}
);
width = 385;
}
);
unicode = 007C;
},
{
glyphname = brokenbar;
layers = (
{
layerId = "D9DFF065-DDB2-4B0F-A853-E0DAE751FB65";
paths = (
{
closed = 1;
nodes = (
"144 149 LINE",
"144 -159 LINE",
"163 -159 LINE",
"163 149 LINE"
);
},
{
closed = 1;
nodes = (
"163 392 LINE",
"163 700 LINE",
"144 700 LINE",
"144 392 LINE"
);
}
);
width = 307;
},
{
layerId = "EF8420CB-322A-4DAC-B980-DA6E6912705F";
paths = (
{
closed = 1;
nodes = (
"106 125 LINE",
"106 -159 LINE",
"279 -159 LINE",
"279 125 LINE"
);
},
{
closed = 1;
nodes = (
"279 423 LINE",
"279 707 LINE",
"106 707 LINE",
"106 423 LINE"
);
}
);
width = 385;
}
);
unicode = 00A6;
},
{
glyphname = dagger;
layers = (
{
layerId = "D9DFF065-DDB2-4B0F-A853-E0DAE751FB65";
paths = (
{
closed = 1;
nodes = (
"222 556 LINE",
"374 554 LINE",
"374 574 LINE",
"222 572 LINE"
);
},
{
closed = 1;
nodes = (
"213 572 LINE",
"64 574 LINE",
"64 554 LINE",
"213 556 LINE"
);
},
{
closed = 1;
nodes = (
"210 564 LINE",
"208 0 LINE",
"228 0 LINE",
"225 564 LINE",
"228 718 LINE",
"208 718 LINE"
);
}
);
width = 438;
},
{
layerId = "EF8420CB-322A-4DAC-B980-DA6E6912705F";
paths = (
{
closed = 1;
nodes = (
"212 508 LINE",
"364 494 LINE",
"364 634 LINE",
"212 620 LINE"
);
},
{
closed = 1;
nodes = (
"203 620 LINE",
"54 634 LINE",
"54 494 LINE",
"203 508 LINE"
);
},
{
closed = 1;
nodes = (
"139 564 LINE",
"122 0 LINE",
"295 0 LINE",
"269 564 LINE",
"295 718 LINE",
"122 718 LINE"
);
}
);
width = 415;
}
);
unicode = 2020;
},
{
glyphname = daggerdbl;
layers = (
{
layerId = "D9DFF065-DDB2-4B0F-A853-E0DAE751FB65";
paths = (
{
closed = 1;
nodes = (
"236 556 LINE",
"388 554 LINE",
"388 574 LINE",
"236 572 LINE"
);
},
{
closed = 1;
nodes = (
"227 572 LINE",
"78 574 LINE",
"78 554 LINE",
"227 556 LINE"
);
},
{
closed = 1;
nodes = (
"224 550 LINE",
"222 359 LINE",
"224 168 LINE",
"222 0 LINE",
"242 0 LINE",
"239 168 LINE",
"241 359 LINE",
"239 550 LINE",
"242 718 LINE",
"222 718 LINE"
);
},
{
closed = 1;
nodes = (
"236 159 LINE",
"388 157 LINE",
"388 177 LINE",
"236 175 LINE"
);
},
{
closed = 1;
nodes = (
"227 175 LINE",
"78 177 LINE",
"78 157 LINE",
"227 159 LINE"
);
}
);
width = 466;
},
{
layerId = "EF8420CB-322A-4DAC-B980-DA6E6912705F";
paths = (
{
closed = 1;
nodes = (
"234 508 LINE",
"386 494 LINE",
"386 634 LINE",
"234 620 LINE"
);
},
{
closed = 1;
nodes = (
"225 620 LINE",
"76 634 LINE",
"76 494 LINE",
"225 508 LINE"
);
},
{
closed = 1;
nodes = (
"161 550 LINE",
"144 359 LINE",
"161 168 LINE",
"144 0 LINE",
"317 0 LINE",
"291 168 LINE",
"308 359 LINE",
"291 550 LINE",
"317 718 LINE",
"144 718 LINE"
);
},
{
closed = 1;
nodes = (
"234 111 LINE",
"386 97 LINE",
"386 237 LINE",
"234 223 LINE"
);
},
{
closed = 1;
nodes = (
"225 223 LINE",
"76 237 LINE",
"76 97 LINE",
"225 111 LINE"
);
}
);
width = 461;
}
);
unicode = 2021;
},
{
glyphname = asciicircum;
layers = (
{
layerId = "D9DFF065-DDB2-4B0F-A853-E0DAE751FB65";
paths = (
{
closed = 1;
nodes = (
"257 682 LINE",
"260 682 LINE",
"421 520 LINE",
"435 532 LINE",
"268 700 LINE",
"249 700 LINE",
"81 535 LINE",
"95 523 LINE"
);
}
);
width = 516;
},
{
layerId = "EF8420CB-322A-4DAC-B980-DA6E6912705F";
paths = (
{
closed = 1;
nodes = (
"285 587 LINE",
"264 587 LINE",
"414 439 LINE",
"497 526 LINE",
"318 707 LINE",
"232 707 LINE",
"46 525 LINE",
"129 438 LINE"
);
}
);
width = 543;
}
);
unicode = 005E;
},
{
glyphname = caroncomb.alt;
layers = (
{
anchors = (
{
name = _topright;
position = "{106, 472}";
}
);
layerId = "D9DFF065-DDB2-4B0F-A853-E0DAE751FB65";
paths = (
{
closed = 1;
nodes = (
"74 521 LINE",
"90 517 LINE",
"137 688 LINE",
"119 694 LINE"
);
}
);
width = 210;
},
{
anchors = (
{
name = _topright;
position = "{174, 497}";
}
);
layerId = "EF8420CB-322A-4DAC-B980-DA6E6912705F";
paths = (
{
closed = 1;
nodes = (
"108 548 LINE",
"203 541 LINE",
"240 755 LINE",
"114 764 LINE"
);
}
);
width = 345;
}
);
},
{
glyphname = ringcomb;
layers = (
{
anchors = (
{
name = _top;
position = "{183, 497}";
},
{
name = top;
position = "{183, 821}";
}
);
layerId = "EF8420CB-322A-4DAC-B980-DA6E6912705F";
paths = (
{
closed = 1;
nodes = (
"272 553 OFFCURVE",
"332 613 OFFCURVE",
"332 702 CURVE SMOOTH",
"332 791 OFFCURVE",
"272 851 OFFCURVE",
"183 851 CURVE SMOOTH",
"94 851 OFFCURVE",
"34 791 OFFCURVE",
"34 702 CURVE SMOOTH",
"34 613 OFFCURVE",
"94 553 OFFCURVE",
"183 553 CURVE SMOOTH"
);
},
{
closed = 1;
nodes = (
"161 662 OFFCURVE",
"143 680 OFFCURVE",
"143 707 CURVE SMOOTH",
"143 733 OFFCURVE",
"161 751 OFFCURVE",
"188 751 CURVE SMOOTH",
"214 751 OFFCURVE",
"232 733 OFFCURVE",
"232 707 CURVE SMOOTH",
"232 680 OFFCURVE",
"214 662 OFFCURVE",
"188 662 CURVE SMOOTH"
);
}
);
width = 366;
},
{
anchors = (
{
name = _top;
position = "{154, 472}";
},
{
name = top;
position = "{154, 692}";
}
);
layerId = "D9DFF065-DDB2-4B0F-A853-E0DAE751FB65";
paths = (
{
closed = 1;
nodes = (
"194 591 OFFCURVE",
"226 623 OFFCURVE",
"226 663 CURVE SMOOTH",
"226 703 OFFCURVE",
"194 735 OFFCURVE",
"154 735 CURVE SMOOTH",
"114 735 OFFCURVE",
"82 703 OFFCURVE",
"82 663 CURVE SMOOTH",
"82 623 OFFCURVE",
"114 591 OFFCURVE",
"154 591 CURVE SMOOTH"
);
},
{
closed = 1;
nodes = (
"125 609 OFFCURVE",
"100 634 OFFCURVE",
"100 663 CURVE SMOOTH",
"100 692 OFFCURVE",
"125 717 OFFCURVE",
"154 717 CURVE SMOOTH",
"183 717 OFFCURVE",
"208 692 OFFCURVE",
"208 663 CURVE SMOOTH",
"208 634 OFFCURVE",
"183 609 OFFCURVE",
"154 609 CURVE SMOOTH"
);
}
);
width = 309;
}
);
unicode = 030A;
},
{
glyphname = tildecomb;
layers = (
{
anchors = (
{
name = _top;
position = "{217, 497}";
},
{
name = top;
position = "{219, 749}";
}
);
layerId = "EF8420CB-322A-4DAC-B980-DA6E6912705F";
paths = (
{
closed = 1;
nodes = (
"306 710 OFFCURVE",
"294 691 OFFCURVE",
"270 691 CURVE SMOOTH",
"237 691 OFFCURVE",
"202 739 OFFCURVE",
"149 739 CURVE SMOOTH",
"97 739 OFFCURVE",
"51 692 OFFCURVE",
"8 632 CURVE",
"96 561 LINE",
"119 587 OFFCURVE",
"139 609 OFFCURVE",
"164 609 CURVE SMOOTH",
"199 609 OFFCURVE",
"235 561 OFFCURVE",
"284 561 CURVE SMOOTH",
"331 561 OFFCURVE",
"384 605 OFFCURVE",
"425 662 CURVE",
"326 739 LINE"
);
}
);
width = 427;
},
{
anchors = (
{
name = _top;
position = "{213, 472}";
},
{
name = top;
position = "{213, 632}";
}
);
layerId = "D9DFF065-DDB2-4B0F-A853-E0DAE751FB65";
paths = (
{
closed = 1;
nodes = (
"324 639 OFFCURVE",
"301 606 OFFCURVE",
"274 606 CURVE SMOOTH",
"237 606 OFFCURVE",
"205 692 OFFCURVE",
"161 692 CURVE SMOOTH",
"133 692 OFFCURVE",
"97 658 OFFCURVE",
"74 594 CURVE",
"89 587 LINE",
"107 640 OFFCURVE",
"137 672 OFFCURVE",
"161 672 CURVE SMOOTH",
"196 672 OFFCURVE",
"227 586 OFFCURVE",
"275 586 CURVE SMOOTH",
"306 586 OFFCURVE",
"339 621 OFFCURVE",
"350 680 CURVE",
"335 687 LINE"
);
}
);
width = 426;
}
);
unicode = 0303;
},
{
glyphname = hookabovecomb;
layers = (
{
anchors = (
{
name = _top;
position = "{137, 472}";
},
{
name = top;
position = "{137, 730}";
}
);
layerId = "D9DFF065-DDB2-4B0F-A853-E0DAE751FB65";
paths = (
{
closed = 1;
nodes = (
"186 566 OFFCURVE",
"221 612 OFFCURVE",
"221 656 CURVE SMOOTH",
"221 700 OFFCURVE",
"188 730 OFFCURVE",
"138 730 CURVE SMOOTH",
"110 730 OFFCURVE",
"76 720 OFFCURVE",
"53 706 CURVE",
"59 689 LINE",
"82 702 OFFCURVE",
"112 710 OFFCURVE",
"135 710 CURVE SMOOTH",
"175 710 OFFCURVE",
"201 688 OFFCURVE",
"201 656 CURVE SMOOTH",
"201 623 OFFCURVE",
"172 584 OFFCURVE",
"128 558 CURVE",
"134 541 LINE"
);
}
);
width = 296;
},
{
anchors = (
{
name = _top;
position = "{133, 497}";
},
{
name = top;
position = "{133, 786}";
}
);
layerId = "EF8420CB-322A-4DAC-B980-DA6E6912705F";
paths = (
{
closed = 1;
nodes = (
"200 574 OFFCURVE",
"244 632 OFFCURVE",
"244 693 CURVE SMOOTH",
"244 754 OFFCURVE",
"201 796 OFFCURVE",
"136 796 CURVE SMOOTH",
"101 796 OFFCURVE",
"55 784 OFFCURVE",
"22 766 CURVE",
"42 680 LINE",
"61 691 OFFCURVE",
"85 698 OFFCURVE",
"102 698 CURVE SMOOTH",
"122 698 OFFCURVE",
"135 687 OFFCURVE",
"135 668 CURVE SMOOTH",
"135 648 OFFCURVE",
"120 624 OFFCURVE",
"99 612 CURVE",
"123 546 LINE"
);
}
);
width = 273;
}
);
unicode = 0309;
},
{
glyphname = horncomb;
layers = (
{
anchors = (
{
name = _topright;
position = "{98, 472}";
},
{
name = topright;
position = "{98, 472}";
}
);
layerId = "D9DFF065-DDB2-4B0F-A853-E0DAE751FB65";
paths = (
{
closed = 1;
nodes = (
"94 452 OFFCURVE",
"154 516 OFFCURVE",
"154 613 CURVE",
"134 613 LINE",
"134 529 OFFCURVE",
"82 473 OFFCURVE",
"27 472 CURVE",
"27 452 LINE"
);
}
);
width = 280;
},
{
anchors = (
{
name = _topright;
position = "{129, 497}";
},
{
name = topright;
position = "{129, 497}";
}
);
layerId = "EF8420CB-322A-4DAC-B980-DA6E6912705F";
paths = (
{
closed = 1;
nodes = (
"152 391 OFFCURVE",
"246 483 OFFCURVE",
"246 606 CURVE",
"112 606 LINE",
"112 547 OFFCURVE",
"90 497 OFFCURVE",
"42 497 CURVE",
"42 391 LINE"
);
}
);
width = 600;
}
);
unicode = 031B;
},
{
glyphname = cedillacomb;
layers = (
{
anchors = (
{
name = _bottom;
position = "{130, 0}";
},
{
name = bottom;
position = "{150, -230}";
}
);
layerId = "D9DFF065-DDB2-4B0F-A853-E0DAE751FB65";
paths = (
{
closed = 1;
nodes = (
"165 -230 OFFCURVE",
"213 -182 OFFCURVE",
"213 -118 CURVE SMOOTH",
"213 -70 OFFCURVE",
"185 -26 OFFCURVE",
"138 3 CURVE",
"118 3 LINE",
"159 -29 OFFCURVE",
"192 -74 OFFCURVE",
"192 -121 CURVE SMOOTH",
"192 -169 OFFCURVE",
"157 -210 OFFCURVE",
"92 -210 CURVE SMOOTH",
"63 -210 OFFCURVE",
"23 -202 OFFCURVE",
"-1 -189 CURVE",
"-7 -206 LINE",
"19 -220 OFFCURVE",
"59 -230 OFFCURVE",
"93 -230 CURVE SMOOTH"
);
}
);
width = 286;
},
{
anchors = (
{
name = _bottom;
position = "{188, 0}";
},
{
name = bottom;
position = "{188, -213}";
}
);
layerId = "EF8420CB-322A-4DAC-B980-DA6E6912705F";
paths = (
{
closed = 1;
nodes = (
"226 -230 OFFCURVE",
"279 -177 OFFCURVE",
"279 -98 CURVE SMOOTH",
"279 -57 OFFCURVE",
"264 -12 OFFCURVE",
"241 13 CURVE",
"119 13 LINE",
"133 -1 OFFCURVE",
"147 -32 OFFCURVE",
"147 -59 CURVE SMOOTH",
"147 -92 OFFCURVE",
"125 -113 OFFCURVE",
"91 -113 CURVE SMOOTH",
"71 -113 OFFCURVE",
"36 -106 OFFCURVE",
"13 -95 CURVE",
"-14 -205 LINE",
"20 -220 OFFCURVE",
"82 -230 OFFCURVE",
"126 -230 CURVE SMOOTH"
);
}
);
width = 313;
}
);
unicode = 0327;
},
{
glyphname = ogonekcomb;
layers = (
{
anchors = (
{
name = _ogonek;
position = "{178, 0}";
}
);
layerId = "D9DFF065-DDB2-4B0F-A853-E0DAE751FB65";
paths = (
{
closed = 1;
nodes = (
"173 3 LINE",
"73 -22 OFFCURVE",
"6 -80 OFFCURVE",
"6 -144 CURVE SMOOTH",
"6 -194 OFFCURVE",
"46 -230 OFFCURVE",
"107 -230 CURVE SMOOTH",
"131 -230 OFFCURVE",
"162 -224 OFFCURVE",
"183 -215 CURVE",
"177 -198 LINE",
"155 -205 OFFCURVE",
"128 -210 OFFCURVE",
"108 -210 CURVE SMOOTH",
"59 -210 OFFCURVE",
"27 -181 OFFCURVE",
"27 -141 CURVE SMOOTH",
"27 -84 OFFCURVE",
"91 -30 OFFCURVE",
"188 -2 CURVE"
);
}
);
width = 254;
},
{
anchors = (
{
name = _ogonek;
position = "{241, 0}";
}
);
layerId = "EF8420CB-322A-4DAC-B980-DA6E6912705F";
paths = (
{
closed = 1;
nodes = (
"198 7 LINE",
"117 -9 OFFCURVE",
"30 -67 OFFCURVE",
"30 -141 CURVE SMOOTH",
"30 -194 OFFCURVE",
"75 -230 OFFCURVE",
"142 -230 CURVE SMOOTH",
"181 -230 OFFCURVE",
"233 -218 OFFCURVE",
"274 -201 CURVE",
"265 -123 LINE",
"251 -128 OFFCURVE",
"234 -132 OFFCURVE",
"222 -132 CURVE SMOOTH",
"198 -132 OFFCURVE",
"182 -117 OFFCURVE",
"182 -96 CURVE SMOOTH",
"182 -63 OFFCURVE",
"222 -27 OFFCURVE",
"283 -5 CURVE"
);
}
);
width = 313;
}
);
unicode = 0328;
},
{
glyphname = strokeshortcomb;
layers = (
{
anchors = (
{
name = _center;
position = "{218, 300}";
}
);
layerId = "D9DFF065-DDB2-4B0F-A853-E0DAE751FB65";
paths = (
{
closed = 1;
nodes = (
"96 290 LINE",
"339 290 LINE",
"339 309 LINE",
"96 309 LINE"
);
}
);
width = 435;
},
{
anchors = (
{
name = _center;
position = "{241, 310}";
}
);
layerId = "EF8420CB-322A-4DAC-B980-DA6E6912705F";
paths = (
{
closed = 1;
nodes = (
"61 257 LINE",
"420 257 LINE",
"420 363 LINE",
"61 363 LINE"
);
}
);
width = 481;
}
);
unicode = 0335;
},
{
glyphname = strokelongcomb;
layers = (
{
anchors = (
{
name = _center;
position = "{436, 361}";
}
);
layerId = "D9DFF065-DDB2-4B0F-A853-E0DAE751FB65";
paths = (
{
closed = 1;
nodes = (
"96 351 LINE",
"775 351 LINE",
"775 370 LINE",
"96 370 LINE"
);
}
);
width = 871;
},
{
anchors = (
{
name = _center;
position = "{441, 310}";
}
);
layerId = "EF8420CB-322A-4DAC-B980-DA6E6912705F";
paths = (
{
closed = 1;
nodes = (
"61 250 LINE",
"820 250 LINE",
"820 370 LINE",
"61 370 LINE"
);
}
);
width = 881;
}
);
unicode = 0336;
},
{
glyphname = slashshortcomb;
layers = (
{
anchors = (
{
name = _center;
position = "{156, 269}";
}
);
layerId = "D9DFF065-DDB2-4B0F-A853-E0DAE751FB65";
paths = (
{
closed = 1;
nodes = (
"47 215 LINE",
"56 200 LINE",
"265 322 LINE",
"256 338 LINE"
);
}
);
width = 312;
},
{
anchors = (
{
name = _center;
position = "{193, 312}";
}
);
layerId = "EF8420CB-322A-4DAC-B980-DA6E6912705F";
paths = (
{
closed = 1;
nodes = (
"12 277 LINE",
"60 187 LINE",
"373 347 LINE",
"325 437 LINE"
);
}
);
width = 391;
}
);
unicode = 0337;
},
{
glyphname = slashlongcomb;
layers = (
{
anchors = (
{
name = _center;
position = "{233, 236}";
}
);
layerId = "D9DFF065-DDB2-4B0F-A853-E0DAE751FB65";
paths = (
{
closed = 1;
nodes = (
"44 -11 LINE",
"435 472 LINE",
"420 483 LINE",
"30 0 LINE"
);
}
);
width = 465;
},
{
anchors = (
{
name = _center;
position = "{245, 249}";
}
);
layerId = "EF8420CB-322A-4DAC-B980-DA6E6912705F";
paths = (
{
closed = 1;
nodes = (
"59 0 LINE",
"490 438 LINE",
"425 497 LINE",
"-1 62 LINE"
);
}
);
width = 488;
}
);
unicode = 0338;
},
{
glyphname = slashlongcomb.case;
layers = (
{
anchors = (
{
name = _center;
position = "{279, 348}";
}
);
layerId = "D9DFF065-DDB2-4B0F-A853-E0DAE751FB65";
paths = (
{
closed = 1;
nodes = (
"42 -33 LINE",
"531 719 LINE",
"514 729 LINE",
"27 -23 LINE"
);
}
);
width = 558;
},
{
anchors = (
{
name = _center;
position = "{292, 351}";
}
);
layerId = "EF8420CB-322A-4DAC-B980-DA6E6912705F";
paths = (
{
closed = 1;
nodes = (
"92 -51 LINE",
"589 689 LINE",
"489 753 LINE",
"-6 15 LINE"
);
}
);
width = 584;
}
);
},
{
glyphname = circumflexcomb.narrow;
layers = (
{
anchors = (
{
name = _top;
position = "{147, 497}";
},
{
name = top;
position = "{147, 764}";
}
);
layerId = "EF8420CB-322A-4DAC-B980-DA6E6912705F";
paths = (
{
closed = 1;
nodes = (
"158 649 LINE",
"135 649 LINE",
"221 554 LINE",
"303 641 LINE",
"149 815 LINE",
"147 815 LINE",
"-11 641 LINE",
"71 554 LINE"
);
}
);
width = 294;
},
{
anchors = (
{
name = _top;
position = "{143, 472}";
},
{
name = top;
position = "{143, 667}";
}
);
layerId = "D9DFF065-DDB2-4B0F-A853-E0DAE751FB65";
paths = (
{
closed = 1;
nodes = (
"142 670 LINE",
"144 670 LINE",
"221 563 LINE",
"234 575 LINE",
"152 688 LINE",
"135 688 LINE",
"52 575 LINE",
"65 563 LINE"
);
}
);
width = 287;
}
);
},
{
glyphname = macroncomb.narrow;
layers = (
{
anchors = (
{
name = _top;
position = "{226, 472}";
},
{
name = top;
position = "{226, 634}";
}
);
layerId = "D9DFF065-DDB2-4B0F-A853-E0DAE751FB65";
paths = (
{
closed = 1;
nodes = (
"126 642 LINE",
"126 626 LINE",
"326 626 LINE",
"326 642 LINE"
);
}
);
width = 451;
},
{
anchors = (
{
name = _top;
position = "{221, 497}";
},
{
name = top;
position = "{221, 716}";
}
);
layerId = "EF8420CB-322A-4DAC-B980-DA6E6912705F";
paths = (
{
closed = 1;
nodes = (
"96 716 LINE",
"96 586 LINE",
"346 586 LINE",
"346 716 LINE"
);
}
);
width = 441;
}
);
},
{
export = 0;
glyphname = _dot;
layers = (
{
layerId = "EF8420CB-322A-4DAC-B980-DA6E6912705F";
paths = (
{
closed = 1;
nodes = (
"56 -93 OFFCURVE",
"93 -56 OFFCURVE",
"93 0 CURVE SMOOTH",
"93 56 OFFCURVE",
"56 93 OFFCURVE",
"0 93 CURVE SMOOTH",
"-56 93 OFFCURVE",
"-93 56 OFFCURVE",
"-93 0 CURVE SMOOTH",
"-93 -56 OFFCURVE",
"-56 -93 OFFCURVE",
"0 -93 CURVE SMOOTH"
);
}
);
width = 600;
},
{
layerId = "D9DFF065-DDB2-4B0F-A853-E0DAE751FB65";
paths = (
{
closed = 1;
nodes = (
"12 -21 OFFCURVE",
"21 -12 OFFCURVE",
"21 0 CURVE SMOOTH",
"21 12 OFFCURVE",
"12 21 OFFCURVE",
"0 21 CURVE SMOOTH",
"-12 21 OFFCURVE",
"-21 12 OFFCURVE",
"-21 0 CURVE SMOOTH",
"-21 -12 OFFCURVE",
"-12 -21 OFFCURVE",
"0 -21 CURVE SMOOTH"
);
}
);
width = 600;
}
);
},
{
export = 0;
glyphname = _k;
layers = (
{
layerId = "EF8420CB-322A-4DAC-B980-DA6E6912705F";
paths = (
{
closed = 1;
nodes = (
"204 188 LINE",
"327 0 LINE",
"534 0 LINE",
"315 299 LINE"
);
},
{
closed = 1;
nodes = (
"163 121 LINE",
"516 497 LINE",
"321 497 LINE",
"163 326 LINE"
);
}
);
width = 620;
},
{
layerId = "D9DFF065-DDB2-4B0F-A853-E0DAE751FB65";
paths = (
{
closed = 1;
nodes = (
"240 277 LINE",
"484 0 LINE",
"509 0 LINE",
"255 291 LINE"
);
},
{
closed = 1;
nodes = (
"163 197 LINE",
"475 472 LINE",
"443 472 LINE",
"163 222 LINE"
);
}
);
width = 630;
}
);
},
{
export = 0;
glyphname = _n;
layers = (
{
layerId = "D9DFF065-DDB2-4B0F-A853-E0DAE751FB65";
paths = (
{
closed = 1;
nodes = (
"478 0 LINE",
"478 332 LINE SMOOTH",
"478 428 OFFCURVE",
"418 484 OFFCURVE",
"321 484 CURVE SMOOTH",
"246 484 OFFCURVE",
"166 451 OFFCURVE",
"112 401 CURVE",
"112 385 LINE",
"168 433 OFFCURVE",
"249 465 OFFCURVE",
"318 465 CURVE SMOOTH",
"405 465 OFFCURVE",
"458 415 OFFCURVE",
"458 331 CURVE SMOOTH",
"458 0 LINE"
);
}
);
width = 547;
},
{
layerId = "EF8420CB-322A-4DAC-B980-DA6E6912705F";
paths = (
{
closed = 1;
nodes = (
"543 0 LINE",
"543 358 LINE SMOOTH",
"543 449 OFFCURVE",
"483 509 OFFCURVE",
"394 509 CURVE SMOOTH",
"332 509 OFFCURVE",
"264 479 OFFCURVE",
"220 433 CURVE",
"220 309 LINE",
"249 335 OFFCURVE",
"282 362 OFFCURVE",
"318 362 CURVE SMOOTH",
"345 362 OFFCURVE",
"370 347 OFFCURVE",
"370 294 CURVE SMOOTH",
"370 0 LINE"
);
}
);
width = 597;
}
);
},
{
export = 0;
glyphname = _d;
layers = (
{
anchors = (
{
name = _bowl;
position = "{427, 234}";
}
);
layerId = "D9DFF065-DDB2-4B0F-A853-E0DAE751FB65";
paths = (
{
closed = 1;
nodes = (
"321 -12 OFFCURVE",
"375 12 OFFCURVE",
"427 65 CURVE",
"427 81 LINE",
"385 36 OFFCURVE",
"330 8 OFFCURVE",
"264 8 CURVE SMOOTH",
"145 8 OFFCURVE",
"58 99 OFFCURVE",
"58 237 CURVE SMOOTH",
"58 373 OFFCURVE",
"143 464 OFFCURVE",
"260 464 CURVE SMOOTH",
"323 464 OFFCURVE",
"386 436 OFFCURVE",
"427 389 CURVE",
"429 403 LINE",
"386 454 OFFCURVE",
"327 484 OFFCURVE",
"258 484 CURVE SMOOTH",
"131 484 OFFCURVE",
"37 385 OFFCURVE",
"37 237 CURVE SMOOTH",
"37 87 OFFCURVE",
"134 -12 OFFCURVE",
"260 -12 CURVE SMOOTH"
);
}
);
width = 620;
},
{
anchors = (
{
name = _bowl;
position = "{378, 243}";
}
);
layerId = "EF8420CB-322A-4DAC-B980-DA6E6912705F";
paths = (
{
closed = 1;
nodes = (
"307 -12 OFFCURVE",
"353 12 OFFCURVE",
"403 65 CURVE",
"386 192 LINE",
"360 155 OFFCURVE",
"322 132 OFFCURVE",
"291 132 CURVE SMOOTH",
"247 132 OFFCURVE",
"212 178 OFFCURVE",
"212 249 CURVE SMOOTH",
"212 317 OFFCURVE",
"245 364 OFFCURVE",
"291 364 CURVE SMOOTH",
"330 364 OFFCURVE",
"368 331 OFFCURVE",
"386 282 CURVE",
"403 410 LINE",
"366 479 OFFCURVE",
"318 509 OFFCURVE",
"250 509 CURVE SMOOTH",
"127 509 OFFCURVE",
"36 405 OFFCURVE",
"36 250 CURVE SMOOTH",
"36 92 OFFCURVE",
"131 -12 OFFCURVE",
"250 -12 CURVE SMOOTH"
);
}
);
width = 598;
}
);
},
{
export = 0;
glyphname = _stem.n;
layers = (
{
layerId = "D9DFF065-DDB2-4B0F-A853-E0DAE751FB65";
paths = (
{
closed = 1;
nodes = (
"116 0 LINE",
"116 398 LINE",
"112 472 LINE",
"96 472 LINE",
"96 0 LINE"
);
}
);
width = 557;
},
{
layerId = "EF8420CB-322A-4DAC-B980-DA6E6912705F";
paths = (
{
closed = 1;
nodes = (
"234 0 LINE",
"234 386 LINE",
"206 497 LINE",
"61 497 LINE",
"61 0 LINE"
);
}
);
width = 577;
}
);
},
{
export = 0;
glyphname = _stem.p;
layers = (
{
anchors = (
{
name = bowl;
position = "{234, 243}";
}
);
components = (
{
name = _stem.n;
}
);
layerId = "EF8420CB-322A-4DAC-B980-DA6E6912705F";
paths = (
{
closed = 1;
nodes = (
"61 -218 LINE",
"234 -218 LINE",
"234 0 LINE",
"61 0 LINE"
);
}
);
width = 577;
},
{
anchors = (
{
name = bowl;
position = "{116, 234}";
}
);
components = (
{
name = _stem.n;
}
);
layerId = "D9DFF065-DDB2-4B0F-A853-E0DAE751FB65";
paths = (
{
closed = 1;
nodes = (
"96 -218 LINE",
"116 -218 LINE",
"116 0 LINE",
"96 0 LINE"
);
}
);
width = 519;
}
);
},
{
export = 0;
glyphname = _period;
layers = (
{
layerId = "D9DFF065-DDB2-4B0F-A853-E0DAE751FB65";
paths = (
{
closed = 1;
nodes = (
"171 -12 OFFCURVE",
"184 1 OFFCURVE",
"184 21 CURVE SMOOTH",
"184 41 OFFCURVE",
"171 54 OFFCURVE",
"151 54 CURVE SMOOTH",
"131 54 OFFCURVE",
"118 41 OFFCURVE",
"118 21 CURVE SMOOTH",
"118 1 OFFCURVE",
"131 -12 OFFCURVE",
"151 -12 CURVE SMOOTH"
);
}
);
width = 302;
},
{
layerId = "EF8420CB-322A-4DAC-B980-DA6E6912705F";
paths = (
{
closed = 1;
nodes = (
"224 -10 OFFCURVE",
"263 31 OFFCURVE",
"263 85 CURVE SMOOTH",
"263 139 OFFCURVE",
"224 181 OFFCURVE",
"168 181 CURVE SMOOTH",
"112 181 OFFCURVE",
"73 139 OFFCURVE",
"73 85 CURVE SMOOTH",
"73 31 OFFCURVE",
"112 -10 OFFCURVE",
"168 -10 CURVE SMOOTH"
);
}
);
width = 336;
}
);
},
{
export = 0;
glyphname = _comma;
layers = (
{
layerId = "D9DFF065-DDB2-4B0F-A853-E0DAE751FB65";
paths = (
{
closed = 1;
nodes = (
"162 -92 OFFCURVE",
"187 -31 OFFCURVE",
"187 9 CURVE SMOOTH",
"187 37 OFFCURVE",
"174 55 OFFCURVE",
"152 55 CURVE SMOOTH",
"134 55 OFFCURVE",
"121 42 OFFCURVE",
"121 22 CURVE SMOOTH",
"121 2 OFFCURVE",
"135 -11 OFFCURVE",
"155 -11 CURVE",
"153 -39 OFFCURVE",
"136 -89 OFFCURVE",
"112 -136 CURVE",
"124 -142 LINE"
);
}
);
width = 297;
},
{
layerId = "EF8420CB-322A-4DAC-B980-DA6E6912705F";
paths = (
{
closed = 1;
nodes = (
"205 -139 OFFCURVE",
"269 -25 OFFCURVE",
"269 66 CURVE SMOOTH",
"269 135 OFFCURVE",
"231 181 OFFCURVE",
"167 181 CURVE SMOOTH",
"111 181 OFFCURVE",
"71 144 OFFCURVE",
"71 87 CURVE SMOOTH",
"71 38 OFFCURVE",
"101 -1 OFFCURVE",
"147 -8 CURVE",
"138 -58 OFFCURVE",
"106 -114 OFFCURVE",
"61 -159 CURVE",
"111 -194 LINE"
);
}
);
width = 326;
}
);
},
{
export = 0;
glyphname = _quote;
layers = (
{
layerId = "D9DFF065-DDB2-4B0F-A853-E0DAE751FB65";
paths = (
{
closed = 1;
nodes = (
"174 502 LINE",
"177 669 LINE",
"177 698 OFFCURVE",
"173 712 OFFCURVE",
"165 712 CURVE SMOOTH",
"158 712 OFFCURVE",
"155 698 OFFCURVE",
"155 669 CURVE",
"160 502 LINE"
);
}
);
width = 334;
},
{
layerId = "EF8420CB-322A-4DAC-B980-DA6E6912705F";
paths = (
{
closed = 1;
nodes = (
"194 354 LINE",
"218 609 LINE",
"218 691 OFFCURVE",
"187 719 OFFCURVE",
"141 719 CURVE SMOOTH",
"95 719 OFFCURVE",
"64 692 OFFCURVE",
"64 611 CURVE",
"95 354 LINE"
);
}
);
width = 284;
}
);
},
{
export = 0;
glyphname = _acute;
layers = (
{
layerId = "D9DFF065-DDB2-4B0F-A853-E0DAE751FB65";
paths = (
{
closed = 1;
nodes = (
"51 532 LINE",
"64 522 LINE",
"171 663 LINE",
"157 675 LINE"
);
}
);
width = 218;
},
{
layerId = "EF8420CB-322A-4DAC-B980-DA6E6912705F";
paths = (
{
closed = 1;
nodes = (
"-13 616 LINE",
"75 544 LINE",
"236 718 LINE",
"128 806 LINE"
);
}
);
width = 227;
}
);
},
{
export = 0;
glyphname = _circumflex;
layers = (
{
layerId = "D9DFF065-DDB2-4B0F-A853-E0DAE751FB65";
paths = (
{
closed = 1;
nodes = (
"301 651 LINE",
"304 651 LINE",
"410 533 LINE",
"423 545 LINE",
"312 668 LINE",
"293 668 LINE",
"181 545 LINE",
"194 533 LINE"
);
}
);
width = 600;
},
{
layerId = "EF8420CB-322A-4DAC-B980-DA6E6912705F";
paths = (
{
closed = 1;
nodes = (
"302 666 LINE",
"281 666 LINE",
"390 554 LINE",
"473 641 LINE",
"295 815 LINE",
"289 815 LINE",
"109 641 LINE",
"192 554 LINE"
);
}
);
width = 600;
}
);
},
{
export = 0;
glyphname = _percentzero;
layers = (
{
layerId = "D9DFF065-DDB2-4B0F-A853-E0DAE751FB65";
paths = (
{
closed = 1;
nodes = (
"271 -12 OFFCURVE",
"325 74 OFFCURVE",
"325 205 CURVE SMOOTH",
"325 336 OFFCURVE",
"271 423 OFFCURVE",
"189 423 CURVE SMOOTH",
"106 423 OFFCURVE",
"51 336 OFFCURVE",
"51 205 CURVE SMOOTH",
"51 74 OFFCURVE",
"106 -12 OFFCURVE",
"189 -12 CURVE SMOOTH"
);
},
{
closed = 1;
nodes = (
"119 7 OFFCURVE",
"72 86 OFFCURVE",
"72 205 CURVE SMOOTH",
"72 324 OFFCURVE",
"119 404 OFFCURVE",
"189 404 CURVE SMOOTH",
"258 404 OFFCURVE",
"304 324 OFFCURVE",
"304 205 CURVE SMOOTH",
"304 86 OFFCURVE",
"258 7 OFFCURVE",
"189 7 CURVE SMOOTH"
);
}
);
width = 377;
userData = {
RMXScaler = {
height = 60;
width = 60;
};
};
},
{
layerId = "EF8420CB-322A-4DAC-B980-DA6E6912705F";
paths = (
{
closed = 1;
nodes = (
"339 -7 OFFCURVE",
"418 81 OFFCURVE",
"418 214 CURVE SMOOTH",
"418 346 OFFCURVE",
"339 434 OFFCURVE",
"222 434 CURVE SMOOTH",
"104 434 OFFCURVE",
"24 346 OFFCURVE",
"24 214 CURVE SMOOTH",
"24 81 OFFCURVE",
"104 -7 OFFCURVE",
"222 -7 CURVE SMOOTH"
);
},
{
closed = 1;
nodes = (
"201 127 OFFCURVE",
"187 162 OFFCURVE",
"187 214 CURVE SMOOTH",
"187 266 OFFCURVE",
"201 300 OFFCURVE",
"222 300 CURVE SMOOTH",
"242 300 OFFCURVE",
"255 266 OFFCURVE",
"255 214 CURVE SMOOTH",
"255 162 OFFCURVE",
"242 127 OFFCURVE",
"222 127 CURVE SMOOTH"
);
}
);
width = 442;
userData = {
RMXScaler = {
height = 60;
weight = -10;
width = 60;
};
};
}
);
leftMetricsKey = zero.dnom;
rightMetricsKey = zero.dnom;
userData = {
RMXScaler = {
source = zero;
};
};
},
{
export = 0;
glyphname = _hook.case;
layers = (
{
anchors = (
{
name = _hook;
position = "{622, 0}";
}
);
layerId = "D9DFF065-DDB2-4B0F-A853-E0DAE751FB65";
paths = (
{
closed = 1;
nodes = (
"403 -175 LINE",
"436 -196 OFFCURVE",
"479 -210 OFFCURVE",
"513 -210 CURVE SMOOTH",
"570 -210 OFFCURVE",
"609 -170 OFFCURVE",
"609 -110 CURVE SMOOTH",
"609 0 LINE",
"636 0 LINE",
"636 -110 LINE SMOOTH",
"636 -182 OFFCURVE",
"584 -230 OFFCURVE",
"518 -230 CURVE SMOOTH",
"481 -230 OFFCURVE",
"438 -215 OFFCURVE",
"400 -192 CURVE"
);
}
);
width = 746;
},
{
anchors = (
{
name = _hook;
position = "{607, 0}";
}
);
layerId = "EF8420CB-322A-4DAC-B980-DA6E6912705F";
paths = (
{
closed = 1;
nodes = (
"352 -75 LINE",
"385 -96 OFFCURVE",
"424 -110 OFFCURVE",
"450 -110 CURVE SMOOTH",
"483 -110 OFFCURVE",
"505 -86 OFFCURVE",
"505 -50 CURVE SMOOTH",
"505 0 LINE",
"696 0 LINE",
"696 -50 LINE SMOOTH",
"696 -158 OFFCURVE",
"615 -230 OFFCURVE",
"493 -230 CURVE SMOOTH",
"436 -230 OFFCURVE",
"373 -215 OFFCURVE",
"335 -192 CURVE"
);
}
);
width = 766;
}
);
},
{
export = 0;
glyphname = _hook;
layers = (
{
layerId = "D9DFF065-DDB2-4B0F-A853-E0DAE751FB65";
paths = (
{
closed = 1;
nodes = (
"431 -230 OFFCURVE",
"478 -182 OFFCURVE",
"478 -110 CURVE SMOOTH",
"478 0 LINE",
"458 0 LINE",
"458 -110 LINE SMOOTH",
"458 -170 OFFCURVE",
"417 -210 OFFCURVE",
"357 -210 CURVE SMOOTH",
"322 -210 OFFCURVE",
"281 -196 OFFCURVE",
"248 -175 CURVE",
"242 -192 LINE",
"280 -215 OFFCURVE",
"327 -230 OFFCURVE",
"364 -230 CURVE SMOOTH"
);
}
);
width = 568;
},
{
layerId = "EF8420CB-322A-4DAC-B980-DA6E6912705F";
paths = (
{
closed = 1;
nodes = (
"462 -230 OFFCURVE",
"543 -158 OFFCURVE",
"543 -50 CURVE SMOOTH",
"543 0 LINE",
"370 0 LINE",
"370 -50 LINE SMOOTH",
"370 -86 OFFCURVE",
"341 -110 OFFCURVE",
"301 -110 CURVE SMOOTH",
"271 -110 OFFCURVE",
"232 -96 OFFCURVE",
"199 -75 CURVE",
"182 -192 LINE",
"220 -215 OFFCURVE",
"283 -230 OFFCURVE",
"340 -230 CURVE SMOOTH"
);
}
);
width = 596;
}
);
},
{
export = 0;
glyphname = _commabelow;
layers = (
{
layerId = "D9DFF065-DDB2-4B0F-A853-E0DAE751FB65";
paths = (
{
closed = 1;
nodes = (
"314 -185 OFFCURVE",
"333 -134 OFFCURVE",
"333 -98 CURVE SMOOTH",
"333 -74 OFFCURVE",
"325 -58 OFFCURVE",
"305 -58 CURVE SMOOTH",
"289 -58 OFFCURVE",
"279 -68 OFFCURVE",
"279 -84 CURVE SMOOTH",
"279 -100 OFFCURVE",
"289 -110 OFFCURVE",
"312 -110 CURVE",
"312 -142 OFFCURVE",
"297 -179 OFFCURVE",
"274 -203 CURVE",
"286 -209 LINE"
);
}
);
width = 600;
},
{
layerId = "EF8420CB-322A-4DAC-B980-DA6E6912705F";
paths = (
{
closed = 1;
nodes = (
"328 -259 OFFCURVE",
"372 -189 OFFCURVE",
"372 -128 CURVE SMOOTH",
"372 -73 OFFCURVE",
"338 -36 OFFCURVE",
"286 -36 CURVE SMOOTH",
"237 -36 OFFCURVE",
"205 -68 OFFCURVE",
"205 -115 CURVE SMOOTH",
"205 -159 OFFCURVE",
"230 -189 OFFCURVE",
"268 -189 CURVE",
"268 -209 OFFCURVE",
"245 -243 OFFCURVE",
"210 -274 CURVE",
"263 -314 LINE"
);
}
);
width = 600;
}
);
},
{
export = 0;
glyphname = _hacekascender;
layers = (
{
layerId = "D9DFF065-DDB2-4B0F-A853-E0DAE751FB65";
paths = (
{
closed = 1;
nodes = (
"78 521 LINE",
"94 517 LINE",
"141 688 LINE",
"123 694 LINE"
);
}
);
width = 243;
},
{
layerId = "EF8420CB-322A-4DAC-B980-DA6E6912705F";
paths = (
{
closed = 1;
nodes = (
"108 548 LINE",
"203 541 LINE",
"240 755 LINE",
"114 764 LINE"
);
}
);
width = 345;
}
);
},
{
export = 0;
glyphname = _dollarstem;
layers = (
{
layerId = "D9DFF065-DDB2-4B0F-A853-E0DAE751FB65";
paths = (
{
closed = 1;
nodes = (
"288 -136 LINE",
"308 -136 LINE",
"308 6 LINE",
"288 6 LINE"
);
}
);
width = 624;
},
{
layerId = "EF8420CB-322A-4DAC-B980-DA6E6912705F";
paths = (
{
closed = 1;
nodes = (
"243 -136 LINE",
"387 -136 LINE",
"387 16 LINE",
"243 16 LINE"
);
}
);
width = 604;
}
);
},
{
export = 0;
glyphname = _breve;
layers = (
{
layerId = "D9DFF065-DDB2-4B0F-A853-E0DAE751FB65";
paths = (
{
closed = 1;
nodes = (
"268 614 OFFCURVE",
"231 587 OFFCURVE",
"187 587 CURVE SMOOTH",
"142 587 OFFCURVE",
"104 615 OFFCURVE",
"83 662 CURVE",
"69 652 LINE",
"92 600 OFFCURVE",
"136 568 OFFCURVE",
"187 568 CURVE SMOOTH",
"238 568 OFFCURVE",
"281 600 OFFCURVE",
"301 652 CURVE",
"287 661 LINE"
);
}
);
width = 372;
},
{
layerId = "EF8420CB-322A-4DAC-B980-DA6E6912705F";
paths = (
{
closed = 1;
nodes = (
"286 713 OFFCURVE",
"247 690 OFFCURVE",
"211 690 CURVE SMOOTH",
"176 690 OFFCURVE",
"131 710 OFFCURVE",
"113 750 CURVE",
"18 678 LINE",
"56 601 OFFCURVE",
"135 556 OFFCURVE",
"210 556 CURVE SMOOTH",
"287 556 OFFCURVE",
"363 604 OFFCURVE",
"398 675 CURVE",
"303 747 LINE"
);
}
);
width = 417;
}
);
},
{
export = 0;
glyphname = _macron;
layers = (
{
layerId = "D9DFF065-DDB2-4B0F-A853-E0DAE751FB65";
paths = (
{
closed = 1;
nodes = (
"96 642 LINE",
"96 626 LINE",
"355 626 LINE",
"355 642 LINE"
);
}
);
width = 451;
},
{
layerId = "EF8420CB-322A-4DAC-B980-DA6E6912705F";
paths = (
{
closed = 1;
nodes = (
"26 716 LINE",
"26 586 LINE",
"415 586 LINE",
"415 716 LINE"
);
}
);
width = 441;
}
);
},
{
export = 0;
glyphname = _slash.zero;
layers = (
{
anchors = (
{
name = _slash;
position = "{311, 370}";
}
);
layerId = "D9DFF065-DDB2-4B0F-A853-E0DAE751FB65";
paths = (
{
closed = 1;
nodes = (
"173 76 LINE",
"453 623 LINE",
"436 635 LINE",
"157 88 LINE"
);
}
);
width = 612;
},
{
anchors = (
{
name = _slash;
position = "{326, 369}";
}
);
layerId = "EF8420CB-322A-4DAC-B980-DA6E6912705F";
paths = (
{
closed = 1;
nodes = (
"192 128 LINE",
"518 519 LINE",
"457 582 LINE",
"132 190 LINE"
);
}
);
width = 600;
}
);
},
{
export = 0;
glyphname = _tail.Q;
layers = (
{
anchors = (
{
name = _Qtail;
position = "{564, 78}";
}
);
layerId = "D9DFF065-DDB2-4B0F-A853-E0DAE751FB65";
paths = (
{
closed = 1;
nodes = (
"440 183 LINE",
"668 -38 LINE",
"682 -23 LINE",
"454 199 LINE"
);
}
);
width = 778;
},
{
anchors = (
{
name = _Qtail;
position = "{528, 129}";
}
);
layerId = "EF8420CB-322A-4DAC-B980-DA6E6912705F";
paths = (
{
closed = 1;
nodes = (
"343 208 LINE",
"615 -39 LINE",
"699 46 LINE",
"427 294 LINE"
);
}
);
width = 763;
}
);
},
{
export = 0;
glyphname = _stem.g;
layers = (
{
anchors = (
{
name = bowl;
position = "{448, 234}";
}
);
layerId = "D9DFF065-DDB2-4B0F-A853-E0DAE751FB65";
paths = (
{
closed = 1;
nodes = (
"396 -230 OFFCURVE",
"468 -162 OFFCURVE",
"468 -60 CURVE SMOOTH",
"468 472 LINE",
"453 472 LINE",
"448 398 LINE",
"448 -60 LINE SMOOTH",
"448 -150 OFFCURVE",
"383 -210 OFFCURVE",
"283 -210 CURVE SMOOTH",
"231 -210 OFFCURVE",
"175 -194 OFFCURVE",
"131 -170 CURVE",
"125 -187 LINE",
"168 -213 OFFCURVE",
"233 -230 OFFCURVE",
"287 -230 CURVE SMOOTH"
);
}
);
width = 564;
},
{
anchors = (
{
name = bowl;
position = "{372, 243}";
}
);
layerId = "EF8420CB-322A-4DAC-B980-DA6E6912705F";
paths = (
{
closed = 1;
nodes = (
"439 -229 OFFCURVE",
"545 -137 OFFCURVE",
"545 0 CURVE SMOOTH",
"545 497 LINE",
"400 497 LINE",
"372 377 LINE",
"372 0 LINE SMOOTH",
"372 -50 OFFCURVE",
"326 -84 OFFCURVE",
"258 -84 CURVE SMOOTH",
"213 -84 OFFCURVE",
"156 -69 OFFCURVE",
"114 -46 CURVE",
"90 -188 LINE",
"144 -213 OFFCURVE",
"220 -229 OFFCURVE",
"281 -229 CURVE SMOOTH"
);
}
);
width = 610;
}
);
},
{
export = 0;
glyphname = _stem.d;
layers = (
{
anchors = (
{
name = bowl;
position = "{448, 234}";
}
);
layerId = "D9DFF065-DDB2-4B0F-A853-E0DAE751FB65";
paths = (
{
closed = 1;
nodes = (
"468 0 LINE",
"468 718 LINE",
"448 718 LINE",
"448 74 LINE",
"453 0 LINE"
);
}
);
width = 564;
},
{
anchors = (
{
name = bowl;
position = "{372, 243}";
}
);
layerId = "EF8420CB-322A-4DAC-B980-DA6E6912705F";
paths = (
{
closed = 1;
nodes = (
"545 0 LINE",
"545 728 LINE",
"372 728 LINE",
"372 120 LINE",
"400 0 LINE"
);
}
);
width = 610;
}
);
},
{
export = 0;
glyphname = _stem.b;
layers = (
{
anchors = (
{
name = bowl;
position = "{116, 234}";
}
);
layerId = "D9DFF065-DDB2-4B0F-A853-E0DAE751FB65";
paths = (
{
closed = 1;
nodes = (
"111 0 LINE",
"116 74 LINE",
"116 718 LINE",
"96 718 LINE",
"96 0 LINE"
);
}
);
width = 564;
},
{
anchors = (
{
name = bowl;
position = "{238, 243}";
}
);
layerId = "EF8420CB-322A-4DAC-B980-DA6E6912705F";
paths = (
{
closed = 1;
nodes = (
"210 0 LINE",
"238 120 LINE",
"238 728 LINE",
"65 728 LINE",
"65 0 LINE"
);
}
);
width = 610;
}
);
},
{
export = 0;
glyphname = _a.ae;
layers = (
{
layerId = "D9DFF065-DDB2-4B0F-A853-E0DAE751FB65";
paths = (
{
closed = 1;
nodes = (
"416 252 LINE",
"416 304 LINE SMOOTH",
"416 425 OFFCURVE",
"355 484 OFFCURVE",
"247 484 CURVE SMOOTH",
"192 484 OFFCURVE",
"134 468 OFFCURVE",
"84 442 CURVE",
"87 425 LINE",
"132 450 OFFCURVE",
"193 464 OFFCURVE",
"243 464 CURVE SMOOTH",
"343 464 OFFCURVE",
"399 409 OFFCURVE",
"399 304 CURVE SMOOTH",
"399 252 LINE"
);
},
{
closed = 1;
nodes = (
"271 -12 OFFCURVE",
"355 21 OFFCURVE",
"433 96 CURVE",
"433 112 LINE",
"352 39 OFFCURVE",
"269 8 OFFCURVE",
"202 8 CURVE SMOOTH",
"117 8 OFFCURVE",
"68 57 OFFCURVE",
"68 117 CURVE SMOOTH",
"68 205 OFFCURVE",
"165 240 OFFCURVE",
"407 240 CURVE",
"407 259 LINE",
"150 259 OFFCURVE",
"47 218 OFFCURVE",
"47 116 CURVE SMOOTH",
"47 45 OFFCURVE",
"103 -12 OFFCURVE",
"200 -12 CURVE SMOOTH"
);
}
);
width = 463;
},
{
layerId = "EF8420CB-322A-4DAC-B980-DA6E6912705F";
paths = (
{
closed = 1;
nodes = (
"439 261 LINE",
"439 327 LINE SMOOTH",
"439 405 OFFCURVE",
"411 507 OFFCURVE",
"268 507 CURVE SMOOTH",
"209 507 OFFCURVE",
"134 490 OFFCURVE",
"76 460 CURVE",
"103 333 LINE",
"145 356 OFFCURVE",
"190 367 OFFCURVE",
"231 367 CURVE SMOOTH",
"289 367 OFFCURVE",
"325 345 OFFCURVE",
"325 307 CURVE SMOOTH",
"325 261 LINE"
);
},
{
closed = 1;
nodes = (
"268 -12 OFFCURVE",
"344 23 OFFCURVE",
"386 76 CURVE",
"347 173 LINE",
"323 145 OFFCURVE",
"286 116 OFFCURVE",
"249 116 CURVE SMOOTH",
"225 116 OFFCURVE",
"207 128 OFFCURVE",
"207 146 CURVE SMOOTH",
"207 174 OFFCURVE",
"263 199 OFFCURVE",
"346 199 CURVE",
"346 311 LINE",
"157 311 OFFCURVE",
"31 238 OFFCURVE",
"31 128 CURVE SMOOTH",
"31 48 OFFCURVE",
"97 -12 OFFCURVE",
"197 -12 CURVE SMOOTH"
);
}
);
width = 469;
}
);
leftMetricsKey = a;
},
{
export = 0;
glyphname = _o.numero;
layers = (
{
layerId = "D9DFF065-DDB2-4B0F-A853-E0DAE751FB65";
paths = (
{
closed = 1;
nodes = (
"295 136 OFFCURVE",
"358 205 OFFCURVE",
"358 310 CURVE SMOOTH",
"358 414 OFFCURVE",
"295 484 OFFCURVE",
"201 484 CURVE SMOOTH",
"107 484 OFFCURVE",
"44 414 OFFCURVE",
"44 310 CURVE SMOOTH",
"44 205 OFFCURVE",
"107 136 OFFCURVE",
"201 136 CURVE SMOOTH"
);
},
{
closed = 1;
nodes = (
"119 154 OFFCURVE",
"65 216 OFFCURVE",
"65 310 CURVE SMOOTH",
"65 403 OFFCURVE",
"119 465 OFFCURVE",
"201 465 CURVE SMOOTH",
"283 465 OFFCURVE",
"337 403 OFFCURVE",
"337 310 CURVE SMOOTH",
"337 216 OFFCURVE",
"283 154 OFFCURVE",
"201 154 CURVE SMOOTH"
);
},
{
closed = 1;
nodes = (
"70 0 LINE",
"333 0 LINE",
"333 19 LINE",
"70 19 LINE"
);
}
);
width = 402;
userData = {
RMXScaler = {
height = 70;
verticalShift = 144;
width = 70;
};
};
},
{
layerId = "EF8420CB-322A-4DAC-B980-DA6E6912705F";
paths = (
{
closed = 1;
nodes = (
"312 139 OFFCURVE",
"387 212 OFFCURVE",
"387 324 CURVE SMOOTH",
"387 435 OFFCURVE",
"312 509 OFFCURVE",
"200 509 CURVE SMOOTH",
"89 509 OFFCURVE",
"15 435 OFFCURVE",
"15 324 CURVE SMOOTH",
"15 212 OFFCURVE",
"89 139 OFFCURVE",
"200 139 CURVE SMOOTH"
);
},
{
closed = 1;
nodes = (
"181 265 OFFCURVE",
"169 289 OFFCURVE",
"169 324 CURVE SMOOTH",
"169 359 OFFCURVE",
"181 382 OFFCURVE",
"200 382 CURVE SMOOTH",
"220 382 OFFCURVE",
"233 359 OFFCURVE",
"233 324 CURVE SMOOTH",
"233 289 OFFCURVE",
"220 265 OFFCURVE",
"200 265 CURVE SMOOTH"
);
},
{
closed = 1;
nodes = (
"40 0 LINE",
"363 0 LINE",
"363 100 LINE",
"40 100 LINE"
);
}
);
width = 402;
userData = {
RMXScaler = {
height = 70;
verticalShift = 147;
weight = -20;
width = 70;
};
};
}
);
userData = {
RMXScaler = {
source = o;
};
};
},
{
export = 0;
glyphname = _T.trademark;
layers = (
{
layerId = "D9DFF065-DDB2-4B0F-A853-E0DAE751FB65";
paths = (
{
closed = 1;
nodes = (
"203 280 LINE",
"203 700 LINE",
"182 700 LINE",
"182 280 LINE"
);
},
{
closed = 1;
nodes = (
"355 700 LINE",
"29 700 LINE",
"29 681 LINE",
"355 681 LINE"
);
}
);
width = 384;
userData = {
RMXScaler = {
height = 60;
verticalShift = 280;
width = 60;
};
};
},
{
layerId = "EF8420CB-322A-4DAC-B980-DA6E6912705F";
paths = (
{
closed = 1;
nodes = (
"255 281 LINE",
"255 707 LINE",
"120 707 LINE",
"120 281 LINE"
);
},
{
closed = 1;
nodes = (
"366 707 LINE",
"9 707 LINE",
"9 582 LINE",
"366 582 LINE"
);
}
);
width = 375;
userData = {
RMXScaler = {
height = 60;
verticalShift = 281;
weight = -40;
width = 60;
};
};
}
);
userData = {
RMXScaler = {
source = T;
};
};
},
{
export = 0;
glyphname = _M.trademark;
layers = (
{
layerId = "D9DFF065-DDB2-4B0F-A853-E0DAE751FB65";
paths = (
{
closed = 1;
nodes = (
"91 280 LINE",
"91 672 LINE",
"94 672 LINE",
"255 390 LINE",
"270 390 LINE",
"432 672 LINE",
"435 672 LINE",
"435 280 LINE",
"456 280 LINE",
"456 700 LINE",
"426 700 LINE",
"265 418 LINE",
"260 418 LINE",
"100 700 LINE",
"70 700 LINE",
"70 280 LINE"
);
}
);
width = 526;
userData = {
RMXScaler = {
height = 60;
verticalShift = 280;
width = 60;
};
};
},
{
layerId = "EF8420CB-322A-4DAC-B980-DA6E6912705F";
paths = (
{
closed = 1;
nodes = (
"177 281 LINE",
"177 452 LINE",
"182 452 LINE",
"245 344 LINE",
"282 344 LINE",
"345 452 LINE",
"350 452 LINE",
"350 281 LINE",
"486 281 LINE",
"486 707 LINE",
"350 707 LINE",
"266 549 LINE",
"261 549 LINE",
"178 707 LINE",
"41 707 LINE",
"41 281 LINE"
);
}
);
width = 527;
userData = {
RMXScaler = {
height = 60;
verticalShift = 281;
weight = -40;
width = 60;
};
};
}
);
userData = {
RMXScaler = {
source = M;
};
};
},
{
export = 0;
glyphname = _lpound;
layers = (
{
layerId = "D9DFF065-DDB2-4B0F-A853-E0DAE751FB65";
paths = (
{
closed = 1;
nodes = (
"221 167 LINE SMOOTH",
"221 98 OFFCURVE",
"179 39 OFFCURVE",
"117 19 CURVE",
"117 0 LINE",
"524 0 LINE",
"524 19 LINE",
"157 19 LINE",
"207 41 OFFCURVE",
"241 100 OFFCURVE",
"241 167 CURVE SMOOTH",
"241 512 LINE SMOOTH",
"241 615 OFFCURVE",
"301 684 OFFCURVE",
"399 684 CURVE SMOOTH",
"427 684 OFFCURVE",
"457 679 OFFCURVE",
"489 669 CURVE",
"491 686 LINE",
"456 698 OFFCURVE",
"423 704 OFFCURVE",
"393 704 CURVE SMOOTH",
"289 704 OFFCURVE",
"221 627 OFFCURVE",
"221 512 CURVE SMOOTH"
);
}
);
width = 614;
},
{
layerId = "EF8420CB-322A-4DAC-B980-DA6E6912705F";
paths = (
{
closed = 1;
nodes = (
"130 242 LINE SMOOTH",
"130 200 OFFCURVE",
"104 161 OFFCURVE",
"64 144 CURVE",
"64 0 LINE",
"531 0 LINE",
"531 144 LINE",
"237 144 LINE",
"277 162 OFFCURVE",
"303 203 OFFCURVE",
"303 246 CURVE SMOOTH",
"303 452 LINE SMOOTH",
"303 519 OFFCURVE",
"339 561 OFFCURVE",
"395 561 CURVE SMOOTH",
"417 561 OFFCURVE",
"446 554 OFFCURVE",
"469 544 CURVE",
"496 680 LINE",
"464 699 OFFCURVE",
"416 719 OFFCURVE",
"356 719 CURVE SMOOTH",
"222 719 OFFCURVE",
"130 620 OFFCURVE",
"130 472 CURVE SMOOTH"
);
}
);
width = 593;
}
);
},
{
export = 0;
glyphname = _lpound_stroke;
layers = (
{
layerId = "D9DFF065-DDB2-4B0F-A853-E0DAE751FB65";
paths = (
{
closed = 1;
nodes = (
"119 366 LINE",
"119 347 LINE",
"498 347 LINE",
"498 366 LINE"
);
}
);
width = 614;
},
{
layerId = "EF8420CB-322A-4DAC-B980-DA6E6912705F";
paths = (
{
closed = 1;
nodes = (
"76 427 LINE",
"76 287 LINE",
"493 287 LINE",
"493 427 LINE"
);
}
);
width = 593;
}
);
},
{
export = 0;
glyphname = _currency_C;
layers = (
{
layerId = "D9DFF065-DDB2-4B0F-A853-E0DAE751FB65";
paths = (
{
closed = 1;
nodes = (
"598 47 LINE",
"548 21 OFFCURVE",
"495 9 OFFCURVE",
"448 9 CURVE SMOOTH",
"289 9 OFFCURVE",
"181 145 OFFCURVE",
"181 348 CURVE SMOOTH",
"181 554 OFFCURVE",
"289 691 OFFCURVE",
"455 691 CURVE SMOOTH",
"508 691 OFFCURVE",
"556 677 OFFCURVE",
"598 659 CURVE",
"604 678 LINE",
"557 698 OFFCURVE",
"504 712 OFFCURVE",
"450 712 CURVE SMOOTH",
"275 712 OFFCURVE",
"159 566 OFFCURVE",
"159 348 CURVE SMOOTH",
"159 132 OFFCURVE",
"275 -12 OFFCURVE",
"441 -12 CURVE SMOOTH",
"487 -12 OFFCURVE",
"548 -1 OFFCURVE",
"604 28 CURVE"
);
}
